G04 #@! TF.FileFunction,Copper,L1,Top,Signal*
%FSLAX46Y46*%
G04 Gerber Fmt 4.6, Leading zero omitted, Abs format (unit mm)*
G04 Created by KiCad (PCBNEW (2015-07-01 BZR 5850)-product) date Mon Jul 27 17:51:59 2015*
%MOMM*%
G01*
G04 APERTURE LIST*
%ADD10C,0.150000*%
%ADD11C,0.127000*%
%ADD12C,1.016000*%
%ADD13R,1.422400X1.066800*%
%ADD14R,1.066800X1.422400*%
%ADD15R,1.270000X1.016000*%
%ADD16R,0.762000X0.762000*%
%ADD17R,2.540000X2.667000*%
%ADD18R,1.270000X0.762000*%
%ADD19R,1.524000X2.032000*%
%ADD20R,2.032000X1.524000*%
%ADD21O,1.524000X2.286000*%
%ADD22R,1.524000X2.286000*%
%ADD23C,1.524000*%
%ADD24R,1.524000X1.524000*%
%ADD25R,2.032000X1.270000*%
%ADD26O,2.032000X1.270000*%
%ADD27O,3.048000X4.572000*%
%ADD28R,3.048000X4.572000*%
%ADD29O,4.572000X3.048000*%
%ADD30C,1.905000*%
%ADD31O,1.778000X0.762000*%
%ADD32R,0.800100X1.198880*%
%ADD33R,1.498600X1.300480*%
%ADD34R,1.300480X1.498600*%
%ADD35R,1.524000X0.762000*%
%ADD36R,1.524000X1.016000*%
%ADD37C,1.143000*%
%ADD38C,4.572000*%
%ADD39C,2.540000*%
%ADD40R,1.000760X1.501140*%
%ADD41R,1.117600X0.599440*%
%ADD42R,1.549400X0.500380*%
%ADD43R,2.032000X3.810000*%
%ADD44R,0.609600X2.032000*%
%ADD45R,3.048000X1.625600*%
%ADD46C,0.889000*%
%ADD47C,0.508000*%
%ADD48C,0.381000*%
%ADD49C,0.254000*%
G04 APERTURE END LIST*
D10*
D11*
X110490000Y-81280000D02*
X110490000Y-25400000D01*
X25400000Y-25400000D02*
X110490000Y-25400000D01*
X110490000Y-81280000D02*
X25400000Y-81280000D01*
X25400000Y-81280000D02*
X25400000Y-25400000D01*
D12*
X28003500Y-62230000D03*
X29654500Y-62230000D03*
X26352500Y-62242700D03*
D13*
X53721000Y-49466500D03*
X53721000Y-51498500D03*
D14*
X39306500Y-57213500D03*
X41338500Y-57213500D03*
X39306500Y-59753500D03*
X41338500Y-59753500D03*
X41338500Y-50482500D03*
X39306500Y-50482500D03*
D13*
X88582500Y-35687000D03*
X88582500Y-37719000D03*
X52197000Y-42291000D03*
X52197000Y-40259000D03*
X30289500Y-66611500D03*
X30289500Y-64579500D03*
X44196000Y-54673500D03*
X44196000Y-56705500D03*
D15*
X63944500Y-51498500D03*
X63944500Y-49466500D03*
X66484500Y-51498500D03*
X66484500Y-49466500D03*
D16*
X96075500Y-43434000D03*
X96075500Y-42227500D03*
X94043500Y-43434000D03*
X94043500Y-42227500D03*
D17*
X42291000Y-64579500D03*
D18*
X42291000Y-66929000D03*
D15*
X58991500Y-49466500D03*
X58991500Y-51498500D03*
D19*
X31305500Y-78930500D03*
X27495500Y-78930500D03*
D20*
X55181500Y-60261500D03*
X55181500Y-64071500D03*
D21*
X94996000Y-58356500D03*
X92456000Y-58356500D03*
X89916000Y-58356500D03*
X87376000Y-58356500D03*
X84836000Y-58356500D03*
X82296000Y-58356500D03*
D22*
X79756000Y-58356500D03*
D21*
X77216000Y-58356500D03*
X74676000Y-58356500D03*
X72136000Y-58356500D03*
X69596000Y-58356500D03*
X67056000Y-58356500D03*
X64516000Y-58356500D03*
X97536000Y-58356500D03*
X64516000Y-65976500D03*
X67056000Y-65976500D03*
X69596000Y-65976500D03*
X72136000Y-65976500D03*
X74676000Y-65976500D03*
X77216000Y-65976500D03*
X79756000Y-65976500D03*
D22*
X82296000Y-65976500D03*
D21*
X84836000Y-65976500D03*
X87376000Y-65976500D03*
X89916000Y-65976500D03*
X92456000Y-65976500D03*
X94996000Y-65976500D03*
X97536000Y-65976500D03*
D23*
X27178000Y-30226000D03*
X27178000Y-27686000D03*
X29718000Y-30226000D03*
X29718000Y-27686000D03*
X32258000Y-30226000D03*
D24*
X32258000Y-27686000D03*
D23*
X34798000Y-30226000D03*
X34798000Y-27686000D03*
X37338000Y-30226000D03*
X37338000Y-27686000D03*
X39878000Y-30226000D03*
X39878000Y-27686000D03*
X42418000Y-30226000D03*
X42418000Y-27686000D03*
X44958000Y-30226000D03*
X44958000Y-27686000D03*
X47498000Y-30226000D03*
X47498000Y-27686000D03*
X50038000Y-30226000D03*
X50038000Y-27686000D03*
X52578000Y-30226000D03*
X52578000Y-27686000D03*
X55118000Y-30226000D03*
X55118000Y-27686000D03*
X57658000Y-30226000D03*
X57658000Y-27686000D03*
D25*
X78740000Y-35560000D03*
D26*
X78740000Y-38100000D03*
X78740000Y-40640000D03*
X78740000Y-43180000D03*
X78740000Y-45720000D03*
X78740000Y-48260000D03*
X78740000Y-50800000D03*
X78740000Y-53340000D03*
D25*
X81280000Y-35560000D03*
D26*
X81280000Y-38100000D03*
X81280000Y-40640000D03*
X81280000Y-43180000D03*
X81280000Y-45720000D03*
X81280000Y-48260000D03*
X81280000Y-50800000D03*
X81280000Y-53340000D03*
D23*
X50800000Y-79375000D03*
X50800000Y-76835000D03*
X50800000Y-74295000D03*
X50800000Y-71755000D03*
X50800000Y-69215000D03*
X50800000Y-66675000D03*
X50800000Y-64135000D03*
X50800000Y-61595000D03*
X48260000Y-79375000D03*
X48260000Y-76835000D03*
X48260000Y-74295000D03*
X48260000Y-71755000D03*
X48260000Y-69215000D03*
X48260000Y-66675000D03*
X48260000Y-64135000D03*
X48260000Y-61595000D03*
X45720000Y-79375000D03*
X45720000Y-76835000D03*
X45720000Y-74295000D03*
X45720000Y-71755000D03*
X45720000Y-69215000D03*
X45720000Y-66675000D03*
X45720000Y-64135000D03*
X45720000Y-61595000D03*
X109093000Y-28067000D03*
X109093000Y-30607000D03*
D24*
X109093000Y-33147000D03*
D23*
X109093000Y-35687000D03*
X109093000Y-38227000D03*
X109093000Y-40767000D03*
D24*
X105600500Y-35052000D03*
X103060500Y-35052000D03*
D23*
X100520500Y-35052000D03*
X97980500Y-35052000D03*
X95440500Y-35052000D03*
X92900500Y-35052000D03*
X95440500Y-52832000D03*
X92900500Y-52832000D03*
X95440500Y-50292000D03*
X92900500Y-50292000D03*
X95440500Y-47752000D03*
D24*
X92900500Y-47752000D03*
D27*
X33274000Y-72263000D03*
D28*
X39370000Y-72263000D03*
D29*
X36449000Y-77343000D03*
D30*
X26860500Y-71882000D03*
X26860500Y-65278000D03*
D23*
X87820500Y-47752000D03*
X87820500Y-50292000D03*
X87820500Y-52832000D03*
D24*
X105600500Y-73977500D03*
X103060500Y-73977500D03*
X100520500Y-73977500D03*
X97980500Y-73977500D03*
X95440500Y-73977500D03*
X92900500Y-73977500D03*
X105600500Y-71437500D03*
X103060500Y-71437500D03*
X100520500Y-71437500D03*
X97980500Y-71437500D03*
X95440500Y-71437500D03*
X92900500Y-71437500D03*
D31*
X34417000Y-49974500D03*
X34417000Y-52514500D03*
X31369000Y-51244500D03*
D16*
X32893000Y-52514500D03*
X32893000Y-51244500D03*
X32893000Y-49974500D03*
D32*
X45275500Y-49720500D03*
X44323000Y-52133500D03*
X43370500Y-49720500D03*
D33*
X52197000Y-46418500D03*
X52197000Y-44513500D03*
X52197000Y-37973000D03*
X52197000Y-36068000D03*
X61468000Y-49530000D03*
X61468000Y-51435000D03*
D34*
X47625000Y-33401000D03*
X45720000Y-33401000D03*
D33*
X58991500Y-46418500D03*
X58991500Y-44513500D03*
X69024500Y-49530000D03*
X69024500Y-51435000D03*
X53022500Y-54737000D03*
X53022500Y-56642000D03*
X55499000Y-56642000D03*
X55499000Y-54737000D03*
X56388000Y-49530000D03*
X56388000Y-51435000D03*
X30226000Y-59372500D03*
X30226000Y-57467500D03*
D34*
X93726000Y-31115000D03*
X95631000Y-31115000D03*
X97599500Y-31115000D03*
X99504500Y-31115000D03*
D35*
X40894000Y-38671500D03*
X40894000Y-37571680D03*
X40894000Y-36471860D03*
X40894000Y-35372040D03*
X40894000Y-34272220D03*
X40894000Y-39771320D03*
X40894000Y-40871140D03*
X40894000Y-41970960D03*
X40894000Y-43070780D03*
D36*
X40294560Y-32926020D03*
D20*
X30520640Y-33271460D03*
D36*
X30520640Y-48671480D03*
D24*
X40502840Y-47853600D03*
D37*
X29972000Y-36068000D03*
X29972000Y-44069000D03*
D23*
X105600500Y-76517500D03*
X103060500Y-76517500D03*
X100520500Y-76517500D03*
X92900500Y-76517500D03*
X95440500Y-76517500D03*
X97980500Y-76517500D03*
X87820500Y-76517500D03*
D24*
X85280500Y-76517500D03*
X82740500Y-76517500D03*
D23*
X77660500Y-76517500D03*
X75120500Y-76517500D03*
X105600500Y-28257500D03*
X103060500Y-28257500D03*
X100520500Y-28257500D03*
X97980500Y-28257500D03*
X95440500Y-28257500D03*
X92900500Y-28257500D03*
X90360500Y-28257500D03*
X87820500Y-28257500D03*
X83756500Y-28257500D03*
X81216500Y-28257500D03*
X78676500Y-28257500D03*
X76136500Y-28257500D03*
X73596500Y-28257500D03*
X71056500Y-28257500D03*
D24*
X68516500Y-28257500D03*
D23*
X65976500Y-28257500D03*
X80200500Y-76517500D03*
D38*
X56070500Y-76517500D03*
D39*
X108140500Y-71437500D03*
D23*
X72580500Y-76517500D03*
X70040500Y-76517500D03*
X63436500Y-28257500D03*
X60896500Y-28257500D03*
D40*
X56070500Y-36639500D03*
X56070500Y-41846500D03*
X57848500Y-41846500D03*
X57848500Y-36639500D03*
D41*
X38671500Y-52768500D03*
X38671500Y-54673500D03*
X38671500Y-53721000D03*
X41338500Y-54673500D03*
X41338500Y-52768500D03*
D42*
X44005500Y-36131500D03*
X44005500Y-37401500D03*
X44005500Y-38671500D03*
X44005500Y-39941500D03*
X44005500Y-41211500D03*
X44005500Y-42481500D03*
X44005500Y-43751500D03*
X49339500Y-43751500D03*
X49339500Y-42481500D03*
X49339500Y-41211500D03*
X49339500Y-39941500D03*
X49339500Y-38671500D03*
X49339500Y-37401500D03*
X49339500Y-36131500D03*
D43*
X33782000Y-57086500D03*
D20*
X27432000Y-57086500D03*
X27432000Y-59372500D03*
X27432000Y-54800500D03*
D44*
X46990000Y-51435000D03*
X46990000Y-56261000D03*
X48260000Y-51435000D03*
X49530000Y-51435000D03*
X50800000Y-51435000D03*
X48260000Y-56261000D03*
X49530000Y-56261000D03*
X50800000Y-56261000D03*
D45*
X60769500Y-74993500D03*
X65341500Y-74930000D03*
X38163500Y-64579500D03*
X33591500Y-64643000D03*
D46*
X58483500Y-72644000D03*
X62611000Y-72644000D03*
X66294000Y-56134000D03*
X102489000Y-39433500D03*
X105854500Y-39433500D03*
X70167500Y-44577000D03*
X65849500Y-44577000D03*
X64960500Y-42227500D03*
X71564500Y-42227500D03*
X105854500Y-37909500D03*
X89916000Y-40195500D03*
X102489000Y-37909500D03*
X84836000Y-53784500D03*
X73406000Y-69151500D03*
X78486000Y-68135500D03*
X43370500Y-48577500D03*
X58801000Y-57086500D03*
X31369000Y-45339000D03*
X37338000Y-49022000D03*
X105600500Y-63373000D03*
X38798500Y-66611500D03*
X26289000Y-47498000D03*
X39687500Y-61468000D03*
X32067500Y-57086500D03*
X27495500Y-74231500D03*
X52832000Y-60198000D03*
X39370000Y-35115500D03*
X90995500Y-33909000D03*
X83756500Y-33147000D03*
X36131500Y-39560500D03*
X49657000Y-35115500D03*
X74739500Y-33147000D03*
X64516000Y-44323000D03*
X52197000Y-34734500D03*
X46101000Y-41211500D03*
X65849500Y-34163000D03*
X74549000Y-43116500D03*
X50228500Y-47244000D03*
X45148500Y-46990000D03*
X83693000Y-37719000D03*
X60452000Y-44513500D03*
X56388000Y-26289000D03*
X102044500Y-31813500D03*
X104330500Y-31813500D03*
X45720000Y-38735000D03*
X59372500Y-53213000D03*
X69278500Y-45529500D03*
X83502500Y-51625500D03*
X75438000Y-46482000D03*
X70929500Y-51689000D03*
X50800000Y-49720500D03*
X88709500Y-34290000D03*
X64198500Y-36322000D03*
X33591500Y-38608000D03*
X54038500Y-39052500D03*
X53213000Y-33845500D03*
X62103000Y-30670500D03*
X77343000Y-71501000D03*
X62103000Y-33845500D03*
X44513500Y-44894500D03*
X38163500Y-45783500D03*
X70675500Y-41338500D03*
X54102000Y-44513500D03*
X63754000Y-41338500D03*
X43116500Y-52133500D03*
X64198500Y-38862000D03*
X35052000Y-69151500D03*
X51816000Y-54737000D03*
X60261500Y-57086500D03*
X68199000Y-72326500D03*
X42291000Y-61595000D03*
X62547500Y-62230000D03*
X59309000Y-40322500D03*
X106045000Y-30861000D03*
X28067000Y-35877500D03*
X31242000Y-54102000D03*
X67437000Y-55118000D03*
X42164000Y-58483500D03*
X65913000Y-76708000D03*
X38608000Y-39624000D03*
X33909000Y-46545500D03*
X74485500Y-47688500D03*
X76390500Y-74422000D03*
X57404000Y-55943500D03*
X82296000Y-71437500D03*
X77597000Y-54673500D03*
X90995500Y-76327000D03*
X36827460Y-43522900D03*
X49530000Y-58610500D03*
X43243500Y-44894500D03*
X86296500Y-71437500D03*
X87820500Y-43942000D03*
X84772500Y-43942000D03*
X47625000Y-38671500D03*
X54102000Y-46418500D03*
X61277500Y-54102000D03*
X70612000Y-49530000D03*
X56388000Y-47561500D03*
X49530000Y-49720500D03*
D47*
X52514500Y-64135000D02*
X50800000Y-64135000D01*
X52578000Y-64071500D02*
X52514500Y-64135000D01*
X55181500Y-64071500D02*
X52578000Y-64071500D01*
X60769500Y-72644000D02*
X58483500Y-72644000D01*
X48260000Y-76835000D02*
X48260000Y-79375000D01*
X62611000Y-72644000D02*
X60769500Y-72644000D01*
X60769500Y-74993500D02*
X60769500Y-72644000D01*
X79756000Y-63690500D02*
X77279500Y-61214000D01*
D48*
X70866000Y-60452000D02*
X70866000Y-56134000D01*
D47*
X71628000Y-61214000D02*
X70866000Y-60452000D01*
X81153000Y-55753000D02*
X86614000Y-50292000D01*
X79756000Y-65976500D02*
X79756000Y-63690500D01*
X72009000Y-55753000D02*
X81153000Y-55753000D01*
X86614000Y-50292000D02*
X87820500Y-50292000D01*
X77279500Y-61214000D02*
X71628000Y-61214000D01*
X70802500Y-56134000D02*
X71628000Y-56134000D01*
X66294000Y-56134000D02*
X70802500Y-56134000D01*
X70866000Y-56134000D02*
X70802500Y-56134000D01*
X72009000Y-55753000D02*
X71628000Y-56134000D01*
D49*
X105854500Y-39433500D02*
X107886500Y-39433500D01*
X107886500Y-39433500D02*
X109093000Y-38227000D01*
X102489000Y-39433500D02*
X95948500Y-39433500D01*
X95059500Y-40322500D02*
X95059500Y-43434000D01*
X95948500Y-39433500D02*
X95059500Y-40322500D01*
X95059500Y-43434000D02*
X96075500Y-43434000D01*
X94043500Y-43434000D02*
X96075500Y-43434000D01*
X109093000Y-28067000D02*
X107632500Y-28067000D01*
X107632500Y-28067000D02*
X106045000Y-29654500D01*
X97599500Y-31115000D02*
X97599500Y-30035500D01*
X97599500Y-30035500D02*
X97980500Y-29654500D01*
X97980500Y-29654500D02*
X106045000Y-29654500D01*
X97599500Y-31115000D02*
X95631000Y-31115000D01*
X65849500Y-44577000D02*
X70167500Y-44577000D01*
X64516000Y-68008500D02*
X64008000Y-68516500D01*
X64516000Y-65976500D02*
X64516000Y-68008500D01*
X54038500Y-68516500D02*
X50800000Y-71755000D01*
X64008000Y-68516500D02*
X54038500Y-68516500D01*
X71564500Y-42227500D02*
X64960500Y-42227500D01*
X109093000Y-40767000D02*
X105283000Y-40767000D01*
X91440000Y-40195500D02*
X93726000Y-37909500D01*
X105283000Y-40767000D02*
X104838500Y-40322500D01*
X89916000Y-40195500D02*
X91440000Y-40195500D01*
X104838500Y-38925500D02*
X105854500Y-37909500D01*
X102489000Y-37909500D02*
X93726000Y-37909500D01*
X104838500Y-40322500D02*
X104838500Y-38925500D01*
X93726000Y-31115000D02*
X93726000Y-29972000D01*
X93726000Y-29972000D02*
X95440500Y-28257500D01*
X72580500Y-56578500D02*
X72136000Y-57023000D01*
X72136000Y-57023000D02*
X72136000Y-58356500D01*
X52260500Y-74295000D02*
X52260500Y-75374500D01*
X56578500Y-69977000D02*
X52260500Y-74295000D01*
X70675500Y-69977000D02*
X56578500Y-69977000D01*
X52260500Y-75374500D02*
X50800000Y-76835000D01*
X70675500Y-69977000D02*
X71501000Y-69151500D01*
X72580500Y-56578500D02*
X82042000Y-56578500D01*
X71501000Y-69151500D02*
X73406000Y-69151500D01*
X82042000Y-56578500D02*
X84836000Y-53784500D01*
X109093000Y-30607000D02*
X107759500Y-30607000D01*
X105092500Y-33274000D02*
X98361500Y-33274000D01*
X107759500Y-30607000D02*
X105092500Y-33274000D01*
X90360500Y-31051500D02*
X90360500Y-28257500D01*
X92583000Y-33274000D02*
X90360500Y-31051500D01*
X98361500Y-33274000D02*
X92583000Y-33274000D01*
X70040500Y-69088000D02*
X70866000Y-68262500D01*
X56007000Y-69088000D02*
X50800000Y-74295000D01*
X70866000Y-62611000D02*
X69596000Y-61341000D01*
X70866000Y-62611000D02*
X70866000Y-68262500D01*
X70993000Y-68135500D02*
X78486000Y-68135500D01*
X70040500Y-69088000D02*
X70993000Y-68135500D01*
X70040500Y-69088000D02*
X56007000Y-69088000D01*
X69596000Y-58356500D02*
X69596000Y-61341000D01*
D47*
X30289500Y-66611500D02*
X38798500Y-66611500D01*
X81534000Y-73850500D02*
X80200500Y-75184000D01*
X80200500Y-76517500D02*
X80200500Y-75184000D01*
X87820500Y-54800500D02*
X87820500Y-52832000D01*
X82296000Y-57589420D02*
X83941920Y-55943500D01*
X26289000Y-45910500D02*
X26289000Y-47498000D01*
X39306500Y-58483500D02*
X39306500Y-59753500D01*
X38671500Y-55372000D02*
X38671500Y-54673500D01*
X46990000Y-48577500D02*
X46926500Y-48577500D01*
X38671500Y-54673500D02*
X37338000Y-54673500D01*
X83941920Y-55943500D02*
X86677500Y-55943500D01*
X58991500Y-46418500D02*
X55943500Y-46418500D01*
X30226000Y-57467500D02*
X31686500Y-57467500D01*
X33782000Y-57086500D02*
X32067500Y-57086500D01*
X83756500Y-73850500D02*
X81534000Y-73850500D01*
X92900500Y-52832000D02*
X87820500Y-52832000D01*
X61468000Y-47371000D02*
X60515500Y-46418500D01*
X37338000Y-54673500D02*
X37338000Y-52514500D01*
X86677500Y-55943500D02*
X87820500Y-54800500D01*
X103060500Y-73977500D02*
X105600500Y-73977500D01*
X39306500Y-57213500D02*
X39306500Y-56007000D01*
X61468000Y-49530000D02*
X61468000Y-47371000D01*
X39306500Y-59753500D02*
X39306500Y-60960000D01*
X54483000Y-47879000D02*
X53721000Y-47879000D01*
X28575000Y-69659500D02*
X28575000Y-73152000D01*
X89979500Y-69913500D02*
X104775000Y-69913500D01*
X52895500Y-60261500D02*
X52832000Y-60198000D01*
X55181500Y-60261500D02*
X52895500Y-60261500D01*
X43370500Y-49720500D02*
X43370500Y-48577500D01*
X46990000Y-51435000D02*
X46990000Y-48577500D01*
X36131500Y-52514500D02*
X34417000Y-52514500D01*
X27495500Y-78930500D02*
X27495500Y-74231500D01*
X35687000Y-57086500D02*
X37084000Y-58483500D01*
X105600500Y-63373000D02*
X105600500Y-69088000D01*
X105600500Y-69088000D02*
X104775000Y-69913500D01*
X30289500Y-67945000D02*
X30289500Y-66611500D01*
X39306500Y-58483500D02*
X37084000Y-58483500D01*
X84709000Y-72898000D02*
X83756500Y-73850500D01*
X39306500Y-60960000D02*
X39687500Y-61468000D01*
X58102500Y-60261500D02*
X55181500Y-60261500D01*
X31369000Y-45339000D02*
X26860500Y-45339000D01*
X37338000Y-52768500D02*
X37338000Y-52514500D01*
X29273500Y-57467500D02*
X28892500Y-57086500D01*
X50673000Y-48577500D02*
X51371500Y-47879000D01*
X53721000Y-49466500D02*
X53721000Y-47879000D01*
X36385500Y-52768500D02*
X36131500Y-52514500D01*
X46926500Y-48577500D02*
X43370500Y-48577500D01*
X55943500Y-46418500D02*
X54483000Y-47879000D01*
X39306500Y-56007000D02*
X38671500Y-55372000D01*
X26860500Y-45339000D02*
X26289000Y-45910500D01*
X58801000Y-57086500D02*
X58801000Y-59563000D01*
X82296000Y-58356500D02*
X82296000Y-57589420D01*
X50673000Y-48577500D02*
X46926500Y-48577500D01*
X37338000Y-49022000D02*
X37338000Y-52514500D01*
X28575000Y-73152000D02*
X27495500Y-74231500D01*
X28892500Y-57086500D02*
X27432000Y-57086500D01*
X30226000Y-57467500D02*
X29273500Y-57467500D01*
X60515500Y-46418500D02*
X58991500Y-46418500D01*
X28575000Y-69659500D02*
X30289500Y-67945000D01*
X53721000Y-47879000D02*
X51371500Y-47879000D01*
X58801000Y-59563000D02*
X58102500Y-60261500D01*
X39306500Y-57213500D02*
X39306500Y-58483500D01*
X100520500Y-73977500D02*
X103060500Y-73977500D01*
X31686500Y-57467500D02*
X32067500Y-57086500D01*
X34417000Y-52514500D02*
X32893000Y-52514500D01*
X35687000Y-57086500D02*
X33782000Y-57086500D01*
X38671500Y-52768500D02*
X37338000Y-52768500D01*
X37338000Y-52768500D02*
X36385500Y-52768500D01*
X86995000Y-72898000D02*
X84709000Y-72898000D01*
X89979500Y-69913500D02*
X86995000Y-72898000D01*
D49*
X39773860Y-36471860D02*
X39370000Y-36068000D01*
X73596500Y-33147000D02*
X64135000Y-33147000D01*
X63373000Y-32385000D02*
X64135000Y-33147000D01*
X37465000Y-38227000D02*
X36131500Y-39560500D01*
X50165000Y-32385000D02*
X63373000Y-32385000D01*
X73596500Y-33147000D02*
X73596500Y-28257500D01*
X83756500Y-33147000D02*
X90233500Y-33147000D01*
X49657000Y-32893000D02*
X50165000Y-32385000D01*
X49657000Y-35115500D02*
X49657000Y-32893000D01*
X90233500Y-33147000D02*
X90995500Y-33909000D01*
X39370000Y-36068000D02*
X39370000Y-35115500D01*
X74739500Y-33147000D02*
X73596500Y-33147000D01*
X40894000Y-36471860D02*
X39773860Y-36471860D01*
X38036500Y-35115500D02*
X39370000Y-35115500D01*
X37465000Y-35687000D02*
X37465000Y-38227000D01*
X37465000Y-35687000D02*
X38036500Y-35115500D01*
X44005500Y-41211500D02*
X46101000Y-41211500D01*
X76136500Y-28257500D02*
X76136500Y-33274000D01*
X58039000Y-65659000D02*
X51816000Y-65659000D01*
X64516000Y-44323000D02*
X64516000Y-44005500D01*
X75247500Y-34163000D02*
X65849500Y-34163000D01*
X52197000Y-36068000D02*
X52197000Y-34734500D01*
X69596000Y-65976500D02*
X69596000Y-63817500D01*
X60261500Y-63436500D02*
X58039000Y-65659000D01*
X69215000Y-63436500D02*
X60261500Y-63436500D01*
X65849500Y-34163000D02*
X64071500Y-34163000D01*
X51816000Y-65659000D02*
X50800000Y-66675000D01*
X52197000Y-33528000D02*
X52768500Y-32956500D01*
X91630500Y-45466000D02*
X92265500Y-46101000D01*
X76390500Y-44196000D02*
X76835000Y-44640500D01*
X82423000Y-46990000D02*
X77279500Y-46990000D01*
X69596000Y-63817500D02*
X69215000Y-63436500D01*
X72580500Y-43688000D02*
X73088500Y-44196000D01*
X73088500Y-44196000D02*
X76390500Y-44196000D01*
X77279500Y-46990000D02*
X76835000Y-46545500D01*
X83947000Y-45466000D02*
X82423000Y-46990000D01*
X83947000Y-45466000D02*
X91630500Y-45466000D01*
X76835000Y-46545500D02*
X76835000Y-44640500D01*
X64833500Y-43688000D02*
X72580500Y-43688000D01*
X93853000Y-46101000D02*
X94170500Y-46418500D01*
X52768500Y-32956500D02*
X62865000Y-32956500D01*
X92265500Y-46101000D02*
X93853000Y-46101000D01*
X52197000Y-34734500D02*
X52197000Y-33528000D01*
X94170500Y-46418500D02*
X94170500Y-49022000D01*
X94170500Y-49022000D02*
X92900500Y-50292000D01*
X62865000Y-32956500D02*
X64071500Y-34163000D01*
X64516000Y-44005500D02*
X64833500Y-43688000D01*
X76136500Y-33274000D02*
X75247500Y-34163000D01*
X97536000Y-58356500D02*
X97536000Y-62103000D01*
X97536000Y-58356500D02*
X97536000Y-48450500D01*
X96964500Y-62674500D02*
X97536000Y-62103000D01*
X86677500Y-62674500D02*
X96964500Y-62674500D01*
X86106000Y-63246000D02*
X86677500Y-62674500D01*
X75120500Y-70739000D02*
X75120500Y-76517500D01*
X83693000Y-44894500D02*
X83248500Y-44450000D01*
X86106000Y-63246000D02*
X86106000Y-69088000D01*
X61849000Y-43116500D02*
X60452000Y-44513500D01*
X48895000Y-47244000D02*
X50228500Y-47244000D01*
X57848500Y-41846500D02*
X57848500Y-36639500D01*
X74549000Y-43116500D02*
X61849000Y-43116500D01*
X60452000Y-44513500D02*
X58991500Y-44513500D01*
X45148500Y-46990000D02*
X48641000Y-46990000D01*
X83693000Y-44894500D02*
X92329000Y-44894500D01*
X57848500Y-41846500D02*
X57848500Y-42354500D01*
X92329000Y-44894500D02*
X92900500Y-45466000D01*
X76390500Y-43116500D02*
X77724000Y-44450000D01*
X94996000Y-45466000D02*
X92900500Y-45466000D01*
X96837500Y-47752000D02*
X95440500Y-47752000D01*
X48641000Y-46990000D02*
X48895000Y-47244000D01*
X76200000Y-69659500D02*
X75120500Y-70739000D01*
X58991500Y-43497500D02*
X58991500Y-44513500D01*
X76200000Y-69659500D02*
X85534500Y-69659500D01*
X57848500Y-42354500D02*
X58991500Y-43497500D01*
X77724000Y-44450000D02*
X83248500Y-44450000D01*
X83693000Y-37719000D02*
X88582500Y-37719000D01*
X95440500Y-47752000D02*
X95440500Y-45910500D01*
X97536000Y-48450500D02*
X96837500Y-47752000D01*
X86106000Y-69088000D02*
X85534500Y-69659500D01*
X95440500Y-45910500D02*
X94996000Y-45466000D01*
X74549000Y-43116500D02*
X76390500Y-43116500D01*
X105029000Y-25908000D02*
X56769000Y-25908000D01*
X105600500Y-26479500D02*
X105600500Y-28257500D01*
X102044500Y-31813500D02*
X104330500Y-31813500D01*
X56769000Y-25908000D02*
X56388000Y-26289000D01*
X105029000Y-25908000D02*
X105600500Y-26479500D01*
D47*
X29464000Y-46863000D02*
X32067500Y-46863000D01*
X28448000Y-42481500D02*
X28067000Y-42100500D01*
X32893000Y-46037500D02*
X32893000Y-43180000D01*
X31369000Y-51244500D02*
X29400500Y-51244500D01*
X29400500Y-51244500D02*
X28765500Y-50609500D01*
X32893000Y-43180000D02*
X32194500Y-42481500D01*
X25781000Y-31051500D02*
X25781000Y-29083000D01*
X28765500Y-50609500D02*
X28765500Y-47561500D01*
X25781000Y-29083000D02*
X27178000Y-27686000D01*
X32893000Y-51244500D02*
X31369000Y-51244500D01*
X32194500Y-42481500D02*
X28448000Y-42481500D01*
X28067000Y-40640000D02*
X28067000Y-42100500D01*
X28765500Y-47561500D02*
X29464000Y-46863000D01*
X26162000Y-31432500D02*
X26162000Y-38735000D01*
X26162000Y-38735000D02*
X28067000Y-40640000D01*
X32067500Y-46863000D02*
X32893000Y-46037500D01*
X25781000Y-31051500D02*
X26162000Y-31432500D01*
D49*
X71056500Y-31559500D02*
X71056500Y-28257500D01*
X89344500Y-49022000D02*
X89916000Y-49593500D01*
X84518500Y-49022000D02*
X89344500Y-49022000D01*
X74485500Y-45529500D02*
X75438000Y-46482000D01*
X83502500Y-51625500D02*
X83502500Y-50038000D01*
X64325500Y-32258000D02*
X70358000Y-32258000D01*
X83502500Y-50038000D02*
X84518500Y-49022000D01*
X89916000Y-51117500D02*
X90360500Y-51562000D01*
X46228000Y-31813500D02*
X45720000Y-32321500D01*
X89916000Y-49593500D02*
X89916000Y-51117500D01*
X70358000Y-32258000D02*
X71056500Y-31559500D01*
X50800000Y-51435000D02*
X50800000Y-49720500D01*
X46228000Y-31813500D02*
X63881000Y-31813500D01*
X94170500Y-51562000D02*
X90360500Y-51562000D01*
X45720000Y-33401000D02*
X45720000Y-37401500D01*
X45720000Y-32321500D02*
X45720000Y-33401000D01*
X63881000Y-31813500D02*
X64325500Y-32258000D01*
X70929500Y-52578000D02*
X70929500Y-51689000D01*
X59372500Y-53213000D02*
X70294500Y-53213000D01*
X94170500Y-51562000D02*
X95440500Y-50292000D01*
X69278500Y-45529500D02*
X74485500Y-45529500D01*
X44005500Y-37401500D02*
X45720000Y-37401500D01*
X70294500Y-53213000D02*
X70929500Y-52578000D01*
X45720000Y-38735000D02*
X45720000Y-37401500D01*
X58864500Y-28956000D02*
X39116000Y-28956000D01*
X38608000Y-29464000D02*
X39116000Y-28956000D01*
X38608000Y-31178500D02*
X38608000Y-29464000D01*
X88709500Y-34290000D02*
X76327000Y-34290000D01*
X37973000Y-31813500D02*
X38608000Y-31178500D01*
X76327000Y-34290000D02*
X74295000Y-36322000D01*
X74295000Y-36322000D02*
X64198500Y-36322000D01*
X58864500Y-28956000D02*
X59563000Y-28257500D01*
X27686000Y-38608000D02*
X26924000Y-37846000D01*
X37973000Y-31813500D02*
X28638500Y-31813500D01*
X59563000Y-28257500D02*
X60896500Y-28257500D01*
X60579000Y-34798000D02*
X54483000Y-34798000D01*
X62103000Y-36322000D02*
X60579000Y-34798000D01*
X54038500Y-35242500D02*
X54038500Y-39052500D01*
X33591500Y-38608000D02*
X27686000Y-38608000D01*
X26924000Y-37846000D02*
X26924000Y-33528000D01*
X28638500Y-31813500D02*
X26924000Y-33528000D01*
X54483000Y-34798000D02*
X54038500Y-35242500D01*
X64198500Y-36322000D02*
X62103000Y-36322000D01*
X94996000Y-65976500D02*
X94996000Y-67881500D01*
X94488000Y-68389500D02*
X89032080Y-68389500D01*
X94996000Y-67881500D02*
X94488000Y-68389500D01*
X63436500Y-28257500D02*
X63436500Y-30162500D01*
X62103000Y-33845500D02*
X53213000Y-33845500D01*
X77660500Y-70231000D02*
X87190580Y-70231000D01*
X62103000Y-30670500D02*
X62928500Y-30670500D01*
X62928500Y-30670500D02*
X63436500Y-30162500D01*
X77660500Y-70231000D02*
X77343000Y-70548500D01*
X89032080Y-68389500D02*
X88646000Y-68775580D01*
X77343000Y-70548500D02*
X77343000Y-71501000D01*
X88646000Y-68775580D02*
X87190580Y-70231000D01*
X40894000Y-38671500D02*
X44005500Y-38671500D01*
X39306500Y-42291000D02*
X39306500Y-44640500D01*
X40894000Y-41970960D02*
X39626540Y-41970960D01*
X44513500Y-44894500D02*
X46799500Y-44894500D01*
X39306500Y-44640500D02*
X38163500Y-45783500D01*
X39626540Y-41970960D02*
X39306500Y-42291000D01*
X47942500Y-43751500D02*
X49339500Y-43751500D01*
X46799500Y-44894500D02*
X47942500Y-43751500D01*
X42735500Y-42481500D02*
X42481500Y-42227500D01*
X42481500Y-41084500D02*
X42268140Y-40871140D01*
X42268140Y-40871140D02*
X40894000Y-40871140D01*
X42481500Y-42227500D02*
X42481500Y-41084500D01*
X44005500Y-42481500D02*
X42735500Y-42481500D01*
X57594500Y-67056000D02*
X52959000Y-67056000D01*
X70675500Y-41338500D02*
X63754000Y-41338500D01*
X52197000Y-44513500D02*
X54102000Y-44513500D01*
X66738500Y-64071500D02*
X60579000Y-64071500D01*
X49339500Y-42481500D02*
X50165000Y-42481500D01*
X67056000Y-65976500D02*
X67056000Y-64389000D01*
X60579000Y-64071500D02*
X57594500Y-67056000D01*
X52959000Y-67056000D02*
X50800000Y-69215000D01*
X67056000Y-64389000D02*
X66738500Y-64071500D01*
X50165000Y-42481500D02*
X52197000Y-44513500D01*
X50101500Y-57975500D02*
X52578000Y-57975500D01*
X49530000Y-57404000D02*
X50101500Y-57975500D01*
X53022500Y-57531000D02*
X52578000Y-57975500D01*
X49530000Y-56261000D02*
X49530000Y-57404000D01*
X53022500Y-56642000D02*
X55499000Y-56642000D01*
X53022500Y-56642000D02*
X53022500Y-57531000D01*
X45275500Y-49720500D02*
X45275500Y-50419000D01*
X46990000Y-56261000D02*
X46990000Y-54102000D01*
X45275500Y-50419000D02*
X45783500Y-50927000D01*
X45783500Y-52895500D02*
X45783500Y-50927000D01*
X46990000Y-54102000D02*
X45783500Y-52895500D01*
D47*
X39878000Y-68516500D02*
X39370000Y-69024500D01*
X42291000Y-67945000D02*
X41719500Y-68516500D01*
X42291000Y-66929000D02*
X42291000Y-67945000D01*
X39370000Y-69024500D02*
X39370000Y-72263000D01*
X41719500Y-68516500D02*
X39878000Y-68516500D01*
X64198500Y-38862000D02*
X76835000Y-38862000D01*
X77343000Y-39370000D02*
X76835000Y-38862000D01*
X90805000Y-38862000D02*
X82931000Y-38862000D01*
X91186000Y-38481000D02*
X91186000Y-37338000D01*
X91948000Y-36576000D02*
X98996500Y-36576000D01*
X82423000Y-39370000D02*
X77343000Y-39370000D01*
X90805000Y-38862000D02*
X91186000Y-38481000D01*
X43116500Y-52133500D02*
X44323000Y-52133500D01*
X98996500Y-36576000D02*
X100520500Y-35052000D01*
X82931000Y-38862000D02*
X82423000Y-39370000D01*
X91948000Y-36576000D02*
X91186000Y-37338000D01*
X35052000Y-69151500D02*
X34607500Y-68707000D01*
X31496000Y-68707000D02*
X30607000Y-69596000D01*
X30607000Y-74866500D02*
X31305500Y-75565000D01*
X30607000Y-69596000D02*
X30607000Y-74866500D01*
X34607500Y-68707000D02*
X31496000Y-68707000D01*
X31305500Y-75565000D02*
X31305500Y-78930500D01*
X30289500Y-60960000D02*
X31813500Y-62484000D01*
X61531500Y-57086500D02*
X60261500Y-57086500D01*
X37465000Y-62484000D02*
X31813500Y-62484000D01*
X30226000Y-59372500D02*
X27432000Y-59372500D01*
X27432000Y-60388500D02*
X28003500Y-60960000D01*
X38163500Y-64579500D02*
X42291000Y-64579500D01*
X42291000Y-64579500D02*
X42291000Y-61595000D01*
X53022500Y-54737000D02*
X51816000Y-54737000D01*
X27432000Y-59372500D02*
X27432000Y-60388500D01*
X38163500Y-63182500D02*
X37465000Y-62484000D01*
X38163500Y-64579500D02*
X38163500Y-63182500D01*
X28003500Y-60960000D02*
X30289500Y-60960000D01*
X62547500Y-62230000D02*
X62547500Y-58102500D01*
X62547500Y-58102500D02*
X61531500Y-57086500D01*
X68199000Y-78041500D02*
X68199000Y-72326500D01*
X87820500Y-77470000D02*
X87820500Y-76517500D01*
X86296500Y-78994000D02*
X69151500Y-78994000D01*
X69151500Y-78994000D02*
X68199000Y-78041500D01*
X87820500Y-77470000D02*
X86296500Y-78994000D01*
X94043500Y-42227500D02*
X83820000Y-42227500D01*
X76200000Y-40322500D02*
X77787500Y-41910000D01*
X59309000Y-40322500D02*
X76200000Y-40322500D01*
X77787500Y-41910000D02*
X83502500Y-41910000D01*
X83820000Y-42227500D02*
X83502500Y-41910000D01*
D49*
X83566000Y-62357000D02*
X84074000Y-61849000D01*
X52959000Y-75244960D02*
X52959000Y-77216000D01*
X52959000Y-77216000D02*
X50800000Y-79375000D01*
X57274460Y-70929500D02*
X52959000Y-75244960D01*
X75184000Y-69088000D02*
X73342500Y-70929500D01*
X83185000Y-69088000D02*
X75184000Y-69088000D01*
X83566000Y-62357000D02*
X83566000Y-68707000D01*
X86931500Y-61849000D02*
X87376000Y-61404500D01*
X87376000Y-58356500D02*
X87376000Y-61404500D01*
X84074000Y-61849000D02*
X86931500Y-61849000D01*
X83185000Y-69088000D02*
X83566000Y-68707000D01*
X73342500Y-70929500D02*
X57274460Y-70929500D01*
X91249500Y-35052000D02*
X90614500Y-35687000D01*
X90614500Y-35687000D02*
X88582500Y-35687000D01*
X92900500Y-35052000D02*
X91249500Y-35052000D01*
D47*
X101028500Y-31115000D02*
X99504500Y-31115000D01*
X101727000Y-30416500D02*
X101028500Y-31115000D01*
X105600500Y-30416500D02*
X101727000Y-30416500D01*
X106045000Y-30861000D02*
X105600500Y-30416500D01*
X89725500Y-71437500D02*
X87376000Y-73787000D01*
X87376000Y-73787000D02*
X85979000Y-73787000D01*
X85979000Y-73787000D02*
X85280500Y-74485500D01*
X65913000Y-76708000D02*
X65913000Y-75501500D01*
X109093000Y-33147000D02*
X107505500Y-33147000D01*
X107505500Y-33147000D02*
X105600500Y-35052000D01*
X57404000Y-55943500D02*
X63817500Y-55943500D01*
X40894000Y-37571680D02*
X41930320Y-37571680D01*
X44005500Y-43751500D02*
X46672500Y-43751500D01*
X58991500Y-51689000D02*
X57404000Y-53276500D01*
X64643000Y-55118000D02*
X67437000Y-55118000D01*
X55499000Y-54737000D02*
X55499000Y-53276500D01*
X38671500Y-53721000D02*
X39687500Y-53721000D01*
X41930320Y-37571680D02*
X42397680Y-37104320D01*
X67437000Y-55118000D02*
X71122540Y-55118000D01*
X42164000Y-58483500D02*
X41338500Y-58483500D01*
X54038500Y-41846500D02*
X53594000Y-42291000D01*
X35814000Y-33271460D02*
X35814000Y-36830000D01*
X57404000Y-53276500D02*
X55626000Y-53276500D01*
X74485500Y-54673500D02*
X74422000Y-54673500D01*
X50292000Y-41211500D02*
X49339500Y-41211500D01*
X40502840Y-47853600D02*
X39306500Y-47853600D01*
X58991500Y-51498500D02*
X58991500Y-51689000D01*
X44196000Y-56705500D02*
X44196000Y-58483500D01*
X34417000Y-64579500D02*
X33591500Y-64643000D01*
X51752500Y-53276500D02*
X53721000Y-53276500D01*
X85280500Y-74485500D02*
X85280500Y-76517500D01*
X79375000Y-71437500D02*
X76390500Y-74422000D01*
X71122540Y-55118000D02*
X71567040Y-54673500D01*
X57404000Y-55943500D02*
X57404000Y-53276500D01*
X36957000Y-41275000D02*
X38608000Y-39624000D01*
X40502840Y-44650660D02*
X40830500Y-44323000D01*
X35814000Y-46545500D02*
X33909000Y-46545500D01*
X34671000Y-37973000D02*
X35814000Y-36830000D01*
X37277040Y-33271460D02*
X37622480Y-32926020D01*
X27432000Y-54800500D02*
X30543500Y-54800500D01*
X74485500Y-49530000D02*
X74485500Y-54673500D01*
X40005000Y-52260500D02*
X39306500Y-51562000D01*
X95440500Y-71437500D02*
X97980500Y-71437500D01*
X50800000Y-56261000D02*
X50800000Y-54229000D01*
X38608000Y-38481000D02*
X38608000Y-39624000D01*
X39306500Y-51562000D02*
X39306500Y-50482500D01*
X79756000Y-61023500D02*
X79756000Y-58356500D01*
X82296000Y-71437500D02*
X79375000Y-71437500D01*
X97980500Y-71437500D02*
X100520500Y-71437500D01*
X45720000Y-61595000D02*
X45720000Y-59372500D01*
X103060500Y-71437500D02*
X105600500Y-71437500D01*
X74485500Y-47688500D02*
X74485500Y-49530000D01*
X66484500Y-49466500D02*
X66484500Y-48260000D01*
X85534500Y-46228000D02*
X82232500Y-49530000D01*
X45720000Y-76835000D02*
X45720000Y-79375000D01*
X40894000Y-37571680D02*
X39517320Y-37571680D01*
X41338500Y-57213500D02*
X41338500Y-58483500D01*
X30289500Y-64579500D02*
X34417000Y-64579500D01*
X35814000Y-33271460D02*
X37277040Y-33271460D01*
X30543500Y-54800500D02*
X31242000Y-54102000D01*
X28892500Y-64579500D02*
X28194000Y-65278000D01*
X40005000Y-53403500D02*
X40005000Y-52260500D01*
X82232500Y-49530000D02*
X74485500Y-49530000D01*
X39517320Y-37571680D02*
X38608000Y-38481000D01*
X64643000Y-55118000D02*
X63817500Y-55943500D01*
X37622480Y-32926020D02*
X40294560Y-32926020D01*
X32291020Y-48671480D02*
X30520640Y-48671480D01*
X44005500Y-39941500D02*
X46672500Y-39941500D01*
X51371500Y-42291000D02*
X50292000Y-41211500D01*
X44196000Y-58483500D02*
X44132500Y-58483500D01*
X56070500Y-41846500D02*
X54038500Y-41846500D01*
X30520640Y-33271460D02*
X35814000Y-33271460D01*
X92900500Y-71437500D02*
X89725500Y-71437500D01*
X39687500Y-53721000D02*
X40005000Y-53403500D01*
X56070500Y-36639500D02*
X56070500Y-41846500D01*
X53594000Y-42291000D02*
X52197000Y-42291000D01*
X35814000Y-47853600D02*
X36449000Y-47853600D01*
X47244000Y-43180000D02*
X47244000Y-41211500D01*
X35179000Y-41275000D02*
X35814000Y-41275000D01*
X100520500Y-71437500D02*
X103060500Y-71437500D01*
X28194000Y-65278000D02*
X26860500Y-65278000D01*
X53721000Y-53276500D02*
X55626000Y-53276500D01*
X34671000Y-37973000D02*
X34671000Y-40767000D01*
X92900500Y-71437500D02*
X95440500Y-71437500D01*
X30289500Y-64579500D02*
X28892500Y-64579500D01*
X42545000Y-43751500D02*
X41973500Y-44323000D01*
X44005500Y-43751500D02*
X42545000Y-43751500D01*
X74422000Y-54673500D02*
X71567040Y-54673500D01*
X65913000Y-75501500D02*
X65341500Y-74930000D01*
X50800000Y-54229000D02*
X51752500Y-53276500D01*
X92900500Y-47752000D02*
X90106500Y-47752000D01*
X53721000Y-51498500D02*
X53721000Y-53276500D01*
X34671000Y-40767000D02*
X35179000Y-41275000D01*
X33108900Y-47853600D02*
X32291020Y-48671480D01*
X28067000Y-34226500D02*
X28067000Y-35877500D01*
X85534500Y-46228000D02*
X88582500Y-46228000D01*
X39306500Y-47853600D02*
X36449000Y-47853600D01*
X39306500Y-50482500D02*
X39306500Y-47853600D01*
X42164000Y-58483500D02*
X44132500Y-58483500D01*
X41338500Y-58483500D02*
X41338500Y-59753500D01*
X47244000Y-41211500D02*
X47244000Y-40513000D01*
X82296000Y-63563500D02*
X79756000Y-61023500D01*
X35814000Y-41275000D02*
X36957000Y-41275000D01*
X47244000Y-41211500D02*
X49339500Y-41211500D01*
X35814000Y-46545500D02*
X35814000Y-47853600D01*
X35814000Y-41275000D02*
X35814000Y-46545500D01*
X40830500Y-44323000D02*
X41973500Y-44323000D01*
X77597000Y-54673500D02*
X74422000Y-54673500D01*
X42397680Y-36723320D02*
X42397680Y-37104320D01*
X82296000Y-65976500D02*
X82296000Y-63563500D01*
X52197000Y-42291000D02*
X51371500Y-42291000D01*
X45720000Y-59372500D02*
X44831000Y-58483500D01*
X46672500Y-43751500D02*
X47244000Y-43180000D01*
X30520640Y-33271460D02*
X29022040Y-33271460D01*
X29022040Y-33271460D02*
X28067000Y-34226500D01*
X55499000Y-53276500D02*
X55626000Y-53276500D01*
X46672500Y-39941500D02*
X47244000Y-40513000D01*
X36449000Y-47853600D02*
X33108900Y-47853600D01*
X40502840Y-47853600D02*
X40502840Y-44650660D01*
X74485500Y-47688500D02*
X67056000Y-47688500D01*
X44132500Y-58483500D02*
X44831000Y-58483500D01*
X42989500Y-36131500D02*
X42397680Y-36723320D01*
X44005500Y-36131500D02*
X42989500Y-36131500D01*
X67056000Y-47688500D02*
X66484500Y-48260000D01*
X90106500Y-47752000D02*
X88582500Y-46228000D01*
X63944500Y-49466500D02*
X66484500Y-49466500D01*
X105981500Y-36860480D02*
X107919520Y-36860480D01*
X107919520Y-36860480D02*
X109093000Y-35687000D01*
X95440500Y-73977500D02*
X97980500Y-73977500D01*
X48260000Y-56261000D02*
X48260000Y-57340500D01*
X39367460Y-41087040D02*
X38100000Y-42354500D01*
X96837500Y-44767500D02*
X93154500Y-44767500D01*
X92900500Y-73977500D02*
X92392500Y-73977500D01*
X52197000Y-39179500D02*
X52197000Y-37973000D01*
X41338500Y-49911000D02*
X42100500Y-49149000D01*
X103759000Y-39878000D02*
X103187500Y-40449500D01*
X103759000Y-37655500D02*
X103759000Y-39878000D01*
X104554020Y-36860480D02*
X103759000Y-37655500D01*
X103187500Y-40449500D02*
X98425000Y-40449500D01*
X50927000Y-39179500D02*
X52197000Y-39179500D01*
X39367460Y-40253920D02*
X39850060Y-39771320D01*
X92900500Y-73977500D02*
X95440500Y-73977500D01*
X80200500Y-72580500D02*
X77660500Y-75120500D01*
X97472500Y-41402000D02*
X98425000Y-40449500D01*
X69024500Y-49530000D02*
X70739000Y-49530000D01*
X97472500Y-44132500D02*
X97472500Y-42227500D01*
X90995500Y-75374500D02*
X90995500Y-76327000D01*
X86296500Y-71437500D02*
X83883500Y-71437500D01*
X70612000Y-49530000D02*
X69024500Y-49530000D01*
X41338500Y-50482500D02*
X41338500Y-49911000D01*
X50419000Y-38671500D02*
X50927000Y-39179500D01*
X36827460Y-43522900D02*
X36827460Y-42793920D01*
X52197000Y-40259000D02*
X52197000Y-39179500D01*
X49339500Y-38671500D02*
X50419000Y-38671500D01*
X47625000Y-38671500D02*
X47625000Y-33401000D01*
X51371500Y-46418500D02*
X50863500Y-45910500D01*
X48260000Y-57340500D02*
X49530000Y-58610500D01*
X43243500Y-45910500D02*
X43243500Y-44894500D01*
X92392500Y-73977500D02*
X90995500Y-75374500D01*
X49339500Y-38671500D02*
X47625000Y-38671500D01*
X70794880Y-54102000D02*
X72072500Y-52824380D01*
X39850060Y-39771320D02*
X40894000Y-39771320D01*
X42100500Y-49149000D02*
X42100500Y-47053500D01*
X42100500Y-47053500D02*
X43243500Y-45910500D01*
X77660500Y-75120500D02*
X77660500Y-76517500D01*
X49339500Y-36131500D02*
X49339500Y-37401500D01*
X82740500Y-72580500D02*
X80200500Y-72580500D01*
X54102000Y-46418500D02*
X52197000Y-46418500D01*
X87820500Y-43942000D02*
X92329000Y-43942000D01*
X87820500Y-43942000D02*
X84772500Y-43942000D01*
X37274500Y-42354500D02*
X37274500Y-42346880D01*
X61277500Y-54102000D02*
X70794880Y-54102000D01*
X49339500Y-37401500D02*
X49339500Y-38671500D01*
X50863500Y-45910500D02*
X43243500Y-45910500D01*
X83883500Y-71437500D02*
X82740500Y-72580500D01*
X38100000Y-42354500D02*
X37274500Y-42354500D01*
X96075500Y-42227500D02*
X97472500Y-42227500D01*
X39367460Y-40253920D02*
X39367460Y-41087040D01*
X52197000Y-46418500D02*
X51371500Y-46418500D01*
X70739000Y-49530000D02*
X72072500Y-50863500D01*
X36827460Y-42793920D02*
X37274500Y-42346880D01*
X105981500Y-36860480D02*
X104554020Y-36860480D01*
X41338500Y-52768500D02*
X41338500Y-50482500D01*
X72072500Y-50863500D02*
X72072500Y-52824380D01*
X97472500Y-42227500D02*
X97472500Y-41402000D01*
X96837500Y-44767500D02*
X97472500Y-44132500D01*
X93154500Y-44767500D02*
X92329000Y-43942000D01*
D49*
X44196000Y-54673500D02*
X41338500Y-54673500D01*
X63881000Y-51435000D02*
X63944500Y-51498500D01*
X61468000Y-51435000D02*
X63881000Y-51435000D01*
X69024500Y-51435000D02*
X66548000Y-51435000D01*
X66548000Y-51435000D02*
X66484500Y-51498500D01*
X56388000Y-51435000D02*
X57023000Y-51435000D01*
X57023000Y-51435000D02*
X58991500Y-49466500D01*
X34417000Y-49974500D02*
X32893000Y-49974500D01*
X56388000Y-49530000D02*
X56388000Y-47561500D01*
X49530000Y-49720500D02*
X49530000Y-51435000D01*
X48260000Y-51435000D02*
X49530000Y-51435000D01*
G36*
X37846000Y-51754468D02*
X37681062Y-51822788D01*
X37466708Y-52037142D01*
X37350700Y-52317209D01*
X37350700Y-52438300D01*
X37541200Y-52628800D01*
X37846000Y-52628800D01*
X37846000Y-52836962D01*
X37737553Y-52908200D01*
X37541200Y-52908200D01*
X37350700Y-53098700D01*
X37350700Y-53219791D01*
X37465260Y-53496362D01*
X37465260Y-53945638D01*
X37350700Y-54222209D01*
X37350700Y-54343300D01*
X37541200Y-54533800D01*
X37738178Y-54533800D01*
X37846000Y-54606581D01*
X37846000Y-54813200D01*
X37541200Y-54813200D01*
X37350700Y-55003700D01*
X37350700Y-55124791D01*
X37466708Y-55404858D01*
X37681062Y-55619212D01*
X37961129Y-55735220D01*
X38341300Y-55735220D01*
X38531800Y-55544720D01*
X38531800Y-55245000D01*
X38811200Y-55245000D01*
X38811200Y-55544720D01*
X39001700Y-55735220D01*
X39381871Y-55735220D01*
X39661938Y-55619212D01*
X39876292Y-55404858D01*
X39942508Y-55245000D01*
X40005000Y-55245000D01*
X40005000Y-55745904D01*
X39991471Y-55740300D01*
X39636700Y-55740300D01*
X39446200Y-55930800D01*
X39446200Y-57073800D01*
X39466200Y-57073800D01*
X39466200Y-57353200D01*
X39446200Y-57353200D01*
X39446200Y-59613800D01*
X39466200Y-59613800D01*
X39466200Y-59893200D01*
X39446200Y-59893200D01*
X39446200Y-61036200D01*
X39636700Y-61226700D01*
X39991471Y-61226700D01*
X40005000Y-61221096D01*
X40005000Y-61785500D01*
X37989032Y-61785500D01*
X37982790Y-61781329D01*
X37805206Y-61662671D01*
X37465000Y-61595000D01*
X32181736Y-61595000D01*
X31211155Y-60624419D01*
X31217423Y-60623203D01*
X31430227Y-60483413D01*
X31572677Y-60272380D01*
X31622740Y-60022740D01*
X31622740Y-59893200D01*
X38201600Y-59893200D01*
X38011100Y-60083700D01*
X38011100Y-60616271D01*
X38127108Y-60896338D01*
X38341462Y-61110692D01*
X38621529Y-61226700D01*
X38976300Y-61226700D01*
X39166800Y-61036200D01*
X39166800Y-59893200D01*
X38201600Y-59893200D01*
X31622740Y-59893200D01*
X31622740Y-58722260D01*
X31594412Y-58576258D01*
X31621292Y-58549378D01*
X31737300Y-58269311D01*
X31737300Y-57797700D01*
X31546800Y-57607200D01*
X30365700Y-57607200D01*
X30365700Y-57627200D01*
X30086300Y-57627200D01*
X30086300Y-57607200D01*
X30066300Y-57607200D01*
X30066300Y-57416700D01*
X32004000Y-57416700D01*
X32004000Y-59143071D01*
X32120008Y-59423138D01*
X32334362Y-59637492D01*
X32614429Y-59753500D01*
X33451800Y-59753500D01*
X33642300Y-59563000D01*
X33642300Y-57226200D01*
X33921700Y-57226200D01*
X33921700Y-59563000D01*
X34112200Y-59753500D01*
X34949571Y-59753500D01*
X35229638Y-59637492D01*
X35443992Y-59423138D01*
X35560000Y-59143071D01*
X35560000Y-57416700D01*
X35496500Y-57353200D01*
X38201600Y-57353200D01*
X38011100Y-57543700D01*
X38011100Y-58076271D01*
X38127108Y-58356338D01*
X38254270Y-58483500D01*
X38127108Y-58610662D01*
X38011100Y-58890729D01*
X38011100Y-59423300D01*
X38201600Y-59613800D01*
X39166800Y-59613800D01*
X39166800Y-57353200D01*
X38201600Y-57353200D01*
X35496500Y-57353200D01*
X35369500Y-57226200D01*
X33921700Y-57226200D01*
X33642300Y-57226200D01*
X33642300Y-57226200D01*
X32194500Y-57226200D01*
X31648400Y-57226200D01*
X31737300Y-57137300D01*
X31737300Y-57073800D01*
X38201600Y-57073800D01*
X39166800Y-57073800D01*
X39166800Y-55930800D01*
X38976300Y-55740300D01*
X38621529Y-55740300D01*
X35560000Y-55740300D01*
X35560000Y-55029929D01*
X35443992Y-54749862D01*
X35229638Y-54535508D01*
X34949571Y-54419500D01*
X34112200Y-54419500D01*
X33921700Y-54610000D01*
X33921700Y-56946800D01*
X35369500Y-56946800D01*
X35560000Y-56756300D01*
X35560000Y-55740300D01*
X38621529Y-55740300D01*
X35560000Y-55740300D01*
X35560000Y-55740300D01*
X38621529Y-55740300D01*
X38341462Y-55856308D01*
X38127108Y-56070662D01*
X38011100Y-56350729D01*
X38011100Y-56883300D01*
X38201600Y-57073800D01*
X31737300Y-57073800D01*
X31737300Y-56665689D01*
X31621292Y-56385622D01*
X31406938Y-56171268D01*
X31126871Y-56055260D01*
X30556200Y-56055260D01*
X30365700Y-56245760D01*
X30365700Y-57327800D01*
X31546800Y-57327800D01*
X31648400Y-57226200D01*
X32194500Y-57226200D01*
X31648400Y-57226200D01*
X31648400Y-57226200D01*
X32194500Y-57226200D01*
X32004000Y-57416700D01*
X30066300Y-57416700D01*
X30066300Y-57327800D01*
X30086300Y-57327800D01*
X30086300Y-56245760D01*
X29895800Y-56055260D01*
X29325129Y-56055260D01*
X29185258Y-56113197D01*
X29093992Y-55892862D01*
X29032438Y-55831308D01*
X29045377Y-55812140D01*
X29069971Y-55689500D01*
X30543500Y-55689500D01*
X30883706Y-55621829D01*
X31172118Y-55429118D01*
X31419581Y-55181655D01*
X31455784Y-55181687D01*
X31852689Y-55017689D01*
X32119320Y-54751523D01*
X32004000Y-55029929D01*
X32004000Y-56756300D01*
X32194500Y-56946800D01*
X33642300Y-56946800D01*
X33642300Y-54610000D01*
X33451800Y-54419500D01*
X32614429Y-54419500D01*
X32334362Y-54535508D01*
X32157359Y-54712511D01*
X32321313Y-54317668D01*
X32321687Y-53888216D01*
X32198672Y-53590498D01*
X32360429Y-53657500D01*
X32562800Y-53657500D01*
X32753300Y-53467000D01*
X32753300Y-52654200D01*
X32966800Y-52654200D01*
X32810390Y-52829944D01*
X33001994Y-53223940D01*
X33032700Y-53250368D01*
X33032700Y-53467000D01*
X33223200Y-53657500D01*
X33425571Y-53657500D01*
X33577765Y-53594459D01*
X33769300Y-53657500D01*
X34277300Y-53657500D01*
X34277300Y-52654200D01*
X34556700Y-52654200D01*
X34277300Y-52654200D01*
X34277300Y-52654200D01*
X34556700Y-52654200D01*
X34556700Y-53657500D01*
X35064700Y-53657500D01*
X35491473Y-53517033D01*
X35832006Y-53223940D01*
X36023610Y-52829944D01*
X35867200Y-52654200D01*
X34556700Y-52654200D01*
X34277300Y-52654200D01*
X34277300Y-52654200D01*
X32966800Y-52654200D01*
X32753300Y-52654200D01*
X32753300Y-52654200D01*
X31940500Y-52654200D01*
X31750000Y-52844700D01*
X31750000Y-53047071D01*
X31798527Y-53164225D01*
X31457668Y-53022687D01*
X31028216Y-53022313D01*
X30631311Y-53186311D01*
X30327378Y-53489714D01*
X30162687Y-53886332D01*
X30162665Y-53911500D01*
X29070799Y-53911500D01*
X29048463Y-53796377D01*
X28908673Y-53583573D01*
X28829000Y-53529793D01*
X28829000Y-52260500D01*
X31826200Y-52260500D01*
X31940500Y-52374800D01*
X32753300Y-52374800D01*
X32753300Y-52354800D01*
X32949000Y-52354800D01*
X32966800Y-52374800D01*
X34277300Y-52374800D01*
X34277300Y-51371500D01*
X34556700Y-51371500D01*
X34556700Y-52374800D01*
X35867200Y-52374800D01*
X36023610Y-52199056D01*
X35832006Y-51805060D01*
X35491473Y-51511967D01*
X35064700Y-51371500D01*
X34556700Y-51371500D01*
X34277300Y-51371500D01*
X34277300Y-51371500D01*
X33921440Y-51371500D01*
X33921440Y-50990500D01*
X34954857Y-50990500D01*
X35343663Y-50913162D01*
X35673277Y-50692920D01*
X35893519Y-50363306D01*
X35970857Y-49974500D01*
X35893519Y-49585694D01*
X35673277Y-49256080D01*
X35343663Y-49035838D01*
X34954857Y-48958500D01*
X33879143Y-48958500D01*
X33655000Y-49003085D01*
X33655000Y-48742600D01*
X37846000Y-48742600D01*
X37846000Y-51754468D01*
X37846000Y-51754468D01*
G37*
X37846000Y-51754468D02*
X37681062Y-51822788D01*
X37466708Y-52037142D01*
X37350700Y-52317209D01*
X37350700Y-52438300D01*
X37541200Y-52628800D01*
X37846000Y-52628800D01*
X37846000Y-52836962D01*
X37737553Y-52908200D01*
X37541200Y-52908200D01*
X37350700Y-53098700D01*
X37350700Y-53219791D01*
X37465260Y-53496362D01*
X37465260Y-53945638D01*
X37350700Y-54222209D01*
X37350700Y-54343300D01*
X37541200Y-54533800D01*
X37738178Y-54533800D01*
X37846000Y-54606581D01*
X37846000Y-54813200D01*
X37541200Y-54813200D01*
X37350700Y-55003700D01*
X37350700Y-55124791D01*
X37466708Y-55404858D01*
X37681062Y-55619212D01*
X37961129Y-55735220D01*
X38341300Y-55735220D01*
X38531800Y-55544720D01*
X38531800Y-55245000D01*
X38811200Y-55245000D01*
X38811200Y-55544720D01*
X39001700Y-55735220D01*
X39381871Y-55735220D01*
X39661938Y-55619212D01*
X39876292Y-55404858D01*
X39942508Y-55245000D01*
X40005000Y-55245000D01*
X40005000Y-55745904D01*
X39991471Y-55740300D01*
X39636700Y-55740300D01*
X39446200Y-55930800D01*
X39446200Y-57073800D01*
X39466200Y-57073800D01*
X39466200Y-57353200D01*
X39446200Y-57353200D01*
X39446200Y-59613800D01*
X39466200Y-59613800D01*
X39466200Y-59893200D01*
X39446200Y-59893200D01*
X39446200Y-61036200D01*
X39636700Y-61226700D01*
X39991471Y-61226700D01*
X40005000Y-61221096D01*
X40005000Y-61785500D01*
X37989032Y-61785500D01*
X37982790Y-61781329D01*
X37805206Y-61662671D01*
X37465000Y-61595000D01*
X32181736Y-61595000D01*
X31211155Y-60624419D01*
X31217423Y-60623203D01*
X31430227Y-60483413D01*
X31572677Y-60272380D01*
X31622740Y-60022740D01*
X31622740Y-59893200D01*
X38201600Y-59893200D01*
X38011100Y-60083700D01*
X38011100Y-60616271D01*
X38127108Y-60896338D01*
X38341462Y-61110692D01*
X38621529Y-61226700D01*
X38976300Y-61226700D01*
X39166800Y-61036200D01*
X39166800Y-59893200D01*
X38201600Y-59893200D01*
X31622740Y-59893200D01*
X31622740Y-58722260D01*
X31594412Y-58576258D01*
X31621292Y-58549378D01*
X31737300Y-58269311D01*
X31737300Y-57797700D01*
X31546800Y-57607200D01*
X30365700Y-57607200D01*
X30365700Y-57627200D01*
X30086300Y-57627200D01*
X30086300Y-57607200D01*
X30066300Y-57607200D01*
X30066300Y-57416700D01*
X32004000Y-57416700D01*
X32004000Y-59143071D01*
X32120008Y-59423138D01*
X32334362Y-59637492D01*
X32614429Y-59753500D01*
X33451800Y-59753500D01*
X33642300Y-59563000D01*
X33642300Y-57226200D01*
X33921700Y-57226200D01*
X33921700Y-59563000D01*
X34112200Y-59753500D01*
X34949571Y-59753500D01*
X35229638Y-59637492D01*
X35443992Y-59423138D01*
X35560000Y-59143071D01*
X35560000Y-57416700D01*
X35496500Y-57353200D01*
X38201600Y-57353200D01*
X38011100Y-57543700D01*
X38011100Y-58076271D01*
X38127108Y-58356338D01*
X38254270Y-58483500D01*
X38127108Y-58610662D01*
X38011100Y-58890729D01*
X38011100Y-59423300D01*
X38201600Y-59613800D01*
X39166800Y-59613800D01*
X39166800Y-57353200D01*
X38201600Y-57353200D01*
X35496500Y-57353200D01*
X35369500Y-57226200D01*
X33921700Y-57226200D01*
X33642300Y-57226200D01*
X33642300Y-57226200D01*
X32194500Y-57226200D01*
X31648400Y-57226200D01*
X31737300Y-57137300D01*
X31737300Y-57073800D01*
X38201600Y-57073800D01*
X39166800Y-57073800D01*
X39166800Y-55930800D01*
X38976300Y-55740300D01*
X38621529Y-55740300D01*
X35560000Y-55740300D01*
X35560000Y-55029929D01*
X35443992Y-54749862D01*
X35229638Y-54535508D01*
X34949571Y-54419500D01*
X34112200Y-54419500D01*
X33921700Y-54610000D01*
X33921700Y-56946800D01*
X35369500Y-56946800D01*
X35560000Y-56756300D01*
X35560000Y-55740300D01*
X38621529Y-55740300D01*
X35560000Y-55740300D01*
X35560000Y-55740300D01*
X38621529Y-55740300D01*
X38341462Y-55856308D01*
X38127108Y-56070662D01*
X38011100Y-56350729D01*
X38011100Y-56883300D01*
X38201600Y-57073800D01*
X31737300Y-57073800D01*
X31737300Y-56665689D01*
X31621292Y-56385622D01*
X31406938Y-56171268D01*
X31126871Y-56055260D01*
X30556200Y-56055260D01*
X30365700Y-56245760D01*
X30365700Y-57327800D01*
X31546800Y-57327800D01*
X31648400Y-57226200D01*
X32194500Y-57226200D01*
X31648400Y-57226200D01*
X31648400Y-57226200D01*
X32194500Y-57226200D01*
X32004000Y-57416700D01*
X30066300Y-57416700D01*
X30066300Y-57327800D01*
X30086300Y-57327800D01*
X30086300Y-56245760D01*
X29895800Y-56055260D01*
X29325129Y-56055260D01*
X29185258Y-56113197D01*
X29093992Y-55892862D01*
X29032438Y-55831308D01*
X29045377Y-55812140D01*
X29069971Y-55689500D01*
X30543500Y-55689500D01*
X30883706Y-55621829D01*
X31172118Y-55429118D01*
X31419581Y-55181655D01*
X31455784Y-55181687D01*
X31852689Y-55017689D01*
X32119320Y-54751523D01*
X32004000Y-55029929D01*
X32004000Y-56756300D01*
X32194500Y-56946800D01*
X33642300Y-56946800D01*
X33642300Y-54610000D01*
X33451800Y-54419500D01*
X32614429Y-54419500D01*
X32334362Y-54535508D01*
X32157359Y-54712511D01*
X32321313Y-54317668D01*
X32321687Y-53888216D01*
X32198672Y-53590498D01*
X32360429Y-53657500D01*
X32562800Y-53657500D01*
X32753300Y-53467000D01*
X32753300Y-52654200D01*
X32966800Y-52654200D01*
X32810390Y-52829944D01*
X33001994Y-53223940D01*
X33032700Y-53250368D01*
X33032700Y-53467000D01*
X33223200Y-53657500D01*
X33425571Y-53657500D01*
X33577765Y-53594459D01*
X33769300Y-53657500D01*
X34277300Y-53657500D01*
X34277300Y-52654200D01*
X34556700Y-52654200D01*
X34277300Y-52654200D01*
X34277300Y-52654200D01*
X34556700Y-52654200D01*
X34556700Y-53657500D01*
X35064700Y-53657500D01*
X35491473Y-53517033D01*
X35832006Y-53223940D01*
X36023610Y-52829944D01*
X35867200Y-52654200D01*
X34556700Y-52654200D01*
X34277300Y-52654200D01*
X34277300Y-52654200D01*
X32966800Y-52654200D01*
X32753300Y-52654200D01*
X32753300Y-52654200D01*
X31940500Y-52654200D01*
X31750000Y-52844700D01*
X31750000Y-53047071D01*
X31798527Y-53164225D01*
X31457668Y-53022687D01*
X31028216Y-53022313D01*
X30631311Y-53186311D01*
X30327378Y-53489714D01*
X30162687Y-53886332D01*
X30162665Y-53911500D01*
X29070799Y-53911500D01*
X29048463Y-53796377D01*
X28908673Y-53583573D01*
X28829000Y-53529793D01*
X28829000Y-52260500D01*
X31826200Y-52260500D01*
X31940500Y-52374800D01*
X32753300Y-52374800D01*
X32753300Y-52354800D01*
X32949000Y-52354800D01*
X32966800Y-52374800D01*
X34277300Y-52374800D01*
X34277300Y-51371500D01*
X34556700Y-51371500D01*
X34556700Y-52374800D01*
X35867200Y-52374800D01*
X36023610Y-52199056D01*
X35832006Y-51805060D01*
X35491473Y-51511967D01*
X35064700Y-51371500D01*
X34556700Y-51371500D01*
X34277300Y-51371500D01*
X34277300Y-51371500D01*
X33921440Y-51371500D01*
X33921440Y-50990500D01*
X34954857Y-50990500D01*
X35343663Y-50913162D01*
X35673277Y-50692920D01*
X35893519Y-50363306D01*
X35970857Y-49974500D01*
X35893519Y-49585694D01*
X35673277Y-49256080D01*
X35343663Y-49035838D01*
X34954857Y-48958500D01*
X33879143Y-48958500D01*
X33655000Y-49003085D01*
X33655000Y-48742600D01*
X37846000Y-48742600D01*
X37846000Y-51754468D01*
M02*
