M48
INCH,TZ
T1C0.025
T2C0.035
T3C0.040
T4C0.046
T5C0.050
T6C0.080
T7C0.120
%
G90
G05
T1
X010350Y-018700
X010375Y-024505
X010825Y-029225
X011025Y-024500
X011050Y-014125
X011675Y-024500
X012300Y-021300
X012350Y-017850
X012625Y-022475
X013225Y-015200
X013350Y-018325
X013800Y-027225
X014225Y-015575
X014499Y-017135
X014700Y-019300
X015025Y-018025
X015200Y-015600
X015275Y-026225
X015500Y-013825
X015625Y-024200
X016600Y-023025
X016650Y-024250
X016975Y-020525
X017025Y-017675
X017075Y-019125
X017525Y-017675
X017775Y-018500
X018000Y-015250
X018150Y-016225
X018750Y-015225
X019500Y-019575
X019500Y-023075
X019550Y-013825
X019775Y-018600
X020000Y-019575
X020400Y-021550
X020550Y-013675
X020800Y-023700
X020950Y-013325
X021275Y-015375
X021300Y-017525
X021300Y-018275
X022200Y-010350
X022200Y-018725
X022600Y-022025
X023025Y-028600
X023150Y-022475
X023350Y-015875
X023375Y-020950
X023725Y-022475
X023800Y-017525
X024125Y-021300
X024450Y-012075
X024450Y-013325
X024625Y-024500
X024650Y-028600
X025100Y-016275
X025275Y-014300
X025275Y-015300
X025400Y-017450
X025575Y-016625
X025925Y-013450
X025925Y-017550
X025950Y-030200
X026100Y-022100
X026550Y-021700
X026850Y-028475
X027275Y-017925
X027625Y-017550
X027800Y-019500
X027825Y-016275
X027925Y-020350
X028175Y-016625
X028900Y-027225
X029325Y-018775
X029350Y-016975
X029425Y-013050
X029700Y-018300
X030075Y-029300
X030450Y-028150
X030550Y-021525
X030900Y-026825
X032400Y-028125
X032875Y-020325
X032950Y-014850
X032975Y-013050
X033375Y-017300
X033400Y-021175
X033975Y-028125
X034575Y-017300
X034925Y-013500
X035400Y-015825
X035825Y-013350
X035825Y-030050
X040175Y-012525
X040350Y-014925
X040350Y-015525
X041075Y-012525
X041575Y-024950
X041675Y-014925
X041675Y-015525
X041750Y-012150
T2
X011800Y-014200
X011800Y-017350
X025400Y-022975
X025400Y-025975
X026400Y-022975
X026400Y-025975
X027400Y-022975
X027400Y-025975
X028400Y-022975
X028400Y-025975
X029400Y-022975
X029400Y-025975
X030400Y-022975
X030400Y-025975
X031400Y-022975
X031400Y-025975
X032400Y-022975
X032400Y-025975
X033400Y-022975
X033400Y-025975
X034400Y-022975
X034400Y-025975
X035400Y-022975
X035400Y-025975
X036400Y-022975
X036400Y-025975
X037400Y-022975
X037400Y-025975
X038400Y-022975
X038400Y-025975
T3
X010700Y-010900
X010700Y-011900
X011700Y-010900
X011700Y-011900
X012700Y-010900
X012700Y-011900
X013700Y-010900
X013700Y-011900
X014700Y-010900
X014700Y-011900
X015700Y-010900
X015700Y-011900
X016700Y-010900
X016700Y-011900
X017700Y-010900
X017700Y-011900
X018000Y-024250
X018000Y-025250
X018000Y-026250
X018000Y-027250
X018000Y-028250
X018000Y-029250
X018000Y-030250
X018000Y-031250
X018700Y-010900
X018700Y-011900
X019000Y-024250
X019000Y-025250
X019000Y-026250
X019000Y-027250
X019000Y-028250
X019000Y-029250
X019000Y-030250
X019000Y-031250
X019700Y-010900
X019700Y-011900
X020000Y-024250
X020000Y-025250
X020000Y-026250
X020000Y-027250
X020000Y-028250
X020000Y-029250
X020000Y-030250
X020000Y-031250
X020700Y-010900
X020700Y-011900
X021700Y-010900
X021700Y-011900
X022700Y-010900
X022700Y-011900
X023975Y-011125
X024975Y-011125
X025975Y-011125
X026975Y-011125
X027575Y-030125
X027975Y-011125
X028575Y-030125
X028975Y-011125
X029575Y-030125
X029975Y-011125
X030575Y-030125
X030975Y-011125
X031000Y-014000
X031000Y-015000
X031000Y-016000
X031000Y-017000
X031000Y-018000
X031000Y-019000
X031000Y-020000
X031000Y-021000
X031575Y-030125
X031975Y-011125
X032000Y-014000
X032000Y-015000
X032000Y-016000
X032000Y-017000
X032000Y-018000
X032000Y-019000
X032000Y-020000
X032000Y-021000
X032575Y-030125
X032975Y-011125
X033575Y-030125
X034575Y-011125
X034575Y-018800
X034575Y-019800
X034575Y-020800
X034575Y-030125
X035575Y-011125
X036575Y-011125
X036575Y-013800
X036575Y-018800
X036575Y-019800
X036575Y-020800
X036575Y-028125
X036575Y-029125
X036575Y-030125
X037575Y-011125
X037575Y-013800
X037575Y-018800
X037575Y-019800
X037575Y-020800
X037575Y-028125
X037575Y-029125
X037575Y-030125
X038575Y-011125
X038575Y-013800
X038575Y-028125
X038575Y-029125
X038575Y-030125
X039575Y-011125
X039575Y-013800
X039575Y-028125
X039575Y-029125
X039575Y-030125
X040575Y-011125
X040575Y-013800
X040575Y-028125
X040575Y-029125
X040575Y-030125
X041575Y-011125
X041575Y-013800
X041575Y-028125
X041575Y-029125
X041575Y-030125
X042950Y-011050
X042950Y-012050
X042950Y-013050
X042950Y-014050
X042950Y-015050
X042950Y-016050
T5
X010575Y-025700
X010575Y-028300
T6
X042575Y-028125
T7
X022075Y-030125
T4
X013100Y-027980G85X013100Y-028920
G05
X013880Y-030450G85X014820Y-030450
G05
X015500Y-027880G85X015500Y-029020
G05
T0
M30
