G04 #@! TF.FileFunction,Soldermask,Bot*
%FSLAX46Y46*%
G04 Gerber Fmt 4.6, Leading zero omitted, Abs format (unit mm)*
G04 Created by KiCad (PCBNEW (2015-07-01 BZR 5850)-product) date Mon Jul 27 17:51:59 2015*
%MOMM*%
G01*
G04 APERTURE LIST*
%ADD10C,0.150000*%
%ADD11C,0.127000*%
%ADD12C,1.524000*%
%ADD13R,1.574800X1.930400*%
%ADD14R,1.930400X1.574800*%
%ADD15R,2.286000X2.730500*%
%ADD16R,3.175000X3.048000*%
%ADD17R,1.270000X1.778000*%
%ADD18O,2.032000X2.794000*%
%ADD19R,2.032000X2.794000*%
%ADD20C,2.032000*%
%ADD21R,2.032000X2.032000*%
%ADD22R,2.540000X1.778000*%
%ADD23O,2.540000X1.778000*%
%ADD24O,3.556000X5.080000*%
%ADD25R,3.556000X5.080000*%
%ADD26O,5.080000X3.556000*%
%ADD27O,1.270000X2.286000*%
%ADD28R,1.270000X1.270000*%
%ADD29R,1.879600X0.914400*%
%ADD30R,1.930400X2.108200*%
%ADD31R,2.413000X2.413000*%
%ADD32C,2.413000*%
%ADD33R,2.006600X1.808480*%
%ADD34R,1.808480X2.006600*%
%ADD35C,1.651000*%
%ADD36C,5.080000*%
%ADD37C,3.048000*%
%ADD38R,1.107440X2.506980*%
%ADD39R,0.927100X1.978660*%
%ADD40R,1.808480X1.557020*%
%ADD41R,5.080000X4.064000*%
G04 APERTURE END LIST*
D10*
D11*
X110490000Y-81280000D02*
X110490000Y-25400000D01*
X25400000Y-25400000D02*
X110490000Y-25400000D01*
X110490000Y-81280000D02*
X25400000Y-81280000D01*
X25400000Y-81280000D02*
X25400000Y-25400000D01*
D12*
X28003500Y-62230000D03*
X29654500Y-62230000D03*
X26352500Y-62242700D03*
D13*
X82296000Y-61722000D03*
X80264000Y-61722000D03*
X38354000Y-50609500D03*
X36322000Y-50609500D03*
D14*
X75819000Y-50990500D03*
X75819000Y-48958500D03*
X73152000Y-50990500D03*
X73152000Y-48958500D03*
D13*
X28003500Y-41402000D03*
X30035500Y-41402000D03*
X28003500Y-33655000D03*
X30035500Y-33655000D03*
D15*
X31305500Y-78930500D03*
X27495500Y-78930500D03*
D16*
X62611000Y-74930000D03*
D17*
X64960500Y-74930000D03*
D18*
X94996000Y-58356500D03*
X92456000Y-58356500D03*
X89916000Y-58356500D03*
X87376000Y-58356500D03*
X84836000Y-58356500D03*
X82296000Y-58356500D03*
D19*
X79756000Y-58356500D03*
D18*
X77216000Y-58356500D03*
X74676000Y-58356500D03*
X72136000Y-58356500D03*
X69596000Y-58356500D03*
X67056000Y-58356500D03*
X64516000Y-58356500D03*
X97536000Y-58356500D03*
X64516000Y-65976500D03*
X67056000Y-65976500D03*
X69596000Y-65976500D03*
X72136000Y-65976500D03*
X74676000Y-65976500D03*
X77216000Y-65976500D03*
X79756000Y-65976500D03*
D19*
X82296000Y-65976500D03*
D18*
X84836000Y-65976500D03*
X87376000Y-65976500D03*
X89916000Y-65976500D03*
X92456000Y-65976500D03*
X94996000Y-65976500D03*
X97536000Y-65976500D03*
D20*
X27178000Y-30226000D03*
X27178000Y-27686000D03*
X29718000Y-30226000D03*
X29718000Y-27686000D03*
X32258000Y-30226000D03*
D21*
X32258000Y-27686000D03*
D20*
X34798000Y-30226000D03*
X34798000Y-27686000D03*
X37338000Y-30226000D03*
X37338000Y-27686000D03*
X39878000Y-30226000D03*
X39878000Y-27686000D03*
X42418000Y-30226000D03*
X42418000Y-27686000D03*
X44958000Y-30226000D03*
X44958000Y-27686000D03*
X47498000Y-30226000D03*
X47498000Y-27686000D03*
X50038000Y-30226000D03*
X50038000Y-27686000D03*
X52578000Y-30226000D03*
X52578000Y-27686000D03*
X55118000Y-30226000D03*
X55118000Y-27686000D03*
X57658000Y-30226000D03*
X57658000Y-27686000D03*
D22*
X78740000Y-35560000D03*
D23*
X78740000Y-38100000D03*
X78740000Y-40640000D03*
X78740000Y-43180000D03*
X78740000Y-45720000D03*
X78740000Y-48260000D03*
X78740000Y-50800000D03*
X78740000Y-53340000D03*
D22*
X81280000Y-35560000D03*
D23*
X81280000Y-38100000D03*
X81280000Y-40640000D03*
X81280000Y-43180000D03*
X81280000Y-45720000D03*
X81280000Y-48260000D03*
X81280000Y-50800000D03*
X81280000Y-53340000D03*
D20*
X50800000Y-79375000D03*
X50800000Y-76835000D03*
X50800000Y-74295000D03*
X50800000Y-71755000D03*
X50800000Y-69215000D03*
X50800000Y-66675000D03*
X50800000Y-64135000D03*
X50800000Y-61595000D03*
X48260000Y-79375000D03*
X48260000Y-76835000D03*
X48260000Y-74295000D03*
X48260000Y-71755000D03*
X48260000Y-69215000D03*
X48260000Y-66675000D03*
X48260000Y-64135000D03*
X48260000Y-61595000D03*
X45720000Y-79375000D03*
X45720000Y-76835000D03*
X45720000Y-74295000D03*
X45720000Y-71755000D03*
X45720000Y-69215000D03*
X45720000Y-66675000D03*
X45720000Y-64135000D03*
X45720000Y-61595000D03*
X109093000Y-28067000D03*
X109093000Y-30607000D03*
D21*
X109093000Y-33147000D03*
D20*
X109093000Y-35687000D03*
X109093000Y-38227000D03*
X109093000Y-40767000D03*
D21*
X105600500Y-35052000D03*
X103060500Y-35052000D03*
D20*
X100520500Y-35052000D03*
X97980500Y-35052000D03*
X95440500Y-35052000D03*
X92900500Y-35052000D03*
X95440500Y-52832000D03*
X92900500Y-52832000D03*
X95440500Y-50292000D03*
X92900500Y-50292000D03*
X95440500Y-47752000D03*
D21*
X92900500Y-47752000D03*
D24*
X33274000Y-72263000D03*
D25*
X39370000Y-72263000D03*
D26*
X36449000Y-77343000D03*
D27*
X30353000Y-50990500D03*
X27813000Y-50990500D03*
X29083000Y-54038500D03*
D28*
X27813000Y-52514500D03*
X29083000Y-52514500D03*
X30353000Y-52514500D03*
D29*
X29527500Y-68580000D03*
X29527500Y-67929760D03*
X29527500Y-67279520D03*
X29527500Y-69230240D03*
X29527500Y-69880480D03*
D30*
X29273500Y-71755000D03*
X29273500Y-65405000D03*
D31*
X26860500Y-69786500D03*
X26860500Y-67373500D03*
D32*
X26860500Y-71882000D03*
X26860500Y-65278000D03*
D20*
X87820500Y-47752000D03*
X87820500Y-50292000D03*
X87820500Y-52832000D03*
D21*
X105600500Y-73977500D03*
X103060500Y-73977500D03*
X100520500Y-73977500D03*
X97980500Y-73977500D03*
X95440500Y-73977500D03*
X92900500Y-73977500D03*
X105600500Y-71437500D03*
X103060500Y-71437500D03*
X100520500Y-71437500D03*
X97980500Y-71437500D03*
X95440500Y-71437500D03*
X92900500Y-71437500D03*
D33*
X104330500Y-65278000D03*
X104330500Y-67183000D03*
X101790500Y-65278000D03*
X101790500Y-67183000D03*
D34*
X42608500Y-67818000D03*
X40703500Y-67818000D03*
X30670500Y-48323500D03*
X32575500Y-48323500D03*
D35*
X29972000Y-36068000D03*
X29972000Y-44069000D03*
D20*
X105600500Y-76517500D03*
X103060500Y-76517500D03*
X100520500Y-76517500D03*
X92900500Y-76517500D03*
X95440500Y-76517500D03*
X97980500Y-76517500D03*
X87820500Y-76517500D03*
D21*
X85280500Y-76517500D03*
X82740500Y-76517500D03*
D20*
X77660500Y-76517500D03*
X75120500Y-76517500D03*
X105600500Y-28257500D03*
X103060500Y-28257500D03*
X100520500Y-28257500D03*
X97980500Y-28257500D03*
X95440500Y-28257500D03*
X92900500Y-28257500D03*
X90360500Y-28257500D03*
X87820500Y-28257500D03*
X83756500Y-28257500D03*
X81216500Y-28257500D03*
X78676500Y-28257500D03*
X76136500Y-28257500D03*
X73596500Y-28257500D03*
X71056500Y-28257500D03*
D21*
X68516500Y-28257500D03*
D20*
X65976500Y-28257500D03*
X80200500Y-76517500D03*
D36*
X56070500Y-76517500D03*
D37*
X108140500Y-71437500D03*
D20*
X72580500Y-76517500D03*
X70040500Y-76517500D03*
X63436500Y-28257500D03*
X60896500Y-28257500D03*
D38*
X40957500Y-63388240D03*
X39687500Y-63388240D03*
X38417500Y-63388240D03*
X37147500Y-63388240D03*
X35877500Y-63388240D03*
X34607500Y-63388240D03*
X33337500Y-63388240D03*
X32067500Y-63388240D03*
X32067500Y-54086760D03*
X33337500Y-54086760D03*
X34607500Y-54086760D03*
X35877500Y-54086760D03*
X37147500Y-54086760D03*
X38417500Y-54086760D03*
X39687500Y-54086760D03*
X40957500Y-54086760D03*
D39*
X34917380Y-35808920D03*
X35567620Y-35808920D03*
X36217860Y-35808920D03*
X36868100Y-35808920D03*
X32976820Y-41402000D03*
X32966660Y-35808920D03*
X33616900Y-35808920D03*
X34267140Y-35808920D03*
X37518340Y-41407080D03*
X36868100Y-41407080D03*
X36217860Y-41407080D03*
X35567620Y-41407080D03*
X34917380Y-41407080D03*
X34267140Y-41407080D03*
X37518340Y-35808920D03*
X33616900Y-41402000D03*
X32316420Y-35808920D03*
X38168580Y-35808920D03*
X38168580Y-41407080D03*
X32316420Y-41407080D03*
D40*
X75628500Y-55118000D03*
X73342500Y-53213000D03*
X75628500Y-53213000D03*
X73342500Y-55118000D03*
D41*
X57404000Y-61087000D03*
X57404000Y-35179000D03*
M02*
