G04 #@! TF.FileFunction,Copper,L2,Bot,Signal*
%FSLAX46Y46*%
G04 Gerber Fmt 4.6, Leading zero omitted, Abs format (unit mm)*
G04 Created by KiCad (PCBNEW (2015-07-01 BZR 5850)-product) date Mon Jul 27 17:51:59 2015*
%MOMM*%
G01*
G04 APERTURE LIST*
%ADD10C,0.150000*%
%ADD11C,0.127000*%
%ADD12C,1.016000*%
%ADD13R,1.066800X1.422400*%
%ADD14R,1.422400X1.066800*%
%ADD15R,1.778000X2.222500*%
%ADD16R,2.667000X2.540000*%
%ADD17R,0.762000X1.270000*%
%ADD18O,1.524000X2.286000*%
%ADD19R,1.524000X2.286000*%
%ADD20C,1.524000*%
%ADD21R,1.524000X1.524000*%
%ADD22R,2.032000X1.270000*%
%ADD23O,2.032000X1.270000*%
%ADD24O,3.048000X4.572000*%
%ADD25R,3.048000X4.572000*%
%ADD26O,4.572000X3.048000*%
%ADD27O,0.762000X1.778000*%
%ADD28R,0.762000X0.762000*%
%ADD29R,1.371600X0.406400*%
%ADD30R,1.422400X1.600200*%
%ADD31R,1.905000X1.905000*%
%ADD32C,1.905000*%
%ADD33R,1.498600X1.300480*%
%ADD34R,1.300480X1.498600*%
%ADD35C,1.143000*%
%ADD36C,4.572000*%
%ADD37C,2.540000*%
%ADD38R,0.599440X1.998980*%
%ADD39R,0.419100X1.470660*%
%ADD40R,1.300480X1.049020*%
%ADD41R,4.572000X3.556000*%
%ADD42C,0.889000*%
%ADD43C,0.508000*%
%ADD44C,0.381000*%
%ADD45C,0.254000*%
G04 APERTURE END LIST*
D10*
D11*
X110490000Y-81280000D02*
X110490000Y-25400000D01*
X25400000Y-25400000D02*
X110490000Y-25400000D01*
X110490000Y-81280000D02*
X25400000Y-81280000D01*
X25400000Y-81280000D02*
X25400000Y-25400000D01*
D12*
X28003500Y-62230000D03*
X29654500Y-62230000D03*
X26352500Y-62242700D03*
D13*
X82296000Y-61722000D03*
X80264000Y-61722000D03*
X38354000Y-50609500D03*
X36322000Y-50609500D03*
D14*
X75819000Y-50990500D03*
X75819000Y-48958500D03*
X73152000Y-50990500D03*
X73152000Y-48958500D03*
D13*
X28003500Y-41402000D03*
X30035500Y-41402000D03*
X28003500Y-33655000D03*
X30035500Y-33655000D03*
D15*
X31305500Y-78930500D03*
X27495500Y-78930500D03*
D16*
X62611000Y-74930000D03*
D17*
X64960500Y-74930000D03*
D18*
X94996000Y-58356500D03*
X92456000Y-58356500D03*
X89916000Y-58356500D03*
X87376000Y-58356500D03*
X84836000Y-58356500D03*
X82296000Y-58356500D03*
D19*
X79756000Y-58356500D03*
D18*
X77216000Y-58356500D03*
X74676000Y-58356500D03*
X72136000Y-58356500D03*
X69596000Y-58356500D03*
X67056000Y-58356500D03*
X64516000Y-58356500D03*
X97536000Y-58356500D03*
X64516000Y-65976500D03*
X67056000Y-65976500D03*
X69596000Y-65976500D03*
X72136000Y-65976500D03*
X74676000Y-65976500D03*
X77216000Y-65976500D03*
X79756000Y-65976500D03*
D19*
X82296000Y-65976500D03*
D18*
X84836000Y-65976500D03*
X87376000Y-65976500D03*
X89916000Y-65976500D03*
X92456000Y-65976500D03*
X94996000Y-65976500D03*
X97536000Y-65976500D03*
D20*
X27178000Y-30226000D03*
X27178000Y-27686000D03*
X29718000Y-30226000D03*
X29718000Y-27686000D03*
X32258000Y-30226000D03*
D21*
X32258000Y-27686000D03*
D20*
X34798000Y-30226000D03*
X34798000Y-27686000D03*
X37338000Y-30226000D03*
X37338000Y-27686000D03*
X39878000Y-30226000D03*
X39878000Y-27686000D03*
X42418000Y-30226000D03*
X42418000Y-27686000D03*
X44958000Y-30226000D03*
X44958000Y-27686000D03*
X47498000Y-30226000D03*
X47498000Y-27686000D03*
X50038000Y-30226000D03*
X50038000Y-27686000D03*
X52578000Y-30226000D03*
X52578000Y-27686000D03*
X55118000Y-30226000D03*
X55118000Y-27686000D03*
X57658000Y-30226000D03*
X57658000Y-27686000D03*
D22*
X78740000Y-35560000D03*
D23*
X78740000Y-38100000D03*
X78740000Y-40640000D03*
X78740000Y-43180000D03*
X78740000Y-45720000D03*
X78740000Y-48260000D03*
X78740000Y-50800000D03*
X78740000Y-53340000D03*
D22*
X81280000Y-35560000D03*
D23*
X81280000Y-38100000D03*
X81280000Y-40640000D03*
X81280000Y-43180000D03*
X81280000Y-45720000D03*
X81280000Y-48260000D03*
X81280000Y-50800000D03*
X81280000Y-53340000D03*
D20*
X50800000Y-79375000D03*
X50800000Y-76835000D03*
X50800000Y-74295000D03*
X50800000Y-71755000D03*
X50800000Y-69215000D03*
X50800000Y-66675000D03*
X50800000Y-64135000D03*
X50800000Y-61595000D03*
X48260000Y-79375000D03*
X48260000Y-76835000D03*
X48260000Y-74295000D03*
X48260000Y-71755000D03*
X48260000Y-69215000D03*
X48260000Y-66675000D03*
X48260000Y-64135000D03*
X48260000Y-61595000D03*
X45720000Y-79375000D03*
X45720000Y-76835000D03*
X45720000Y-74295000D03*
X45720000Y-71755000D03*
X45720000Y-69215000D03*
X45720000Y-66675000D03*
X45720000Y-64135000D03*
X45720000Y-61595000D03*
X109093000Y-28067000D03*
X109093000Y-30607000D03*
D21*
X109093000Y-33147000D03*
D20*
X109093000Y-35687000D03*
X109093000Y-38227000D03*
X109093000Y-40767000D03*
D21*
X105600500Y-35052000D03*
X103060500Y-35052000D03*
D20*
X100520500Y-35052000D03*
X97980500Y-35052000D03*
X95440500Y-35052000D03*
X92900500Y-35052000D03*
X95440500Y-52832000D03*
X92900500Y-52832000D03*
X95440500Y-50292000D03*
X92900500Y-50292000D03*
X95440500Y-47752000D03*
D21*
X92900500Y-47752000D03*
D24*
X33274000Y-72263000D03*
D25*
X39370000Y-72263000D03*
D26*
X36449000Y-77343000D03*
D27*
X30353000Y-50990500D03*
X27813000Y-50990500D03*
X29083000Y-54038500D03*
D28*
X27813000Y-52514500D03*
X29083000Y-52514500D03*
X30353000Y-52514500D03*
D29*
X29527500Y-68580000D03*
X29527500Y-67929760D03*
X29527500Y-67279520D03*
X29527500Y-69230240D03*
X29527500Y-69880480D03*
D30*
X29273500Y-71755000D03*
X29273500Y-65405000D03*
D31*
X26860500Y-69786500D03*
X26860500Y-67373500D03*
D32*
X26860500Y-71882000D03*
X26860500Y-65278000D03*
D20*
X87820500Y-47752000D03*
X87820500Y-50292000D03*
X87820500Y-52832000D03*
D21*
X105600500Y-73977500D03*
X103060500Y-73977500D03*
X100520500Y-73977500D03*
X97980500Y-73977500D03*
X95440500Y-73977500D03*
X92900500Y-73977500D03*
X105600500Y-71437500D03*
X103060500Y-71437500D03*
X100520500Y-71437500D03*
X97980500Y-71437500D03*
X95440500Y-71437500D03*
X92900500Y-71437500D03*
D33*
X104330500Y-65278000D03*
X104330500Y-67183000D03*
X101790500Y-65278000D03*
X101790500Y-67183000D03*
D34*
X42608500Y-67818000D03*
X40703500Y-67818000D03*
X30670500Y-48323500D03*
X32575500Y-48323500D03*
D35*
X29972000Y-36068000D03*
X29972000Y-44069000D03*
D20*
X105600500Y-76517500D03*
X103060500Y-76517500D03*
X100520500Y-76517500D03*
X92900500Y-76517500D03*
X95440500Y-76517500D03*
X97980500Y-76517500D03*
X87820500Y-76517500D03*
D21*
X85280500Y-76517500D03*
X82740500Y-76517500D03*
D20*
X77660500Y-76517500D03*
X75120500Y-76517500D03*
X105600500Y-28257500D03*
X103060500Y-28257500D03*
X100520500Y-28257500D03*
X97980500Y-28257500D03*
X95440500Y-28257500D03*
X92900500Y-28257500D03*
X90360500Y-28257500D03*
X87820500Y-28257500D03*
X83756500Y-28257500D03*
X81216500Y-28257500D03*
X78676500Y-28257500D03*
X76136500Y-28257500D03*
X73596500Y-28257500D03*
X71056500Y-28257500D03*
D21*
X68516500Y-28257500D03*
D20*
X65976500Y-28257500D03*
X80200500Y-76517500D03*
D36*
X56070500Y-76517500D03*
D37*
X108140500Y-71437500D03*
D20*
X72580500Y-76517500D03*
X70040500Y-76517500D03*
X63436500Y-28257500D03*
X60896500Y-28257500D03*
D38*
X40957500Y-63388240D03*
X39687500Y-63388240D03*
X38417500Y-63388240D03*
X37147500Y-63388240D03*
X35877500Y-63388240D03*
X34607500Y-63388240D03*
X33337500Y-63388240D03*
X32067500Y-63388240D03*
X32067500Y-54086760D03*
X33337500Y-54086760D03*
X34607500Y-54086760D03*
X35877500Y-54086760D03*
X37147500Y-54086760D03*
X38417500Y-54086760D03*
X39687500Y-54086760D03*
X40957500Y-54086760D03*
D39*
X34917380Y-35808920D03*
X35567620Y-35808920D03*
X36217860Y-35808920D03*
X36868100Y-35808920D03*
X32976820Y-41402000D03*
X32966660Y-35808920D03*
X33616900Y-35808920D03*
X34267140Y-35808920D03*
X37518340Y-41407080D03*
X36868100Y-41407080D03*
X36217860Y-41407080D03*
X35567620Y-41407080D03*
X34917380Y-41407080D03*
X34267140Y-41407080D03*
X37518340Y-35808920D03*
X33616900Y-41402000D03*
X32316420Y-35808920D03*
X38168580Y-35808920D03*
X38168580Y-41407080D03*
X32316420Y-41407080D03*
D40*
X75628500Y-55118000D03*
X73342500Y-53213000D03*
X75628500Y-53213000D03*
X73342500Y-55118000D03*
D41*
X57404000Y-61087000D03*
X57404000Y-35179000D03*
D42*
X58483500Y-72644000D03*
X62611000Y-72644000D03*
X66294000Y-56134000D03*
X102489000Y-39433500D03*
X105854500Y-39433500D03*
X70167500Y-44577000D03*
X65849500Y-44577000D03*
X64960500Y-42227500D03*
X71564500Y-42227500D03*
X105854500Y-37909500D03*
X89916000Y-40195500D03*
X102489000Y-37909500D03*
X84836000Y-53784500D03*
X73406000Y-69151500D03*
X78486000Y-68135500D03*
X43370500Y-48577500D03*
X58801000Y-57086500D03*
X31369000Y-45339000D03*
X37338000Y-49022000D03*
X105600500Y-63373000D03*
X38798500Y-66611500D03*
X26289000Y-47498000D03*
X39687500Y-61468000D03*
X32067500Y-57086500D03*
X27495500Y-74231500D03*
X52832000Y-60198000D03*
X39370000Y-35115500D03*
X90995500Y-33909000D03*
X83756500Y-33147000D03*
X36131500Y-39560500D03*
X49657000Y-35115500D03*
X74739500Y-33147000D03*
X64516000Y-44323000D03*
X52197000Y-34734500D03*
X46101000Y-41211500D03*
X65849500Y-34163000D03*
X74549000Y-43116500D03*
X50228500Y-47244000D03*
X45148500Y-46990000D03*
X83693000Y-37719000D03*
X60452000Y-44513500D03*
X56388000Y-26289000D03*
X102044500Y-31813500D03*
X104330500Y-31813500D03*
X45720000Y-38735000D03*
X59372500Y-53213000D03*
X69278500Y-45529500D03*
X83502500Y-51625500D03*
X75438000Y-46482000D03*
X70929500Y-51689000D03*
X50800000Y-49720500D03*
X88709500Y-34290000D03*
X64198500Y-36322000D03*
X33591500Y-38608000D03*
X54038500Y-39052500D03*
X53213000Y-33845500D03*
X62103000Y-30670500D03*
X77343000Y-71501000D03*
X62103000Y-33845500D03*
X44513500Y-44894500D03*
X38163500Y-45783500D03*
X70675500Y-41338500D03*
X54102000Y-44513500D03*
X63754000Y-41338500D03*
X43116500Y-52133500D03*
X64198500Y-38862000D03*
X35052000Y-69151500D03*
X51816000Y-54737000D03*
X60261500Y-57086500D03*
X68199000Y-72326500D03*
X42291000Y-61595000D03*
X62547500Y-62230000D03*
X59309000Y-40322500D03*
X106045000Y-30861000D03*
X28067000Y-35877500D03*
X31242000Y-54102000D03*
X67437000Y-55118000D03*
X42164000Y-58483500D03*
X65913000Y-76708000D03*
X38608000Y-39624000D03*
X33909000Y-46545500D03*
X74485500Y-47688500D03*
X76390500Y-74422000D03*
X57404000Y-55943500D03*
X82296000Y-71437500D03*
X77597000Y-54673500D03*
X90995500Y-76327000D03*
X36827460Y-43522900D03*
X49530000Y-58610500D03*
X43243500Y-44894500D03*
X86296500Y-71437500D03*
X87820500Y-43942000D03*
X84772500Y-43942000D03*
X47625000Y-38671500D03*
X54102000Y-46418500D03*
X61277500Y-54102000D03*
X70612000Y-49530000D03*
X56388000Y-47561500D03*
X49530000Y-49720500D03*
D43*
X50800000Y-61595000D02*
X50800000Y-64135000D01*
X52832000Y-80010000D02*
X52832000Y-74739500D01*
X48260000Y-79375000D02*
X48260000Y-80391000D01*
X52832000Y-74739500D02*
X54927500Y-72644000D01*
X48260000Y-74295000D02*
X48260000Y-71755000D01*
X48260000Y-80391000D02*
X48577500Y-80708500D01*
X52133500Y-80708500D02*
X52832000Y-80010000D01*
X48260000Y-64135000D02*
X48260000Y-61595000D01*
X48260000Y-69215000D02*
X48260000Y-66675000D01*
X58483500Y-72644000D02*
X54927500Y-72644000D01*
X48260000Y-66675000D02*
X48260000Y-64135000D01*
X48577500Y-80708500D02*
X52133500Y-80708500D01*
X48260000Y-71755000D02*
X48260000Y-69215000D01*
X48260000Y-76835000D02*
X48260000Y-74295000D01*
X62611000Y-72644000D02*
X62611000Y-74930000D01*
X66802000Y-30289500D02*
X66421000Y-30289500D01*
X67437000Y-30924500D02*
X66802000Y-30289500D01*
D44*
X65341500Y-48260000D02*
X65341500Y-55181500D01*
D43*
X65976500Y-29845000D02*
X65976500Y-28257500D01*
D44*
X65341500Y-48260000D02*
X67437000Y-46164500D01*
D43*
X66421000Y-30289500D02*
X65976500Y-29845000D01*
X67437000Y-46164500D02*
X67437000Y-30924500D01*
D44*
X65341500Y-55181500D02*
X66294000Y-56134000D01*
D45*
X105854500Y-39433500D02*
X102489000Y-39433500D01*
X64135000Y-56451500D02*
X64135000Y-46926500D01*
X65849500Y-45212000D02*
X65849500Y-44577000D01*
X72453500Y-41910000D02*
X72453500Y-43434000D01*
X64516000Y-58356500D02*
X64516000Y-56832500D01*
X72453500Y-43434000D02*
X71310500Y-44577000D01*
X64516000Y-56832500D02*
X64135000Y-56451500D01*
X64135000Y-46926500D02*
X65849500Y-45212000D01*
X72453500Y-41910000D02*
X72453500Y-32321500D01*
X83756500Y-30543500D02*
X83756500Y-28257500D01*
X73406000Y-31369000D02*
X82931000Y-31369000D01*
X71310500Y-44577000D02*
X70167500Y-44577000D01*
X73406000Y-31369000D02*
X72453500Y-32321500D01*
X82931000Y-31369000D02*
X83756500Y-30543500D01*
X71564500Y-32385000D02*
X73152000Y-30797500D01*
X81216500Y-30226000D02*
X81216500Y-28257500D01*
X67754500Y-68199000D02*
X64960500Y-68199000D01*
X68326000Y-67627500D02*
X68326000Y-61849000D01*
X67818000Y-61341000D02*
X64198500Y-61341000D01*
X71564500Y-32385000D02*
X71564500Y-42227500D01*
X62992000Y-55054500D02*
X62992000Y-44196000D01*
X64516000Y-67754500D02*
X64516000Y-65976500D01*
X80645000Y-30797500D02*
X81216500Y-30226000D01*
X64198500Y-61341000D02*
X62453520Y-59596020D01*
X62453520Y-55592980D02*
X62992000Y-55054500D01*
X62453520Y-59596020D02*
X62453520Y-55592980D01*
X68326000Y-61849000D02*
X67818000Y-61341000D01*
X64960500Y-68199000D02*
X64516000Y-67754500D01*
X62992000Y-44196000D02*
X64960500Y-42227500D01*
X73152000Y-30797500D02*
X80645000Y-30797500D01*
X68326000Y-67627500D02*
X67754500Y-68199000D01*
X75819000Y-51689000D02*
X75819000Y-50990500D01*
X75628500Y-51879500D02*
X75819000Y-51689000D01*
X75628500Y-53213000D02*
X75628500Y-51879500D01*
X77216000Y-58356500D02*
X77216000Y-56705500D01*
X75628500Y-55118000D02*
X75628500Y-53213000D01*
X77216000Y-56705500D02*
X75628500Y-55118000D01*
X73152000Y-51689000D02*
X73152000Y-50990500D01*
X74676000Y-58356500D02*
X74676000Y-56451500D01*
X73342500Y-53213000D02*
X73342500Y-51879500D01*
X73342500Y-55118000D02*
X73342500Y-53213000D01*
X74676000Y-56451500D02*
X73342500Y-55118000D01*
X73342500Y-51879500D02*
X73152000Y-51689000D01*
X91376500Y-74993500D02*
X91376500Y-70485000D01*
X91376500Y-74993500D02*
X92900500Y-76517500D01*
X91376500Y-70485000D02*
X90995500Y-70104000D01*
X90995500Y-70104000D02*
X85471000Y-70104000D01*
X84836000Y-65976500D02*
X84836000Y-69469000D01*
X85471000Y-70104000D02*
X84836000Y-69469000D01*
X94170500Y-75247500D02*
X94170500Y-69977000D01*
X94170500Y-69977000D02*
X93726000Y-69532500D01*
X93726000Y-69532500D02*
X87757000Y-69532500D01*
X94170500Y-75247500D02*
X95440500Y-76517500D01*
X87757000Y-69532500D02*
X87376000Y-69151500D01*
X87376000Y-65976500D02*
X87376000Y-69151500D01*
X90487500Y-68961000D02*
X89916000Y-68389500D01*
X96202500Y-68961000D02*
X90487500Y-68961000D01*
X96710500Y-75247500D02*
X97980500Y-76517500D01*
X96710500Y-69469000D02*
X96202500Y-68961000D01*
X96710500Y-69469000D02*
X96710500Y-75247500D01*
X89916000Y-65976500D02*
X89916000Y-68389500D01*
X92964000Y-68389500D02*
X92456000Y-67881500D01*
X98742500Y-68389500D02*
X92964000Y-68389500D01*
X92456000Y-65976500D02*
X92456000Y-67881500D01*
X99250500Y-75247500D02*
X99250500Y-68897500D01*
X99250500Y-75247500D02*
X100520500Y-76517500D01*
X99250500Y-68897500D02*
X98742500Y-68389500D01*
X89916000Y-41211500D02*
X90424000Y-41719500D01*
X89916000Y-40195500D02*
X89916000Y-33274000D01*
X89916000Y-40195500D02*
X89916000Y-41211500D01*
X89916000Y-33274000D02*
X90995500Y-32194500D01*
X89916000Y-58356500D02*
X89916000Y-55816500D01*
X89916000Y-55816500D02*
X90424000Y-55308500D01*
X100520500Y-28257500D02*
X100520500Y-29215080D01*
X105854500Y-37909500D02*
X102489000Y-37909500D01*
X100520500Y-29215080D02*
X97541080Y-32194500D01*
X90424000Y-41719500D02*
X90424000Y-55308500D01*
X90995500Y-32194500D02*
X97541080Y-32194500D01*
X95440500Y-29268420D02*
X95440500Y-28257500D01*
X93720920Y-30988000D02*
X95440500Y-29268420D01*
X88455500Y-30988000D02*
X93720920Y-30988000D01*
X86931500Y-32512000D02*
X86931500Y-46228000D01*
X84836000Y-56959500D02*
X84836000Y-58356500D01*
X86360000Y-55435500D02*
X84836000Y-56959500D01*
X86931500Y-32512000D02*
X88455500Y-30988000D01*
X86931500Y-46228000D02*
X86360000Y-46799500D01*
X86360000Y-46799500D02*
X86360000Y-55435500D01*
X88132920Y-30416500D02*
X86360000Y-32189420D01*
X86360000Y-46037500D02*
X85788500Y-46609000D01*
X85788500Y-46609000D02*
X85788500Y-52832000D01*
X73406000Y-60960000D02*
X73406000Y-69151500D01*
X88132920Y-30416500D02*
X91757500Y-30416500D01*
X85788500Y-52832000D02*
X84836000Y-53784500D01*
X72136000Y-59690000D02*
X73406000Y-60960000D01*
X91757500Y-30416500D02*
X92900500Y-29273500D01*
X92900500Y-29273500D02*
X92900500Y-28257500D01*
X86360000Y-32189420D02*
X86360000Y-46037500D01*
X72136000Y-58356500D02*
X72136000Y-59690000D01*
X85217000Y-46291500D02*
X85217000Y-52070000D01*
X85788500Y-31813500D02*
X85788500Y-45720000D01*
X87757000Y-29845000D02*
X89662000Y-29845000D01*
X90360500Y-29146500D02*
X90360500Y-28257500D01*
X78486000Y-68135500D02*
X78486000Y-64833500D01*
X85217000Y-52070000D02*
X83566000Y-53721000D01*
X85788500Y-31813500D02*
X87757000Y-29845000D01*
X89662000Y-29845000D02*
X90360500Y-29146500D01*
X83185000Y-64008000D02*
X83566000Y-63627000D01*
X78486000Y-64833500D02*
X79311500Y-64008000D01*
X79311500Y-64008000D02*
X83185000Y-64008000D01*
X85788500Y-45720000D02*
X85217000Y-46291500D01*
X83566000Y-53721000D02*
X83566000Y-63627000D01*
X73030080Y-43746420D02*
X73030080Y-32506920D01*
X73030080Y-32506920D02*
X73596500Y-31940500D01*
X85598000Y-28953460D02*
X86293960Y-28257500D01*
X86293960Y-28257500D02*
X87820500Y-28257500D01*
X85598000Y-31115000D02*
X85598000Y-28953460D01*
X84772500Y-31940500D02*
X85598000Y-31115000D01*
X73596500Y-31940500D02*
X84772500Y-31940500D01*
X73030080Y-43746420D02*
X70358000Y-46418500D01*
X68326000Y-47434500D02*
X69342000Y-46418500D01*
X69342000Y-46418500D02*
X70358000Y-46418500D01*
X67056000Y-56832500D02*
X68326000Y-55562500D01*
X67056000Y-58356500D02*
X67056000Y-56832500D01*
X68326000Y-55562500D02*
X68326000Y-47434500D01*
D43*
X54038500Y-54292500D02*
X52514500Y-55816500D01*
X39687500Y-61468000D02*
X39687500Y-63388240D01*
X72580500Y-79311500D02*
X80200500Y-79311500D01*
X38798500Y-66103500D02*
X39687500Y-65214500D01*
X104330500Y-63944500D02*
X104902000Y-63373000D01*
X104330500Y-65278000D02*
X104330500Y-63944500D01*
X26289000Y-55181500D02*
X26289000Y-47498000D01*
X52832000Y-69786500D02*
X54038500Y-70993000D01*
X59690000Y-77470000D02*
X59690000Y-71882000D01*
X57594500Y-54292500D02*
X54038500Y-54292500D01*
X104330500Y-65278000D02*
X101790500Y-65278000D01*
X31369000Y-40449500D02*
X31813500Y-40005000D01*
X58801000Y-55499000D02*
X57594500Y-54292500D01*
X82042000Y-63246000D02*
X82296000Y-62992000D01*
X77216000Y-65976500D02*
X77216000Y-63754000D01*
X39687500Y-65278000D02*
X42608500Y-65278000D01*
X61531500Y-79311500D02*
X72580500Y-79311500D01*
X44069000Y-63817500D02*
X42608500Y-65278000D01*
X31369000Y-41402000D02*
X31369000Y-40449500D01*
X32829500Y-40005000D02*
X31813500Y-40005000D01*
X80200500Y-79311500D02*
X105473500Y-79311500D01*
X42608500Y-67818000D02*
X42608500Y-65278000D01*
X106807000Y-73977500D02*
X107378500Y-74549000D01*
X104902000Y-63373000D02*
X105600500Y-63373000D01*
X107378500Y-74549000D02*
X107378500Y-77406500D01*
X39687500Y-63388240D02*
X39687500Y-65214500D01*
X44069000Y-57975500D02*
X46228000Y-55816500D01*
X44069000Y-57975500D02*
X44069000Y-63817500D01*
X58801000Y-57086500D02*
X58801000Y-55499000D01*
X37782500Y-48577500D02*
X37338000Y-49022000D01*
X52514500Y-55816500D02*
X46228000Y-55816500D01*
X72580500Y-76517500D02*
X72580500Y-79311500D01*
X77216000Y-65976500D02*
X77216000Y-69596000D01*
D45*
X32976820Y-41402000D02*
X32976820Y-40152320D01*
D43*
X38798500Y-66611500D02*
X38798500Y-66103500D01*
X39687500Y-65214500D02*
X39687500Y-65278000D01*
X59690000Y-77470000D02*
X61531500Y-79311500D01*
X28194000Y-57086500D02*
X26289000Y-55181500D01*
X77216000Y-69596000D02*
X80200500Y-72580500D01*
X82296000Y-61722000D02*
X82296000Y-62992000D01*
X77216000Y-63754000D02*
X77724000Y-63246000D01*
X82296000Y-61722000D02*
X82296000Y-58356500D01*
X31369000Y-45339000D02*
X31369000Y-41402000D01*
X52832000Y-60198000D02*
X52832000Y-69786500D01*
X54038500Y-70993000D02*
X58801000Y-70993000D01*
X105600500Y-73977500D02*
X106807000Y-73977500D01*
X58801000Y-70993000D02*
X59690000Y-71882000D01*
X32067500Y-57086500D02*
X28194000Y-57086500D01*
X32976820Y-40152320D02*
X32829500Y-40005000D01*
X27495500Y-78930500D02*
X27495500Y-74231500D01*
X77724000Y-63246000D02*
X82042000Y-63246000D01*
X80200500Y-76517500D02*
X80200500Y-79311500D01*
X30035500Y-41402000D02*
X31369000Y-41402000D01*
X43370500Y-48577500D02*
X37782500Y-48577500D01*
X105473500Y-79311500D02*
X107378500Y-77406500D01*
X80200500Y-76517500D02*
X80200500Y-72580500D01*
D45*
X94170500Y-51562000D02*
X95440500Y-52832000D01*
X83756500Y-33147000D02*
X74739500Y-33147000D01*
X39370000Y-35115500D02*
X49657000Y-35115500D01*
X70866000Y-59563000D02*
X70866000Y-57213500D01*
X69024500Y-47498000D02*
X69532500Y-46990000D01*
X74739500Y-34036000D02*
X73596500Y-35179000D01*
X36868100Y-40297100D02*
X36131500Y-39560500D01*
X36868100Y-41407080D02*
X36868100Y-40297100D01*
X69532500Y-46990000D02*
X70612000Y-46990000D01*
X94170500Y-51562000D02*
X91567000Y-51562000D01*
X72136000Y-65976500D02*
X72136000Y-60833000D01*
X73596500Y-35179000D02*
X73596500Y-44005500D01*
X90995500Y-50990500D02*
X90995500Y-33909000D01*
X70866000Y-57213500D02*
X69024500Y-55372000D01*
X73596500Y-44005500D02*
X70612000Y-46990000D01*
X91567000Y-51562000D02*
X90995500Y-50990500D01*
X74739500Y-33147000D02*
X74739500Y-34036000D01*
X72136000Y-60833000D02*
X70866000Y-59563000D01*
X69024500Y-55372000D02*
X69024500Y-47498000D01*
X65849500Y-34163000D02*
X65849500Y-42989500D01*
X69088000Y-60769500D02*
X64452500Y-60769500D01*
X46609000Y-40703500D02*
X46101000Y-41211500D01*
X62969140Y-55902860D02*
X63563500Y-55308500D01*
X64516000Y-44323000D02*
X65849500Y-42989500D01*
X62969140Y-59286140D02*
X62969140Y-55902860D01*
X44640500Y-42672000D02*
X46101000Y-41211500D01*
X50800000Y-37782500D02*
X47048420Y-37782500D01*
X52197000Y-34734500D02*
X52197000Y-36385500D01*
X63563500Y-55308500D02*
X63563500Y-45275500D01*
X36512500Y-42672000D02*
X44640500Y-42672000D01*
X36217860Y-42377360D02*
X36512500Y-42672000D01*
X64452500Y-60769500D02*
X62969140Y-59286140D01*
X46609000Y-38221920D02*
X46609000Y-40703500D01*
X36217860Y-41407080D02*
X36217860Y-42377360D01*
X69596000Y-61277500D02*
X69088000Y-60769500D01*
X46609000Y-38221920D02*
X47048420Y-37782500D01*
X52197000Y-36385500D02*
X50800000Y-37782500D01*
X63563500Y-45275500D02*
X64516000Y-44323000D01*
X69596000Y-65976500D02*
X69596000Y-61277500D01*
X83121500Y-36830000D02*
X75120500Y-36830000D01*
X35567620Y-44521120D02*
X35567620Y-41407080D01*
X74549000Y-43116500D02*
X74549000Y-37401500D01*
X50228500Y-46101000D02*
X50228500Y-47244000D01*
X83693000Y-37401500D02*
X83121500Y-36830000D01*
X50863500Y-45466000D02*
X59499500Y-45466000D01*
X50863500Y-45466000D02*
X50228500Y-46101000D01*
X59499500Y-45466000D02*
X60452000Y-44513500D01*
X83693000Y-37719000D02*
X83693000Y-37401500D01*
X75120500Y-36830000D02*
X74549000Y-37401500D01*
X38036500Y-46990000D02*
X35567620Y-44521120D01*
X45148500Y-46990000D02*
X38036500Y-46990000D01*
X95885000Y-55689500D02*
X96774000Y-55689500D01*
X97663000Y-54800500D02*
X97663000Y-41402000D01*
X97663000Y-54800500D02*
X96774000Y-55689500D01*
X94996000Y-58356500D02*
X94996000Y-56578500D01*
X94996000Y-56578500D02*
X95885000Y-55689500D01*
X55562500Y-32194500D02*
X52255420Y-32194500D01*
X97663000Y-41402000D02*
X98171000Y-40894000D01*
X34267140Y-39456360D02*
X34267140Y-41407080D01*
X104330500Y-31813500D02*
X104330500Y-30734000D01*
X50106580Y-36634420D02*
X40363140Y-36634420D01*
X34267140Y-39456360D02*
X36073080Y-37650420D01*
X50543460Y-36197540D02*
X50106580Y-36634420D01*
X107632500Y-39751000D02*
X106489500Y-40894000D01*
X39347140Y-37650420D02*
X40363140Y-36634420D01*
X104330500Y-30734000D02*
X105600500Y-29464000D01*
X50543460Y-33906460D02*
X50543460Y-36197540D01*
X107632500Y-33845500D02*
X107632500Y-39751000D01*
X36073080Y-37650420D02*
X39347140Y-37650420D01*
X105600500Y-31813500D02*
X107632500Y-33845500D01*
X98742500Y-33337500D02*
X100520500Y-33337500D01*
X100520500Y-33337500D02*
X102044500Y-31813500D01*
X104330500Y-31813500D02*
X105600500Y-31813500D01*
X97980500Y-35052000D02*
X97980500Y-34099500D01*
X52255420Y-32194500D02*
X50543460Y-33906460D01*
X98171000Y-40894000D02*
X106489500Y-40894000D01*
X97980500Y-34099500D02*
X98742500Y-33337500D01*
X56388000Y-31369000D02*
X56388000Y-26289000D01*
X55562500Y-32194500D02*
X56388000Y-31369000D01*
X105600500Y-29464000D02*
X105600500Y-28257500D01*
D44*
X26162000Y-38100000D02*
X26162000Y-45910500D01*
D45*
X27495500Y-39116000D02*
X26797000Y-39814500D01*
D43*
X30353000Y-38100000D02*
X31432500Y-37020500D01*
D45*
X29083000Y-48387000D02*
X29083000Y-48323500D01*
X33718500Y-37084000D02*
X31686500Y-39116000D01*
D43*
X30035500Y-33655000D02*
X30797500Y-33655000D01*
X27813000Y-50990500D02*
X27813000Y-47561500D01*
X30797500Y-33655000D02*
X31432500Y-34290000D01*
D45*
X26797000Y-39814500D02*
X26797000Y-45085000D01*
D43*
X31432500Y-37084000D02*
X32639000Y-37084000D01*
D44*
X32639000Y-37084000D02*
X32966660Y-36756340D01*
D45*
X29083000Y-48387000D02*
X29083000Y-47371000D01*
D43*
X31432500Y-37020500D02*
X31432500Y-34290000D01*
D45*
X29083000Y-54038500D02*
X29083000Y-52514500D01*
X38036500Y-37084000D02*
X33718500Y-37084000D01*
D43*
X30353000Y-38100000D02*
X26162000Y-38100000D01*
X26162000Y-31242000D02*
X27178000Y-30226000D01*
D45*
X29083000Y-52514500D02*
X27813000Y-52514500D01*
X38168580Y-36951920D02*
X38036500Y-37084000D01*
D43*
X26162000Y-38100000D02*
X26162000Y-31242000D01*
D45*
X32966660Y-36756340D02*
X32966660Y-35808920D01*
X31686500Y-39116000D02*
X27495500Y-39116000D01*
D43*
X27813000Y-52514500D02*
X27813000Y-50990500D01*
D45*
X38168580Y-35808920D02*
X38168580Y-36951920D01*
D43*
X27813000Y-47561500D02*
X26162000Y-45910500D01*
D45*
X29083000Y-52514500D02*
X29083000Y-48387000D01*
X29083000Y-48323500D02*
X30670500Y-48323500D01*
X29083000Y-47371000D02*
X26797000Y-45085000D01*
D43*
X31432500Y-37084000D02*
X31432500Y-37020500D01*
D45*
X36868100Y-35808920D02*
X36868100Y-33489900D01*
X36868100Y-33489900D02*
X37147500Y-33210500D01*
X37147500Y-33210500D02*
X49593500Y-33210500D01*
X49593500Y-33210500D02*
X52578000Y-30226000D01*
X36893500Y-32639000D02*
X47625000Y-32639000D01*
X36217860Y-33314640D02*
X36893500Y-32639000D01*
X36217860Y-35808920D02*
X36217860Y-33314640D01*
X47625000Y-32639000D02*
X50038000Y-30226000D01*
X35567620Y-32948880D02*
X36512500Y-32004000D01*
X35567620Y-35808920D02*
X35567620Y-32948880D01*
X38608000Y-31369000D02*
X38608000Y-28956000D01*
X37973000Y-32004000D02*
X38608000Y-31369000D01*
X38608000Y-28956000D02*
X39878000Y-27686000D01*
X36512500Y-32004000D02*
X37973000Y-32004000D01*
X34917380Y-32646620D02*
X36068000Y-31496000D01*
X36068000Y-31496000D02*
X36068000Y-28956000D01*
X36068000Y-28956000D02*
X37338000Y-27686000D01*
X34917380Y-35808920D02*
X34917380Y-32646620D01*
X52001420Y-31628080D02*
X49403000Y-34226500D01*
X37518340Y-34744660D02*
X38036500Y-34226500D01*
X37518340Y-35808920D02*
X37518340Y-34744660D01*
X38036500Y-34226500D02*
X49403000Y-34226500D01*
X53715920Y-31628080D02*
X55118000Y-30226000D01*
X53715920Y-31628080D02*
X52001420Y-31628080D01*
X32258000Y-30226000D02*
X32258000Y-31877000D01*
X32258000Y-31877000D02*
X33616900Y-33235900D01*
X33616900Y-35808920D02*
X33616900Y-33235900D01*
X32316420Y-35808920D02*
X32316420Y-32824420D01*
X32316420Y-32824420D02*
X29718000Y-30226000D01*
X34267140Y-35808920D02*
X34267140Y-32489140D01*
X34267140Y-32489140D02*
X33528000Y-31750000D01*
X33528000Y-28956000D02*
X34798000Y-27686000D01*
X33528000Y-31750000D02*
X33528000Y-28956000D01*
X71628000Y-55880000D02*
X72136000Y-56388000D01*
X83502500Y-51625500D02*
X83502500Y-47434500D01*
X71628000Y-48130460D02*
X73276460Y-46482000D01*
X69278500Y-45529500D02*
X69278500Y-33147000D01*
X70929500Y-51689000D02*
X71628000Y-51689000D01*
X59372500Y-50228500D02*
X58864500Y-49720500D01*
X37518340Y-41407080D02*
X37518340Y-39507160D01*
X69278500Y-33147000D02*
X71056500Y-31369000D01*
X75438000Y-46482000D02*
X73276460Y-46482000D01*
X59372500Y-53213000D02*
X59372500Y-50228500D01*
X76898500Y-46990000D02*
X83058000Y-46990000D01*
X37518340Y-39507160D02*
X38290500Y-38735000D01*
X71628000Y-51689000D02*
X71628000Y-55880000D01*
X73406000Y-59626500D02*
X73406000Y-56832500D01*
X73406000Y-56832500D02*
X72961500Y-56388000D01*
X50800000Y-49720500D02*
X58864500Y-49720500D01*
X83502500Y-47434500D02*
X83058000Y-46990000D01*
X76390500Y-46482000D02*
X76898500Y-46990000D01*
X74676000Y-60896500D02*
X73406000Y-59626500D01*
X71056500Y-28257500D02*
X71056500Y-31369000D01*
X75438000Y-46482000D02*
X76390500Y-46482000D01*
X74676000Y-65976500D02*
X74676000Y-60896500D01*
X71628000Y-48130460D02*
X71628000Y-51689000D01*
X38290500Y-38735000D02*
X45720000Y-38735000D01*
X72961500Y-56388000D02*
X72136000Y-56388000D01*
X88646000Y-62801500D02*
X88646000Y-55880000D01*
X62547500Y-29464000D02*
X61277500Y-29464000D01*
X106807000Y-61849000D02*
X99250500Y-61849000D01*
X107315000Y-62357000D02*
X106807000Y-61849000D01*
X107315000Y-66484500D02*
X107315000Y-62357000D01*
X99250500Y-61849000D02*
X97536000Y-63563500D01*
X97536000Y-63563500D02*
X89408000Y-63563500D01*
X60896500Y-29083000D02*
X61277500Y-29464000D01*
X60896500Y-28257500D02*
X60896500Y-29083000D01*
X104330500Y-75247500D02*
X104330500Y-67183000D01*
X89789000Y-54737000D02*
X88646000Y-55880000D01*
X89789000Y-54737000D02*
X89789000Y-42100500D01*
X45593000Y-50165000D02*
X41402000Y-50165000D01*
X46609000Y-49149000D02*
X46609000Y-44005500D01*
X88709500Y-41021000D02*
X88709500Y-34290000D01*
X40957500Y-50609500D02*
X40957500Y-54086760D01*
X45593000Y-50165000D02*
X46609000Y-49149000D01*
X64198500Y-31115000D02*
X62547500Y-29464000D01*
X64198500Y-36322000D02*
X64198500Y-31115000D01*
X41402000Y-50165000D02*
X40957500Y-50609500D01*
X106616500Y-67183000D02*
X107315000Y-66484500D01*
X104330500Y-67183000D02*
X106616500Y-67183000D01*
X48737520Y-41876980D02*
X51308000Y-39306500D01*
X51308000Y-39306500D02*
X51562000Y-39052500D01*
X51308000Y-39306500D02*
X51308000Y-39306500D01*
X46609000Y-44005500D02*
X48737520Y-41876980D01*
X89789000Y-42100500D02*
X88709500Y-41021000D01*
X33616900Y-41402000D02*
X33616900Y-39522400D01*
X97536000Y-65976500D02*
X97536000Y-63563500D01*
X89408000Y-63563500D02*
X88646000Y-62801500D01*
X33616900Y-39522400D02*
X33591500Y-39497000D01*
X33591500Y-39497000D02*
X33591500Y-38608000D01*
X104330500Y-75247500D02*
X105600500Y-76517500D01*
X54038500Y-39052500D02*
X51562000Y-39052500D01*
X94996000Y-65976500D02*
X94996000Y-67373500D01*
X94996000Y-67373500D02*
X95440500Y-67818000D01*
X95440500Y-67818000D02*
X99822000Y-67818000D01*
X100457000Y-67183000D02*
X99822000Y-67818000D01*
X101790500Y-67183000D02*
X100457000Y-67183000D01*
X70866000Y-60833000D02*
X70866000Y-71120000D01*
X101790500Y-67183000D02*
X101790500Y-75247500D01*
X65087500Y-31051500D02*
X63436500Y-29400500D01*
X62103000Y-30670500D02*
X62103000Y-33845500D01*
X34925000Y-44831000D02*
X37625020Y-47531020D01*
X64706500Y-47952660D02*
X66738500Y-45920660D01*
X101790500Y-75247500D02*
X103060500Y-76517500D01*
X34925000Y-43497500D02*
X34925000Y-44831000D01*
X46037500Y-48831500D02*
X46037500Y-48133000D01*
X39687500Y-54086760D02*
X39687500Y-50609500D01*
X39687500Y-50609500D02*
X40736520Y-49560480D01*
X46037500Y-44513500D02*
X46037500Y-48133000D01*
X53213000Y-33845500D02*
X53213000Y-36385500D01*
X45308520Y-49560480D02*
X46037500Y-48831500D01*
X44894500Y-48133000D02*
X46037500Y-48133000D01*
X37625020Y-47531020D02*
X44292520Y-47531020D01*
X32316420Y-41407080D02*
X32316420Y-42603420D01*
X44292520Y-47531020D02*
X44894500Y-48133000D01*
X32316420Y-42603420D02*
X32702500Y-42989500D01*
X34417000Y-42989500D02*
X34925000Y-43497500D01*
X66167000Y-31051500D02*
X65087500Y-31051500D01*
X46037500Y-44513500D02*
X46037500Y-43815000D01*
X46037500Y-43815000D02*
X53213000Y-36639500D01*
X53213000Y-36639500D02*
X53213000Y-36385500D01*
X45308520Y-49560480D02*
X40736520Y-49560480D01*
X63436500Y-29400500D02*
X63436500Y-28257500D01*
X70866000Y-60833000D02*
X70231000Y-60198000D01*
X66738500Y-31623000D02*
X66167000Y-31051500D01*
X70231000Y-60198000D02*
X66294000Y-60198000D01*
X77343000Y-71501000D02*
X71247000Y-71501000D01*
X65786000Y-59690000D02*
X65786000Y-57086500D01*
X70866000Y-71120000D02*
X71247000Y-71501000D01*
X65786000Y-57086500D02*
X64706500Y-56007000D01*
X66294000Y-60198000D02*
X65786000Y-59690000D01*
X32702500Y-42989500D02*
X34417000Y-42989500D01*
X64706500Y-56007000D02*
X64706500Y-47952660D01*
X66738500Y-45920660D02*
X66738500Y-31623000D01*
X92456000Y-55123080D02*
X93159580Y-54419500D01*
X92456000Y-58356500D02*
X92456000Y-55123080D01*
X96205040Y-54419500D02*
X97028000Y-53596540D01*
X93159580Y-54419500D02*
X96205040Y-54419500D01*
X102679500Y-25908000D02*
X103060500Y-26289000D01*
X36322000Y-38163500D02*
X34917380Y-39568120D01*
X51181000Y-36512500D02*
X50482500Y-37211000D01*
X52514500Y-32766000D02*
X51181000Y-34099500D01*
X40513000Y-37211000D02*
X39560500Y-38163500D01*
X59372500Y-32004000D02*
X59372500Y-26352500D01*
X58610500Y-32766000D02*
X52514500Y-32766000D01*
X103695500Y-33020000D02*
X105854500Y-33020000D01*
X39560500Y-38163500D02*
X36322000Y-38163500D01*
X103060500Y-26289000D02*
X103060500Y-28257500D01*
X59817000Y-25908000D02*
X102679500Y-25908000D01*
X50482500Y-37211000D02*
X40513000Y-37211000D01*
X51181000Y-34099500D02*
X51181000Y-36512500D01*
X34917380Y-41407080D02*
X34917380Y-39568120D01*
X59372500Y-26352500D02*
X59817000Y-25908000D01*
X105854500Y-33020000D02*
X107061000Y-34226500D01*
X96012000Y-32766000D02*
X99504500Y-32766000D01*
X106235500Y-40322500D02*
X97917000Y-40322500D01*
X103060500Y-32385000D02*
X103695500Y-33020000D01*
X103060500Y-30734000D02*
X101536500Y-30734000D01*
X58610500Y-32766000D02*
X59372500Y-32004000D01*
X103060500Y-28257500D02*
X103060500Y-30734000D01*
X99504500Y-32766000D02*
X101536500Y-30734000D01*
X97028000Y-41211500D02*
X97917000Y-40322500D01*
X107061000Y-39497000D02*
X106235500Y-40322500D01*
X95440500Y-35052000D02*
X95440500Y-33337500D01*
X107061000Y-34226500D02*
X107061000Y-39497000D01*
X97028000Y-53596540D02*
X97028000Y-41211500D01*
X95440500Y-33337500D02*
X96012000Y-32766000D01*
X103060500Y-30734000D02*
X103060500Y-32385000D01*
X44513500Y-45275500D02*
X44005500Y-45783500D01*
X44513500Y-44894500D02*
X44513500Y-45275500D01*
X44005500Y-45783500D02*
X38163500Y-45783500D01*
X78232000Y-30226000D02*
X78676500Y-29781500D01*
X78676500Y-29781500D02*
X78676500Y-28257500D01*
X54102000Y-44513500D02*
X54102000Y-43053000D01*
X61937900Y-55283100D02*
X62420500Y-54800500D01*
X62420500Y-54800500D02*
X62420500Y-42672000D01*
X54483000Y-42672000D02*
X54102000Y-43053000D01*
X66675000Y-61912500D02*
X64008000Y-61912500D01*
X61937900Y-59842400D02*
X64008000Y-61912500D01*
X67056000Y-62293500D02*
X66675000Y-61912500D01*
X62420500Y-42672000D02*
X54483000Y-42672000D01*
X62420500Y-42672000D02*
X63754000Y-41338500D01*
X72961500Y-30226000D02*
X78232000Y-30226000D01*
X70675500Y-32512000D02*
X72961500Y-30226000D01*
X70675500Y-41338500D02*
X70675500Y-32512000D01*
X67056000Y-65976500D02*
X67056000Y-62293500D01*
X61937900Y-59842400D02*
X61937900Y-55283100D01*
D43*
X48079660Y-45011340D02*
X48079660Y-50091340D01*
X62484000Y-38862000D02*
X61531500Y-39814500D01*
X64198500Y-38862000D02*
X62484000Y-38862000D01*
X61531500Y-39814500D02*
X61531500Y-41142920D01*
X46037500Y-52133500D02*
X48079660Y-50091340D01*
X60827920Y-41846500D02*
X51244500Y-41846500D01*
X61531500Y-41142920D02*
X60827920Y-41846500D01*
X51244500Y-41846500D02*
X48079660Y-45011340D01*
X43116500Y-52133500D02*
X46037500Y-52133500D01*
X31242000Y-69151500D02*
X35052000Y-69151500D01*
D45*
X30513020Y-69880480D02*
X29527500Y-69880480D01*
D43*
X30513020Y-69880480D02*
X31242000Y-69151500D01*
X51816000Y-54737000D02*
X51816000Y-53340000D01*
X52260500Y-52895500D02*
X57404000Y-52895500D01*
X60261500Y-57086500D02*
X60261500Y-55753000D01*
X57404000Y-52895500D02*
X60261500Y-55753000D01*
X45910500Y-54737000D02*
X51816000Y-54737000D01*
X43180000Y-60706000D02*
X42291000Y-61595000D01*
X45910500Y-54737000D02*
X43180000Y-57467500D01*
X51816000Y-53340000D02*
X52260500Y-52895500D01*
X43180000Y-57467500D02*
X43180000Y-60706000D01*
X62547500Y-68199000D02*
X66675000Y-72326500D01*
X62547500Y-62230000D02*
X62547500Y-68199000D01*
X66675000Y-72326500D02*
X68199000Y-72326500D01*
D45*
X26352500Y-62230000D02*
X26352500Y-60515500D01*
X40957500Y-63388240D02*
X40957500Y-60325000D01*
X40957500Y-60325000D02*
X40386000Y-59753500D01*
X26352500Y-60515500D02*
X27114500Y-59753500D01*
X40386000Y-59753500D02*
X27114500Y-59753500D01*
D43*
X42382440Y-50835560D02*
X42100500Y-51117500D01*
X47279560Y-44414440D02*
X51371500Y-40322500D01*
X47279560Y-49692560D02*
X46136560Y-50835560D01*
X41224200Y-56438800D02*
X42100500Y-55562500D01*
X42100500Y-51117500D02*
X42100500Y-55562500D01*
X46136560Y-50835560D02*
X42382440Y-50835560D01*
X38417500Y-50673000D02*
X38354000Y-50609500D01*
X51371500Y-40322500D02*
X57404000Y-40322500D01*
X38417500Y-55626000D02*
X39230300Y-56438800D01*
X57404000Y-35179000D02*
X57404000Y-40322500D01*
X59309000Y-40322500D02*
X57404000Y-40322500D01*
X38417500Y-54086760D02*
X38417500Y-55626000D01*
X38417500Y-54086760D02*
X38417500Y-50673000D01*
X39230300Y-56438800D02*
X41224200Y-56438800D01*
X47279560Y-49692560D02*
X47279560Y-44414440D01*
D45*
X49530000Y-78105000D02*
X50800000Y-79375000D01*
X42481500Y-70167500D02*
X40703500Y-68389500D01*
X43370500Y-78105000D02*
X49530000Y-78105000D01*
X42481500Y-77216000D02*
X43370500Y-78105000D01*
X42481500Y-70167500D02*
X42481500Y-77216000D01*
X37846000Y-60325000D02*
X28448000Y-60325000D01*
X40703500Y-67818000D02*
X40703500Y-68389500D01*
X28003500Y-62230000D02*
X28003500Y-60769500D01*
X38417500Y-63388240D02*
X38417500Y-65087500D01*
X38417500Y-63388240D02*
X38417500Y-60896500D01*
X88836500Y-31559500D02*
X87757000Y-32639000D01*
X89154000Y-42354500D02*
X87757000Y-40957500D01*
X87376000Y-58356500D02*
X87376000Y-56070500D01*
X88836500Y-31559500D02*
X95686880Y-31559500D01*
X89154000Y-54292500D02*
X87376000Y-56070500D01*
X95686880Y-31559500D02*
X97980500Y-29265880D01*
X38417500Y-60896500D02*
X37846000Y-60325000D01*
X89154000Y-42354500D02*
X89154000Y-54292500D01*
X38608000Y-67818000D02*
X37846000Y-67056000D01*
X28448000Y-60325000D02*
X28003500Y-60769500D01*
X87757000Y-40957500D02*
X87757000Y-32639000D01*
X38417500Y-65087500D02*
X37846000Y-65659000D01*
X97980500Y-29265880D02*
X97980500Y-28257500D01*
X40703500Y-67818000D02*
X38608000Y-67818000D01*
X37846000Y-65659000D02*
X37846000Y-67056000D01*
X29654500Y-62230000D02*
X29654500Y-61150500D01*
X37147500Y-63388240D02*
X37147500Y-61214000D01*
X29908500Y-60896500D02*
X29654500Y-61150500D01*
X36830000Y-60896500D02*
X29908500Y-60896500D01*
X37147500Y-61214000D02*
X36830000Y-60896500D01*
D43*
X109093000Y-33147000D02*
X108331000Y-33147000D01*
X108331000Y-33147000D02*
X106045000Y-30861000D01*
X68516500Y-28257500D02*
X68516500Y-30797500D01*
X39560500Y-39624000D02*
X38608000Y-39624000D01*
X39878000Y-41021000D02*
X39878000Y-39941500D01*
X39491920Y-41407080D02*
X39878000Y-41021000D01*
X68516500Y-30797500D02*
X68262500Y-31051500D01*
X32067500Y-63388240D02*
X33337500Y-63388240D01*
X32575500Y-49530000D02*
X33337500Y-50292000D01*
X26987500Y-65405000D02*
X26860500Y-65278000D01*
X68262500Y-31051500D02*
X68262500Y-46482000D01*
X29527500Y-66738500D02*
X29273500Y-66484500D01*
X74422000Y-48958500D02*
X75819000Y-48958500D01*
X46418500Y-56832500D02*
X45720000Y-57531000D01*
X45720000Y-57531000D02*
X45720000Y-61595000D01*
X79756000Y-56832500D02*
X77597000Y-54673500D01*
X66103500Y-48641000D02*
X66103500Y-53784500D01*
X103060500Y-35052000D02*
X103060500Y-36068000D01*
X57404000Y-55943500D02*
X53975000Y-55943500D01*
X32575500Y-46545500D02*
X30289500Y-46545500D01*
X42862500Y-79375000D02*
X40830500Y-77343000D01*
X42164000Y-58483500D02*
X37338000Y-58483500D01*
X33909000Y-46545500D02*
X32575500Y-46545500D01*
D45*
X38168580Y-41407080D02*
X39491920Y-41407080D01*
D43*
X39878000Y-39941500D02*
X39560500Y-39624000D01*
X29273500Y-66484500D02*
X29273500Y-65405000D01*
X40830500Y-77343000D02*
X36449000Y-77343000D01*
X45720000Y-61595000D02*
X45720000Y-64135000D01*
X30988000Y-28956000D02*
X32258000Y-27686000D01*
X45720000Y-66675000D02*
X45720000Y-69215000D01*
X68262500Y-46482000D02*
X66103500Y-48641000D01*
X105600500Y-35052000D02*
X103060500Y-35052000D01*
X32575500Y-48323500D02*
X32575500Y-46545500D01*
X53975000Y-55943500D02*
X53086000Y-56832500D01*
X29273500Y-71755000D02*
X26987500Y-71755000D01*
X31242000Y-54102000D02*
X31257240Y-54086760D01*
X36449000Y-77343000D02*
X33972500Y-77343000D01*
X26860500Y-67373500D02*
X26860500Y-69786500D01*
X29273500Y-65405000D02*
X26987500Y-65405000D01*
X66103500Y-53784500D02*
X67437000Y-55118000D01*
X103060500Y-36068000D02*
X102362000Y-36766500D01*
X31257240Y-54086760D02*
X32067500Y-54086760D01*
X30289500Y-46545500D02*
X28003500Y-44259500D01*
X73152000Y-48958500D02*
X74422000Y-48958500D01*
X65913000Y-74930000D02*
X67691000Y-74930000D01*
X79756000Y-58356500D02*
X79756000Y-56832500D01*
X36322000Y-50609500D02*
X35179000Y-50609500D01*
X28003500Y-33655000D02*
X28003500Y-35814000D01*
X45720000Y-71755000D02*
X45720000Y-74295000D01*
X68199000Y-74422000D02*
X67691000Y-74930000D01*
D44*
X28765500Y-28956000D02*
X30988000Y-28956000D01*
D43*
X80264000Y-61722000D02*
X80264000Y-60706000D01*
X36449000Y-67818000D02*
X34417000Y-65786000D01*
X57404000Y-61087000D02*
X57404000Y-55943500D01*
X28448000Y-29273500D02*
X28765500Y-28956000D01*
X26860500Y-71882000D02*
X26860500Y-69786500D01*
X34607500Y-54086760D02*
X33337500Y-54086760D01*
X31940500Y-55943500D02*
X34798000Y-55943500D01*
X31686500Y-65786000D02*
X34417000Y-65786000D01*
X30988000Y-63627000D02*
X30988000Y-65087500D01*
X33337500Y-54086760D02*
X33337500Y-50990500D01*
X30353000Y-50990500D02*
X30353000Y-52514500D01*
X32575500Y-48323500D02*
X32575500Y-49530000D01*
X85280500Y-76517500D02*
X84010500Y-76517500D01*
X33337500Y-54086760D02*
X32067500Y-54086760D01*
X31242000Y-55245000D02*
X31940500Y-55943500D01*
X34798000Y-50990500D02*
X35179000Y-50609500D01*
X92900500Y-37909500D02*
X92900500Y-47752000D01*
X94043500Y-36766500D02*
X92900500Y-37909500D01*
X33337500Y-50990500D02*
X34798000Y-50990500D01*
X33337500Y-50292000D02*
X33337500Y-50990500D01*
X37147500Y-54086760D02*
X35877500Y-54086760D01*
X28003500Y-32004000D02*
X28448000Y-31559500D01*
X45720000Y-79375000D02*
X42862500Y-79375000D01*
X32893000Y-76263500D02*
X31305500Y-76263500D01*
X76390500Y-74422000D02*
X68199000Y-74422000D01*
X82296000Y-65976500D02*
X82296000Y-71437500D01*
X30988000Y-65087500D02*
X31686500Y-65786000D01*
X31242000Y-54102000D02*
X31242000Y-55245000D01*
X35877500Y-54086760D02*
X34607500Y-54086760D01*
X30353000Y-50990500D02*
X33337500Y-50990500D01*
X45720000Y-64135000D02*
X45720000Y-66675000D01*
X26860500Y-67373500D02*
X26860500Y-65278000D01*
X74485500Y-48958500D02*
X74422000Y-48958500D01*
X31226760Y-63388240D02*
X30988000Y-63627000D01*
X64960500Y-74930000D02*
X65913000Y-74930000D01*
X31305500Y-78930500D02*
X31305500Y-76263500D01*
X33337500Y-63388240D02*
X34607500Y-63388240D01*
X84010500Y-73152000D02*
X82296000Y-71437500D01*
X28003500Y-41402000D02*
X28003500Y-44259500D01*
X53086000Y-56832500D02*
X46418500Y-56832500D01*
X80264000Y-60706000D02*
X79756000Y-60198000D01*
X33972500Y-77343000D02*
X32893000Y-76263500D01*
X29273500Y-71755000D02*
X29273500Y-74231500D01*
X45720000Y-69215000D02*
X45720000Y-71755000D01*
D44*
X28448000Y-31559500D02*
X28448000Y-29273500D01*
D43*
X31305500Y-76263500D02*
X29273500Y-74231500D01*
X33274000Y-72263000D02*
X36449000Y-72263000D01*
X36449000Y-72263000D02*
X36449000Y-67818000D01*
X45720000Y-74295000D02*
X45720000Y-76835000D01*
X84010500Y-76517500D02*
X82740500Y-76517500D01*
X28003500Y-33655000D02*
X28003500Y-32004000D01*
X74485500Y-47688500D02*
X74485500Y-48958500D01*
D44*
X29527500Y-67279520D02*
X29527500Y-66738500D01*
D43*
X102362000Y-36766500D02*
X94043500Y-36766500D01*
X28003500Y-35814000D02*
X28067000Y-35877500D01*
X32067500Y-63388240D02*
X31226760Y-63388240D01*
X79756000Y-58356500D02*
X79756000Y-60198000D01*
X26987500Y-71755000D02*
X26860500Y-71882000D01*
X84010500Y-73152000D02*
X84010500Y-76517500D01*
X65913000Y-74930000D02*
X65913000Y-76708000D01*
X34798000Y-55943500D02*
X37338000Y-58483500D01*
X35877500Y-63388240D02*
X34607500Y-63388240D01*
X36449000Y-77343000D02*
X36449000Y-72263000D01*
X70612000Y-48069500D02*
X70612000Y-49530000D01*
X77025500Y-73342500D02*
X65849500Y-73342500D01*
X84074000Y-43942000D02*
X83566000Y-44450000D01*
X90614500Y-75946000D02*
X90995500Y-76327000D01*
X83566000Y-44450000D02*
X74231500Y-44450000D01*
X89535000Y-71437500D02*
X90614500Y-72517000D01*
X61277500Y-47371000D02*
X60325000Y-46418500D01*
X50292000Y-57848500D02*
X49530000Y-58610500D01*
X84772500Y-43942000D02*
X84074000Y-43942000D01*
X36827460Y-43522900D02*
X43243500Y-43522900D01*
X43243500Y-44894500D02*
X43243500Y-43522900D01*
X61277500Y-66230500D02*
X54800500Y-66230500D01*
X90614500Y-72517000D02*
X90614500Y-75946000D01*
X43243500Y-43522900D02*
X45382180Y-43522900D01*
X86296500Y-71437500D02*
X89535000Y-71437500D01*
X60325000Y-46418500D02*
X54102000Y-46418500D01*
X53975000Y-65405000D02*
X53975000Y-58610500D01*
X61277500Y-54102000D02*
X61277500Y-47371000D01*
X87820500Y-43942000D02*
X87820500Y-47752000D01*
X61277500Y-66167000D02*
X61277500Y-66230500D01*
X53975000Y-58610500D02*
X53213000Y-57848500D01*
X53213000Y-57848500D02*
X50292000Y-57848500D01*
X77660500Y-76517500D02*
X77660500Y-73977500D01*
X61277500Y-68770500D02*
X65849500Y-73342500D01*
X47625000Y-41280080D02*
X45382180Y-43522900D01*
X47625000Y-38671500D02*
X47625000Y-41280080D01*
X54800500Y-66230500D02*
X53975000Y-65405000D01*
X74231500Y-44450000D02*
X70612000Y-48069500D01*
X61277500Y-54102000D02*
X61277500Y-66167000D01*
X61277500Y-66167000D02*
X61277500Y-68770500D01*
X77025500Y-73342500D02*
X77660500Y-73977500D01*
D45*
X56388000Y-47561500D02*
X51689000Y-47561500D01*
X51689000Y-47561500D02*
X49530000Y-49720500D01*
G36*
X31336142Y-61742758D02*
X31121788Y-61957112D01*
X31005780Y-62237179D01*
X31005780Y-63058040D01*
X31196280Y-63248540D01*
X31927800Y-63248540D01*
X31927800Y-63228540D01*
X32207200Y-63228540D01*
X32207200Y-63248540D01*
X33197800Y-63248540D01*
X33197800Y-63228540D01*
X33477200Y-63228540D01*
X33477200Y-63248540D01*
X34467800Y-63248540D01*
X34467800Y-63228540D01*
X34747200Y-63228540D01*
X34747200Y-63248540D01*
X35737800Y-63248540D01*
X35737800Y-63228540D01*
X36017200Y-63228540D01*
X36017200Y-63248540D01*
X36037200Y-63248540D01*
X36037200Y-63527940D01*
X36017200Y-63527940D01*
X36017200Y-64959230D01*
X36207700Y-65149730D01*
X36328791Y-65149730D01*
X36608858Y-65033722D01*
X36647562Y-64995018D01*
X36847780Y-65035170D01*
X37392200Y-65035170D01*
X37307185Y-65120185D01*
X37142004Y-65367395D01*
X37084000Y-65659000D01*
X37084000Y-67056000D01*
X37142004Y-67347605D01*
X37278001Y-67551138D01*
X37307185Y-67594815D01*
X38069185Y-68356816D01*
X38203584Y-68446618D01*
X38316395Y-68521996D01*
X38608000Y-68580000D01*
X39408284Y-68580000D01*
X39452797Y-68809423D01*
X39592587Y-69022227D01*
X39803620Y-69164677D01*
X40053260Y-69214740D01*
X40451110Y-69214740D01*
X40565930Y-69329560D01*
X37846000Y-69329560D01*
X37603877Y-69376537D01*
X37391073Y-69516327D01*
X37248623Y-69727360D01*
X37198560Y-69977000D01*
X37198560Y-74549000D01*
X37245537Y-74791123D01*
X37385327Y-75003927D01*
X37536345Y-75105866D01*
X37350700Y-75057000D01*
X36588700Y-75057000D01*
X36588700Y-77203300D01*
X39301838Y-77203300D01*
X39442781Y-76848079D01*
X39376450Y-76597251D01*
X38926229Y-75825336D01*
X38214880Y-75284472D01*
X37880441Y-75196440D01*
X40894000Y-75196440D01*
X41136123Y-75149463D01*
X41348927Y-75009673D01*
X41491377Y-74798640D01*
X41541440Y-74549000D01*
X41541440Y-70305071D01*
X41719500Y-70483131D01*
X41719500Y-77216000D01*
X41777504Y-77507605D01*
X41906813Y-77701129D01*
X41942685Y-77754815D01*
X42831685Y-78643815D01*
X43078895Y-78808996D01*
X43370500Y-78867000D01*
X44283156Y-78867000D01*
X44182584Y-79149568D01*
X44213344Y-79755071D01*
X44385881Y-80171616D01*
X44662252Y-80235182D01*
X45522434Y-79375000D01*
X45508292Y-79360858D01*
X45705858Y-79163292D01*
X45720000Y-79177434D01*
X45734142Y-79163292D01*
X45931708Y-79360858D01*
X45917566Y-79375000D01*
X46777748Y-80235182D01*
X47054119Y-80171616D01*
X47064985Y-80141088D01*
X47074990Y-80165303D01*
X47388595Y-80479456D01*
X47408893Y-80581500D01*
X46545969Y-80581500D01*
X46580182Y-80432748D01*
X45720000Y-79572566D01*
X44859818Y-80432748D01*
X44894031Y-80581500D01*
X32732380Y-80581500D01*
X32840492Y-80473388D01*
X32956500Y-80193321D01*
X32956500Y-79260700D01*
X32766000Y-79070200D01*
X31445200Y-79070200D01*
X31445200Y-79090200D01*
X31165800Y-79090200D01*
X31165800Y-79070200D01*
X29845000Y-79070200D01*
X29654500Y-79260700D01*
X29654500Y-80193321D01*
X29770508Y-80473388D01*
X29878620Y-80581500D01*
X28719047Y-80581500D01*
X28839427Y-80502423D01*
X28981877Y-80291390D01*
X29031940Y-80041750D01*
X29031940Y-78860664D01*
X33971771Y-78860664D01*
X34683120Y-79401528D01*
X35547300Y-79629000D01*
X36309300Y-79629000D01*
X36309300Y-77482700D01*
X36588700Y-77482700D01*
X36309300Y-77482700D01*
X36309300Y-77482700D01*
X36588700Y-77482700D01*
X36588700Y-79629000D01*
X37350700Y-79629000D01*
X38214880Y-79401528D01*
X38926229Y-78860664D01*
X39376450Y-78088749D01*
X39442781Y-77837921D01*
X39301838Y-77482700D01*
X36588700Y-77482700D01*
X36309300Y-77482700D01*
X36309300Y-77482700D01*
X33596162Y-77482700D01*
X32879879Y-77482700D01*
X32840492Y-77387612D01*
X32626138Y-77173258D01*
X32346071Y-77057250D01*
X31635700Y-77057250D01*
X31445200Y-77247750D01*
X31445200Y-78790800D01*
X32766000Y-78790800D01*
X32956500Y-78600300D01*
X32956500Y-77667679D01*
X32879879Y-77482700D01*
X33596162Y-77482700D01*
X32879879Y-77482700D01*
X32879879Y-77482700D01*
X33596162Y-77482700D01*
X33455219Y-77837921D01*
X33521550Y-78088749D01*
X33971771Y-78860664D01*
X29031940Y-78860664D01*
X29031940Y-77819250D01*
X28984963Y-77577127D01*
X28845173Y-77364323D01*
X28634140Y-77221873D01*
X28384500Y-77171810D01*
X28384500Y-77057250D01*
X30264929Y-77057250D01*
X29984862Y-77173258D01*
X29770508Y-77387612D01*
X29654500Y-77667679D01*
X29654500Y-78600300D01*
X29845000Y-78790800D01*
X31165800Y-78790800D01*
X31165800Y-77247750D01*
X30975300Y-77057250D01*
X30264929Y-77057250D01*
X28384500Y-77057250D01*
X28384500Y-75284472D01*
X34683120Y-75284472D01*
X33971771Y-75825336D01*
X33521550Y-76597251D01*
X33455219Y-76848079D01*
X33596162Y-77203300D01*
X36309300Y-77203300D01*
X36309300Y-75057000D01*
X35547300Y-75057000D01*
X34248552Y-75057000D01*
X34791664Y-74740229D01*
X35332528Y-74028880D01*
X35560000Y-73164700D01*
X35560000Y-72402700D01*
X33413700Y-72402700D01*
X33413700Y-75115838D01*
X33768921Y-75256781D01*
X34019749Y-75190450D01*
X34248552Y-75057000D01*
X35547300Y-75057000D01*
X34248552Y-75057000D01*
X34248552Y-75057000D01*
X35547300Y-75057000D01*
X34683120Y-75284472D01*
X28384500Y-75284472D01*
X28384500Y-74869363D01*
X28410122Y-74843786D01*
X28574813Y-74447168D01*
X28575177Y-74028880D01*
X31215472Y-74028880D01*
X31756336Y-74740229D01*
X32528251Y-75190450D01*
X32779079Y-75256781D01*
X33134300Y-75115838D01*
X33134300Y-72402700D01*
X30988000Y-72402700D01*
X30746700Y-72402700D01*
X30746700Y-72085200D01*
X30556200Y-71894700D01*
X29413200Y-71894700D01*
X29413200Y-73126600D01*
X29603700Y-73317100D01*
X30136271Y-73317100D01*
X30416338Y-73201092D01*
X30630692Y-72986738D01*
X30746700Y-72706671D01*
X30746700Y-72402700D01*
X30988000Y-72402700D01*
X30746700Y-72402700D01*
X30746700Y-72402700D01*
X30988000Y-72402700D01*
X30988000Y-73164700D01*
X31215472Y-74028880D01*
X28575177Y-74028880D01*
X28575187Y-74017716D01*
X28411189Y-73620811D01*
X28107786Y-73316878D01*
X27823135Y-73198680D01*
X27858659Y-73077728D01*
X27996042Y-73215111D01*
X28070362Y-73140792D01*
X28130662Y-73201092D01*
X28410729Y-73317100D01*
X28943300Y-73317100D01*
X29133800Y-73126600D01*
X29133800Y-71894700D01*
X29113800Y-71894700D01*
X29113800Y-71615300D01*
X29133800Y-71615300D01*
X29133800Y-71595300D01*
X29413200Y-71595300D01*
X29413200Y-71615300D01*
X30556200Y-71615300D01*
X30746700Y-71424800D01*
X30746700Y-70803329D01*
X30715959Y-70729113D01*
X30853225Y-70701809D01*
X31141638Y-70509098D01*
X31411710Y-70239026D01*
X31215472Y-70497120D01*
X30988000Y-71361300D01*
X30988000Y-72123300D01*
X33134300Y-72123300D01*
X33134300Y-72103300D01*
X33413700Y-72103300D01*
X33413700Y-72123300D01*
X35560000Y-72123300D01*
X35560000Y-71361300D01*
X35332528Y-70497120D01*
X35130240Y-70231069D01*
X35265784Y-70231187D01*
X35662689Y-70067189D01*
X35966622Y-69763786D01*
X36131313Y-69367168D01*
X36131687Y-68937716D01*
X35967689Y-68540811D01*
X35664286Y-68236878D01*
X35267668Y-68072187D01*
X34838216Y-68071813D01*
X34441311Y-68235811D01*
X34414575Y-68262500D01*
X31242000Y-68262500D01*
X30901794Y-68330171D01*
X30857443Y-68359806D01*
X30836694Y-68252865D01*
X30860740Y-68132960D01*
X30860740Y-67910862D01*
X30975300Y-67634291D01*
X30975300Y-67571620D01*
X30784800Y-67381120D01*
X30745895Y-67381120D01*
X30673973Y-67271633D01*
X30535142Y-67177920D01*
X30784800Y-67177920D01*
X30975300Y-66987420D01*
X30975300Y-66924749D01*
X30859292Y-66644682D01*
X30695321Y-66480711D01*
X30746700Y-66356671D01*
X30746700Y-65735200D01*
X30556200Y-65544700D01*
X29413200Y-65544700D01*
X29413200Y-65564700D01*
X29133800Y-65564700D01*
X29133800Y-65544700D01*
X29113800Y-65544700D01*
X29113800Y-65265300D01*
X29133800Y-65265300D01*
X29133800Y-64033400D01*
X28943300Y-63842900D01*
X29603700Y-63842900D01*
X29413200Y-64033400D01*
X29413200Y-65265300D01*
X30556200Y-65265300D01*
X30746700Y-65074800D01*
X30746700Y-64453329D01*
X30630692Y-64173262D01*
X30416338Y-63958908D01*
X30136271Y-63842900D01*
X29603700Y-63842900D01*
X28943300Y-63842900D01*
X28943300Y-63842900D01*
X28410729Y-63842900D01*
X28130662Y-63958908D01*
X28070362Y-64019209D01*
X27996042Y-63944889D01*
X27858659Y-64082272D01*
X27771695Y-63786176D01*
X27131438Y-63551035D01*
X26449933Y-63578808D01*
X26098500Y-63724377D01*
X26098500Y-63527940D01*
X31196280Y-63527940D01*
X31005780Y-63718440D01*
X31005780Y-64539301D01*
X31121788Y-64819368D01*
X31336142Y-65033722D01*
X31616209Y-65149730D01*
X31737300Y-65149730D01*
X31927800Y-64959230D01*
X31927800Y-63527940D01*
X32207200Y-63527940D01*
X32207200Y-64959230D01*
X32397700Y-65149730D01*
X32518791Y-65149730D01*
X32702500Y-65073635D01*
X32886209Y-65149730D01*
X33007300Y-65149730D01*
X33197800Y-64959230D01*
X33197800Y-63527940D01*
X33477200Y-63527940D01*
X33477200Y-64959230D01*
X33667700Y-65149730D01*
X33788791Y-65149730D01*
X33972500Y-65073635D01*
X34156209Y-65149730D01*
X34277300Y-65149730D01*
X34467800Y-64959230D01*
X34467800Y-63527940D01*
X34747200Y-63527940D01*
X34467800Y-63527940D01*
X34467800Y-63527940D01*
X34747200Y-63527940D01*
X34747200Y-64959230D01*
X34937700Y-65149730D01*
X35058791Y-65149730D01*
X35242500Y-65073635D01*
X35426209Y-65149730D01*
X35547300Y-65149730D01*
X35737800Y-64959230D01*
X35737800Y-63527940D01*
X34747200Y-63527940D01*
X34467800Y-63527940D01*
X34467800Y-63527940D01*
X33477200Y-63527940D01*
X33197800Y-63527940D01*
X33197800Y-63527940D01*
X32207200Y-63527940D01*
X31927800Y-63527940D01*
X31927800Y-63527940D01*
X31196280Y-63527940D01*
X26098500Y-63527940D01*
X26098500Y-63374852D01*
X26124146Y-63385501D01*
X26578859Y-63385898D01*
X26999112Y-63212254D01*
X27184380Y-63027308D01*
X27355197Y-63198423D01*
X27775146Y-63372801D01*
X28229859Y-63373198D01*
X28650112Y-63199554D01*
X28829030Y-63020947D01*
X29006197Y-63198423D01*
X29426146Y-63372801D01*
X29880859Y-63373198D01*
X30301112Y-63199554D01*
X30622923Y-62878303D01*
X30797301Y-62458354D01*
X30797698Y-62003641D01*
X30655089Y-61658500D01*
X31539558Y-61658500D01*
X31336142Y-61742758D01*
X31336142Y-61742758D01*
G37*
X31336142Y-61742758D02*
X31121788Y-61957112D01*
X31005780Y-62237179D01*
X31005780Y-63058040D01*
X31196280Y-63248540D01*
X31927800Y-63248540D01*
X31927800Y-63228540D01*
X32207200Y-63228540D01*
X32207200Y-63248540D01*
X33197800Y-63248540D01*
X33197800Y-63228540D01*
X33477200Y-63228540D01*
X33477200Y-63248540D01*
X34467800Y-63248540D01*
X34467800Y-63228540D01*
X34747200Y-63228540D01*
X34747200Y-63248540D01*
X35737800Y-63248540D01*
X35737800Y-63228540D01*
X36017200Y-63228540D01*
X36017200Y-63248540D01*
X36037200Y-63248540D01*
X36037200Y-63527940D01*
X36017200Y-63527940D01*
X36017200Y-64959230D01*
X36207700Y-65149730D01*
X36328791Y-65149730D01*
X36608858Y-65033722D01*
X36647562Y-64995018D01*
X36847780Y-65035170D01*
X37392200Y-65035170D01*
X37307185Y-65120185D01*
X37142004Y-65367395D01*
X37084000Y-65659000D01*
X37084000Y-67056000D01*
X37142004Y-67347605D01*
X37278001Y-67551138D01*
X37307185Y-67594815D01*
X38069185Y-68356816D01*
X38203584Y-68446618D01*
X38316395Y-68521996D01*
X38608000Y-68580000D01*
X39408284Y-68580000D01*
X39452797Y-68809423D01*
X39592587Y-69022227D01*
X39803620Y-69164677D01*
X40053260Y-69214740D01*
X40451110Y-69214740D01*
X40565930Y-69329560D01*
X37846000Y-69329560D01*
X37603877Y-69376537D01*
X37391073Y-69516327D01*
X37248623Y-69727360D01*
X37198560Y-69977000D01*
X37198560Y-74549000D01*
X37245537Y-74791123D01*
X37385327Y-75003927D01*
X37536345Y-75105866D01*
X37350700Y-75057000D01*
X36588700Y-75057000D01*
X36588700Y-77203300D01*
X39301838Y-77203300D01*
X39442781Y-76848079D01*
X39376450Y-76597251D01*
X38926229Y-75825336D01*
X38214880Y-75284472D01*
X37880441Y-75196440D01*
X40894000Y-75196440D01*
X41136123Y-75149463D01*
X41348927Y-75009673D01*
X41491377Y-74798640D01*
X41541440Y-74549000D01*
X41541440Y-70305071D01*
X41719500Y-70483131D01*
X41719500Y-77216000D01*
X41777504Y-77507605D01*
X41906813Y-77701129D01*
X41942685Y-77754815D01*
X42831685Y-78643815D01*
X43078895Y-78808996D01*
X43370500Y-78867000D01*
X44283156Y-78867000D01*
X44182584Y-79149568D01*
X44213344Y-79755071D01*
X44385881Y-80171616D01*
X44662252Y-80235182D01*
X45522434Y-79375000D01*
X45508292Y-79360858D01*
X45705858Y-79163292D01*
X45720000Y-79177434D01*
X45734142Y-79163292D01*
X45931708Y-79360858D01*
X45917566Y-79375000D01*
X46777748Y-80235182D01*
X47054119Y-80171616D01*
X47064985Y-80141088D01*
X47074990Y-80165303D01*
X47388595Y-80479456D01*
X47408893Y-80581500D01*
X46545969Y-80581500D01*
X46580182Y-80432748D01*
X45720000Y-79572566D01*
X44859818Y-80432748D01*
X44894031Y-80581500D01*
X32732380Y-80581500D01*
X32840492Y-80473388D01*
X32956500Y-80193321D01*
X32956500Y-79260700D01*
X32766000Y-79070200D01*
X31445200Y-79070200D01*
X31445200Y-79090200D01*
X31165800Y-79090200D01*
X31165800Y-79070200D01*
X29845000Y-79070200D01*
X29654500Y-79260700D01*
X29654500Y-80193321D01*
X29770508Y-80473388D01*
X29878620Y-80581500D01*
X28719047Y-80581500D01*
X28839427Y-80502423D01*
X28981877Y-80291390D01*
X29031940Y-80041750D01*
X29031940Y-78860664D01*
X33971771Y-78860664D01*
X34683120Y-79401528D01*
X35547300Y-79629000D01*
X36309300Y-79629000D01*
X36309300Y-77482700D01*
X36588700Y-77482700D01*
X36309300Y-77482700D01*
X36309300Y-77482700D01*
X36588700Y-77482700D01*
X36588700Y-79629000D01*
X37350700Y-79629000D01*
X38214880Y-79401528D01*
X38926229Y-78860664D01*
X39376450Y-78088749D01*
X39442781Y-77837921D01*
X39301838Y-77482700D01*
X36588700Y-77482700D01*
X36309300Y-77482700D01*
X36309300Y-77482700D01*
X33596162Y-77482700D01*
X32879879Y-77482700D01*
X32840492Y-77387612D01*
X32626138Y-77173258D01*
X32346071Y-77057250D01*
X31635700Y-77057250D01*
X31445200Y-77247750D01*
X31445200Y-78790800D01*
X32766000Y-78790800D01*
X32956500Y-78600300D01*
X32956500Y-77667679D01*
X32879879Y-77482700D01*
X33596162Y-77482700D01*
X32879879Y-77482700D01*
X32879879Y-77482700D01*
X33596162Y-77482700D01*
X33455219Y-77837921D01*
X33521550Y-78088749D01*
X33971771Y-78860664D01*
X29031940Y-78860664D01*
X29031940Y-77819250D01*
X28984963Y-77577127D01*
X28845173Y-77364323D01*
X28634140Y-77221873D01*
X28384500Y-77171810D01*
X28384500Y-77057250D01*
X30264929Y-77057250D01*
X29984862Y-77173258D01*
X29770508Y-77387612D01*
X29654500Y-77667679D01*
X29654500Y-78600300D01*
X29845000Y-78790800D01*
X31165800Y-78790800D01*
X31165800Y-77247750D01*
X30975300Y-77057250D01*
X30264929Y-77057250D01*
X28384500Y-77057250D01*
X28384500Y-75284472D01*
X34683120Y-75284472D01*
X33971771Y-75825336D01*
X33521550Y-76597251D01*
X33455219Y-76848079D01*
X33596162Y-77203300D01*
X36309300Y-77203300D01*
X36309300Y-75057000D01*
X35547300Y-75057000D01*
X34248552Y-75057000D01*
X34791664Y-74740229D01*
X35332528Y-74028880D01*
X35560000Y-73164700D01*
X35560000Y-72402700D01*
X33413700Y-72402700D01*
X33413700Y-75115838D01*
X33768921Y-75256781D01*
X34019749Y-75190450D01*
X34248552Y-75057000D01*
X35547300Y-75057000D01*
X34248552Y-75057000D01*
X34248552Y-75057000D01*
X35547300Y-75057000D01*
X34683120Y-75284472D01*
X28384500Y-75284472D01*
X28384500Y-74869363D01*
X28410122Y-74843786D01*
X28574813Y-74447168D01*
X28575177Y-74028880D01*
X31215472Y-74028880D01*
X31756336Y-74740229D01*
X32528251Y-75190450D01*
X32779079Y-75256781D01*
X33134300Y-75115838D01*
X33134300Y-72402700D01*
X30988000Y-72402700D01*
X30746700Y-72402700D01*
X30746700Y-72085200D01*
X30556200Y-71894700D01*
X29413200Y-71894700D01*
X29413200Y-73126600D01*
X29603700Y-73317100D01*
X30136271Y-73317100D01*
X30416338Y-73201092D01*
X30630692Y-72986738D01*
X30746700Y-72706671D01*
X30746700Y-72402700D01*
X30988000Y-72402700D01*
X30746700Y-72402700D01*
X30746700Y-72402700D01*
X30988000Y-72402700D01*
X30988000Y-73164700D01*
X31215472Y-74028880D01*
X28575177Y-74028880D01*
X28575187Y-74017716D01*
X28411189Y-73620811D01*
X28107786Y-73316878D01*
X27823135Y-73198680D01*
X27858659Y-73077728D01*
X27996042Y-73215111D01*
X28070362Y-73140792D01*
X28130662Y-73201092D01*
X28410729Y-73317100D01*
X28943300Y-73317100D01*
X29133800Y-73126600D01*
X29133800Y-71894700D01*
X29113800Y-71894700D01*
X29113800Y-71615300D01*
X29133800Y-71615300D01*
X29133800Y-71595300D01*
X29413200Y-71595300D01*
X29413200Y-71615300D01*
X30556200Y-71615300D01*
X30746700Y-71424800D01*
X30746700Y-70803329D01*
X30715959Y-70729113D01*
X30853225Y-70701809D01*
X31141638Y-70509098D01*
X31411710Y-70239026D01*
X31215472Y-70497120D01*
X30988000Y-71361300D01*
X30988000Y-72123300D01*
X33134300Y-72123300D01*
X33134300Y-72103300D01*
X33413700Y-72103300D01*
X33413700Y-72123300D01*
X35560000Y-72123300D01*
X35560000Y-71361300D01*
X35332528Y-70497120D01*
X35130240Y-70231069D01*
X35265784Y-70231187D01*
X35662689Y-70067189D01*
X35966622Y-69763786D01*
X36131313Y-69367168D01*
X36131687Y-68937716D01*
X35967689Y-68540811D01*
X35664286Y-68236878D01*
X35267668Y-68072187D01*
X34838216Y-68071813D01*
X34441311Y-68235811D01*
X34414575Y-68262500D01*
X31242000Y-68262500D01*
X30901794Y-68330171D01*
X30857443Y-68359806D01*
X30836694Y-68252865D01*
X30860740Y-68132960D01*
X30860740Y-67910862D01*
X30975300Y-67634291D01*
X30975300Y-67571620D01*
X30784800Y-67381120D01*
X30745895Y-67381120D01*
X30673973Y-67271633D01*
X30535142Y-67177920D01*
X30784800Y-67177920D01*
X30975300Y-66987420D01*
X30975300Y-66924749D01*
X30859292Y-66644682D01*
X30695321Y-66480711D01*
X30746700Y-66356671D01*
X30746700Y-65735200D01*
X30556200Y-65544700D01*
X29413200Y-65544700D01*
X29413200Y-65564700D01*
X29133800Y-65564700D01*
X29133800Y-65544700D01*
X29113800Y-65544700D01*
X29113800Y-65265300D01*
X29133800Y-65265300D01*
X29133800Y-64033400D01*
X28943300Y-63842900D01*
X29603700Y-63842900D01*
X29413200Y-64033400D01*
X29413200Y-65265300D01*
X30556200Y-65265300D01*
X30746700Y-65074800D01*
X30746700Y-64453329D01*
X30630692Y-64173262D01*
X30416338Y-63958908D01*
X30136271Y-63842900D01*
X29603700Y-63842900D01*
X28943300Y-63842900D01*
X28943300Y-63842900D01*
X28410729Y-63842900D01*
X28130662Y-63958908D01*
X28070362Y-64019209D01*
X27996042Y-63944889D01*
X27858659Y-64082272D01*
X27771695Y-63786176D01*
X27131438Y-63551035D01*
X26449933Y-63578808D01*
X26098500Y-63724377D01*
X26098500Y-63527940D01*
X31196280Y-63527940D01*
X31005780Y-63718440D01*
X31005780Y-64539301D01*
X31121788Y-64819368D01*
X31336142Y-65033722D01*
X31616209Y-65149730D01*
X31737300Y-65149730D01*
X31927800Y-64959230D01*
X31927800Y-63527940D01*
X32207200Y-63527940D01*
X32207200Y-64959230D01*
X32397700Y-65149730D01*
X32518791Y-65149730D01*
X32702500Y-65073635D01*
X32886209Y-65149730D01*
X33007300Y-65149730D01*
X33197800Y-64959230D01*
X33197800Y-63527940D01*
X33477200Y-63527940D01*
X33477200Y-64959230D01*
X33667700Y-65149730D01*
X33788791Y-65149730D01*
X33972500Y-65073635D01*
X34156209Y-65149730D01*
X34277300Y-65149730D01*
X34467800Y-64959230D01*
X34467800Y-63527940D01*
X34747200Y-63527940D01*
X34467800Y-63527940D01*
X34467800Y-63527940D01*
X34747200Y-63527940D01*
X34747200Y-64959230D01*
X34937700Y-65149730D01*
X35058791Y-65149730D01*
X35242500Y-65073635D01*
X35426209Y-65149730D01*
X35547300Y-65149730D01*
X35737800Y-64959230D01*
X35737800Y-63527940D01*
X34747200Y-63527940D01*
X34467800Y-63527940D01*
X34467800Y-63527940D01*
X33477200Y-63527940D01*
X33197800Y-63527940D01*
X33197800Y-63527940D01*
X32207200Y-63527940D01*
X31927800Y-63527940D01*
X31927800Y-63527940D01*
X31196280Y-63527940D01*
X26098500Y-63527940D01*
X26098500Y-63374852D01*
X26124146Y-63385501D01*
X26578859Y-63385898D01*
X26999112Y-63212254D01*
X27184380Y-63027308D01*
X27355197Y-63198423D01*
X27775146Y-63372801D01*
X28229859Y-63373198D01*
X28650112Y-63199554D01*
X28829030Y-63020947D01*
X29006197Y-63198423D01*
X29426146Y-63372801D01*
X29880859Y-63373198D01*
X30301112Y-63199554D01*
X30622923Y-62878303D01*
X30797301Y-62458354D01*
X30797698Y-62003641D01*
X30655089Y-61658500D01*
X31539558Y-61658500D01*
X31336142Y-61742758D01*
G36*
X54171882Y-66859118D02*
X54460294Y-67051829D01*
X54800500Y-67119500D01*
X60388500Y-67119500D01*
X60388500Y-68770500D01*
X60456171Y-69110706D01*
X60550985Y-69252605D01*
X60648882Y-69399118D01*
X62814440Y-71564676D01*
X62397216Y-71564313D01*
X62000311Y-71728311D01*
X61696378Y-72031714D01*
X61531687Y-72428332D01*
X61531313Y-72857784D01*
X61595265Y-73012560D01*
X61277500Y-73012560D01*
X61035377Y-73059537D01*
X60822573Y-73199327D01*
X60680123Y-73410360D01*
X60630060Y-73660000D01*
X60630060Y-76200000D01*
X60677037Y-76442123D01*
X60816827Y-76654927D01*
X61027860Y-76797377D01*
X61277500Y-76847440D01*
X63944500Y-76847440D01*
X64186623Y-76800463D01*
X64399427Y-76660673D01*
X64541877Y-76449640D01*
X64566471Y-76327000D01*
X64630300Y-76327000D01*
X64820800Y-76136500D01*
X64820800Y-75069700D01*
X65100200Y-75069700D01*
X65100200Y-76136500D01*
X65290700Y-76327000D01*
X65493071Y-76327000D01*
X65773138Y-76210992D01*
X65987492Y-75996638D01*
X66103500Y-75716571D01*
X66103500Y-75260200D01*
X65913000Y-75069700D01*
X65100200Y-75069700D01*
X64820800Y-75069700D01*
X64820800Y-75069700D01*
X64800800Y-75069700D01*
X64800800Y-74790300D01*
X64820800Y-74790300D01*
X64820800Y-74770300D01*
X65100200Y-74770300D01*
X65100200Y-74790300D01*
X65913000Y-74790300D01*
X66103500Y-74599800D01*
X66103500Y-74231500D01*
X76657264Y-74231500D01*
X76771500Y-74345736D01*
X76771500Y-75431015D01*
X76476871Y-75725130D01*
X76390551Y-75933012D01*
X76305510Y-75727197D01*
X75912870Y-75333871D01*
X75399600Y-75120743D01*
X74843839Y-75120258D01*
X74330197Y-75332490D01*
X73936871Y-75725130D01*
X73850551Y-75933012D01*
X73765510Y-75727197D01*
X73372870Y-75333871D01*
X72859600Y-75120743D01*
X72303839Y-75120258D01*
X71790197Y-75332490D01*
X71396871Y-75725130D01*
X71310551Y-75933012D01*
X71225510Y-75727197D01*
X70832870Y-75333871D01*
X70319600Y-75120743D01*
X69763839Y-75120258D01*
X69250197Y-75332490D01*
X68856871Y-75725130D01*
X68643743Y-76238400D01*
X68643258Y-76794161D01*
X68855490Y-77307803D01*
X69248130Y-77701129D01*
X69761400Y-77914257D01*
X70317161Y-77914742D01*
X70830803Y-77702510D01*
X71224129Y-77309870D01*
X71310449Y-77101988D01*
X71395490Y-77307803D01*
X71691500Y-77604330D01*
X71691500Y-78422500D01*
X61899736Y-78422500D01*
X60579000Y-77101764D01*
X60579000Y-71882000D01*
X60511329Y-71541794D01*
X60318618Y-71253382D01*
X59429618Y-70364382D01*
X59141206Y-70171671D01*
X58801000Y-70104000D01*
X54406736Y-70104000D01*
X53721000Y-69418264D01*
X53721000Y-66408236D01*
X54171882Y-66859118D01*
X54171882Y-66859118D01*
G37*
X54171882Y-66859118D02*
X54460294Y-67051829D01*
X54800500Y-67119500D01*
X60388500Y-67119500D01*
X60388500Y-68770500D01*
X60456171Y-69110706D01*
X60550985Y-69252605D01*
X60648882Y-69399118D01*
X62814440Y-71564676D01*
X62397216Y-71564313D01*
X62000311Y-71728311D01*
X61696378Y-72031714D01*
X61531687Y-72428332D01*
X61531313Y-72857784D01*
X61595265Y-73012560D01*
X61277500Y-73012560D01*
X61035377Y-73059537D01*
X60822573Y-73199327D01*
X60680123Y-73410360D01*
X60630060Y-73660000D01*
X60630060Y-76200000D01*
X60677037Y-76442123D01*
X60816827Y-76654927D01*
X61027860Y-76797377D01*
X61277500Y-76847440D01*
X63944500Y-76847440D01*
X64186623Y-76800463D01*
X64399427Y-76660673D01*
X64541877Y-76449640D01*
X64566471Y-76327000D01*
X64630300Y-76327000D01*
X64820800Y-76136500D01*
X64820800Y-75069700D01*
X65100200Y-75069700D01*
X65100200Y-76136500D01*
X65290700Y-76327000D01*
X65493071Y-76327000D01*
X65773138Y-76210992D01*
X65987492Y-75996638D01*
X66103500Y-75716571D01*
X66103500Y-75260200D01*
X65913000Y-75069700D01*
X65100200Y-75069700D01*
X64820800Y-75069700D01*
X64820800Y-75069700D01*
X64800800Y-75069700D01*
X64800800Y-74790300D01*
X64820800Y-74790300D01*
X64820800Y-74770300D01*
X65100200Y-74770300D01*
X65100200Y-74790300D01*
X65913000Y-74790300D01*
X66103500Y-74599800D01*
X66103500Y-74231500D01*
X76657264Y-74231500D01*
X76771500Y-74345736D01*
X76771500Y-75431015D01*
X76476871Y-75725130D01*
X76390551Y-75933012D01*
X76305510Y-75727197D01*
X75912870Y-75333871D01*
X75399600Y-75120743D01*
X74843839Y-75120258D01*
X74330197Y-75332490D01*
X73936871Y-75725130D01*
X73850551Y-75933012D01*
X73765510Y-75727197D01*
X73372870Y-75333871D01*
X72859600Y-75120743D01*
X72303839Y-75120258D01*
X71790197Y-75332490D01*
X71396871Y-75725130D01*
X71310551Y-75933012D01*
X71225510Y-75727197D01*
X70832870Y-75333871D01*
X70319600Y-75120743D01*
X69763839Y-75120258D01*
X69250197Y-75332490D01*
X68856871Y-75725130D01*
X68643743Y-76238400D01*
X68643258Y-76794161D01*
X68855490Y-77307803D01*
X69248130Y-77701129D01*
X69761400Y-77914257D01*
X70317161Y-77914742D01*
X70830803Y-77702510D01*
X71224129Y-77309870D01*
X71310449Y-77101988D01*
X71395490Y-77307803D01*
X71691500Y-77604330D01*
X71691500Y-78422500D01*
X61899736Y-78422500D01*
X60579000Y-77101764D01*
X60579000Y-71882000D01*
X60511329Y-71541794D01*
X60318618Y-71253382D01*
X59429618Y-70364382D01*
X59141206Y-70171671D01*
X58801000Y-70104000D01*
X54406736Y-70104000D01*
X53721000Y-69418264D01*
X53721000Y-66408236D01*
X54171882Y-66859118D01*
G36*
X82435700Y-65836800D02*
X82455700Y-65836800D01*
X82455700Y-66116200D01*
X82435700Y-66116200D01*
X82435700Y-67691000D01*
X82626200Y-67881500D01*
X83209571Y-67881500D01*
X83489638Y-67765492D01*
X83703992Y-67551138D01*
X83802886Y-67312387D01*
X83848172Y-67380161D01*
X84074000Y-67531055D01*
X84074000Y-69469000D01*
X84132004Y-69760605D01*
X84256005Y-69946185D01*
X84297185Y-70007815D01*
X84932185Y-70642816D01*
X85080377Y-70741834D01*
X85179395Y-70807996D01*
X85373034Y-70846513D01*
X85217187Y-71221832D01*
X85216813Y-71651284D01*
X85380811Y-72048189D01*
X85684214Y-72352122D01*
X86080832Y-72516813D01*
X86510284Y-72517187D01*
X86907189Y-72353189D01*
X86933925Y-72326500D01*
X89166764Y-72326500D01*
X89725500Y-72885236D01*
X89725500Y-75946000D01*
X89793171Y-76286206D01*
X89915875Y-76469845D01*
X89915813Y-76540784D01*
X90079811Y-76937689D01*
X90383214Y-77241622D01*
X90779832Y-77406313D01*
X91209284Y-77406687D01*
X91606189Y-77242689D01*
X91664524Y-77184456D01*
X91715490Y-77307803D01*
X92108130Y-77701129D01*
X92621400Y-77914257D01*
X93177161Y-77914742D01*
X93690803Y-77702510D01*
X94084129Y-77309870D01*
X94170449Y-77101988D01*
X94255490Y-77307803D01*
X94648130Y-77701129D01*
X95161400Y-77914257D01*
X95717161Y-77914742D01*
X96230803Y-77702510D01*
X96624129Y-77309870D01*
X96710449Y-77101988D01*
X96795490Y-77307803D01*
X97188130Y-77701129D01*
X97701400Y-77914257D01*
X98257161Y-77914742D01*
X98770803Y-77702510D01*
X99164129Y-77309870D01*
X99250449Y-77101988D01*
X99335490Y-77307803D01*
X99728130Y-77701129D01*
X100241400Y-77914257D01*
X100797161Y-77914742D01*
X101310803Y-77702510D01*
X101704129Y-77309870D01*
X101790449Y-77101988D01*
X101875490Y-77307803D01*
X102268130Y-77701129D01*
X102781400Y-77914257D01*
X103337161Y-77914742D01*
X103850803Y-77702510D01*
X104244129Y-77309870D01*
X104330449Y-77101988D01*
X104415490Y-77307803D01*
X104808130Y-77701129D01*
X105321400Y-77914257D01*
X105613252Y-77914512D01*
X105105264Y-78422500D01*
X81089500Y-78422500D01*
X81089500Y-77603985D01*
X81230020Y-77463710D01*
X81332508Y-77711138D01*
X81546862Y-77925492D01*
X81826929Y-78041500D01*
X82410300Y-78041500D01*
X82600800Y-77851000D01*
X82600800Y-76657200D01*
X82880200Y-76657200D01*
X82880200Y-77851000D01*
X83070700Y-78041500D01*
X83654071Y-78041500D01*
X83934138Y-77925492D01*
X84010500Y-77849130D01*
X84086862Y-77925492D01*
X84366929Y-78041500D01*
X84950300Y-78041500D01*
X85140800Y-77851000D01*
X85140800Y-76657200D01*
X85420200Y-76657200D01*
X85140800Y-76657200D01*
X85140800Y-76657200D01*
X85420200Y-76657200D01*
X85420200Y-77851000D01*
X85610700Y-78041500D01*
X86194071Y-78041500D01*
X86474138Y-77925492D01*
X86688492Y-77711138D01*
X86791023Y-77463608D01*
X87028130Y-77701129D01*
X87541400Y-77914257D01*
X88097161Y-77914742D01*
X88610803Y-77702510D01*
X89004129Y-77309870D01*
X89217257Y-76796600D01*
X89217742Y-76240839D01*
X89005510Y-75727197D01*
X88612870Y-75333871D01*
X88099600Y-75120743D01*
X87543839Y-75120258D01*
X87030197Y-75332490D01*
X86790980Y-75571290D01*
X86688492Y-75323862D01*
X86474138Y-75109508D01*
X86194071Y-74993500D01*
X85610700Y-74993500D01*
X84950300Y-74993500D01*
X84950300Y-74993500D01*
X84366929Y-74993500D01*
X84086862Y-75109508D01*
X84010500Y-75185870D01*
X83934138Y-75109508D01*
X83654071Y-74993500D01*
X83070700Y-74993500D01*
X82880200Y-75184000D01*
X82880200Y-76377800D01*
X85140800Y-76377800D01*
X85140800Y-75184000D01*
X84950300Y-74993500D01*
X85610700Y-74993500D01*
X84950300Y-74993500D01*
X84950300Y-74993500D01*
X85610700Y-74993500D01*
X85420200Y-75184000D01*
X85420200Y-76377800D01*
X85440200Y-76377800D01*
X85440200Y-76657200D01*
X85420200Y-76657200D01*
X85140800Y-76657200D01*
X85140800Y-76657200D01*
X82880200Y-76657200D01*
X82600800Y-76657200D01*
X82600800Y-76657200D01*
X82580800Y-76657200D01*
X82580800Y-76377800D01*
X82600800Y-76377800D01*
X82600800Y-75184000D01*
X82410300Y-74993500D01*
X81826929Y-74993500D01*
X81546862Y-75109508D01*
X81332508Y-75323862D01*
X81229977Y-75571392D01*
X81089500Y-75430670D01*
X81089500Y-72580500D01*
X81021829Y-72240294D01*
X80829118Y-71951882D01*
X78105000Y-69227764D01*
X78105000Y-69146161D01*
X78270332Y-69214813D01*
X78699784Y-69215187D01*
X79096689Y-69051189D01*
X79400622Y-68747786D01*
X79565313Y-68351168D01*
X79565687Y-67921716D01*
X79489047Y-67736233D01*
X79756000Y-67789333D01*
X80290609Y-67682993D01*
X80743828Y-67380161D01*
X80789114Y-67312387D01*
X80888008Y-67551138D01*
X81102362Y-67765492D01*
X81382429Y-67881500D01*
X81965800Y-67881500D01*
X82156300Y-67691000D01*
X82156300Y-66116200D01*
X82136300Y-66116200D01*
X82136300Y-65836800D01*
X82156300Y-65836800D01*
X82156300Y-65816800D01*
X82435700Y-65816800D01*
X82435700Y-65836800D01*
X82435700Y-65836800D01*
G37*
X82435700Y-65836800D02*
X82455700Y-65836800D01*
X82455700Y-66116200D01*
X82435700Y-66116200D01*
X82435700Y-67691000D01*
X82626200Y-67881500D01*
X83209571Y-67881500D01*
X83489638Y-67765492D01*
X83703992Y-67551138D01*
X83802886Y-67312387D01*
X83848172Y-67380161D01*
X84074000Y-67531055D01*
X84074000Y-69469000D01*
X84132004Y-69760605D01*
X84256005Y-69946185D01*
X84297185Y-70007815D01*
X84932185Y-70642816D01*
X85080377Y-70741834D01*
X85179395Y-70807996D01*
X85373034Y-70846513D01*
X85217187Y-71221832D01*
X85216813Y-71651284D01*
X85380811Y-72048189D01*
X85684214Y-72352122D01*
X86080832Y-72516813D01*
X86510284Y-72517187D01*
X86907189Y-72353189D01*
X86933925Y-72326500D01*
X89166764Y-72326500D01*
X89725500Y-72885236D01*
X89725500Y-75946000D01*
X89793171Y-76286206D01*
X89915875Y-76469845D01*
X89915813Y-76540784D01*
X90079811Y-76937689D01*
X90383214Y-77241622D01*
X90779832Y-77406313D01*
X91209284Y-77406687D01*
X91606189Y-77242689D01*
X91664524Y-77184456D01*
X91715490Y-77307803D01*
X92108130Y-77701129D01*
X92621400Y-77914257D01*
X93177161Y-77914742D01*
X93690803Y-77702510D01*
X94084129Y-77309870D01*
X94170449Y-77101988D01*
X94255490Y-77307803D01*
X94648130Y-77701129D01*
X95161400Y-77914257D01*
X95717161Y-77914742D01*
X96230803Y-77702510D01*
X96624129Y-77309870D01*
X96710449Y-77101988D01*
X96795490Y-77307803D01*
X97188130Y-77701129D01*
X97701400Y-77914257D01*
X98257161Y-77914742D01*
X98770803Y-77702510D01*
X99164129Y-77309870D01*
X99250449Y-77101988D01*
X99335490Y-77307803D01*
X99728130Y-77701129D01*
X100241400Y-77914257D01*
X100797161Y-77914742D01*
X101310803Y-77702510D01*
X101704129Y-77309870D01*
X101790449Y-77101988D01*
X101875490Y-77307803D01*
X102268130Y-77701129D01*
X102781400Y-77914257D01*
X103337161Y-77914742D01*
X103850803Y-77702510D01*
X104244129Y-77309870D01*
X104330449Y-77101988D01*
X104415490Y-77307803D01*
X104808130Y-77701129D01*
X105321400Y-77914257D01*
X105613252Y-77914512D01*
X105105264Y-78422500D01*
X81089500Y-78422500D01*
X81089500Y-77603985D01*
X81230020Y-77463710D01*
X81332508Y-77711138D01*
X81546862Y-77925492D01*
X81826929Y-78041500D01*
X82410300Y-78041500D01*
X82600800Y-77851000D01*
X82600800Y-76657200D01*
X82880200Y-76657200D01*
X82880200Y-77851000D01*
X83070700Y-78041500D01*
X83654071Y-78041500D01*
X83934138Y-77925492D01*
X84010500Y-77849130D01*
X84086862Y-77925492D01*
X84366929Y-78041500D01*
X84950300Y-78041500D01*
X85140800Y-77851000D01*
X85140800Y-76657200D01*
X85420200Y-76657200D01*
X85140800Y-76657200D01*
X85140800Y-76657200D01*
X85420200Y-76657200D01*
X85420200Y-77851000D01*
X85610700Y-78041500D01*
X86194071Y-78041500D01*
X86474138Y-77925492D01*
X86688492Y-77711138D01*
X86791023Y-77463608D01*
X87028130Y-77701129D01*
X87541400Y-77914257D01*
X88097161Y-77914742D01*
X88610803Y-77702510D01*
X89004129Y-77309870D01*
X89217257Y-76796600D01*
X89217742Y-76240839D01*
X89005510Y-75727197D01*
X88612870Y-75333871D01*
X88099600Y-75120743D01*
X87543839Y-75120258D01*
X87030197Y-75332490D01*
X86790980Y-75571290D01*
X86688492Y-75323862D01*
X86474138Y-75109508D01*
X86194071Y-74993500D01*
X85610700Y-74993500D01*
X84950300Y-74993500D01*
X84950300Y-74993500D01*
X84366929Y-74993500D01*
X84086862Y-75109508D01*
X84010500Y-75185870D01*
X83934138Y-75109508D01*
X83654071Y-74993500D01*
X83070700Y-74993500D01*
X82880200Y-75184000D01*
X82880200Y-76377800D01*
X85140800Y-76377800D01*
X85140800Y-75184000D01*
X84950300Y-74993500D01*
X85610700Y-74993500D01*
X84950300Y-74993500D01*
X84950300Y-74993500D01*
X85610700Y-74993500D01*
X85420200Y-75184000D01*
X85420200Y-76377800D01*
X85440200Y-76377800D01*
X85440200Y-76657200D01*
X85420200Y-76657200D01*
X85140800Y-76657200D01*
X85140800Y-76657200D01*
X82880200Y-76657200D01*
X82600800Y-76657200D01*
X82600800Y-76657200D01*
X82580800Y-76657200D01*
X82580800Y-76377800D01*
X82600800Y-76377800D01*
X82600800Y-75184000D01*
X82410300Y-74993500D01*
X81826929Y-74993500D01*
X81546862Y-75109508D01*
X81332508Y-75323862D01*
X81229977Y-75571392D01*
X81089500Y-75430670D01*
X81089500Y-72580500D01*
X81021829Y-72240294D01*
X80829118Y-71951882D01*
X78105000Y-69227764D01*
X78105000Y-69146161D01*
X78270332Y-69214813D01*
X78699784Y-69215187D01*
X79096689Y-69051189D01*
X79400622Y-68747786D01*
X79565313Y-68351168D01*
X79565687Y-67921716D01*
X79489047Y-67736233D01*
X79756000Y-67789333D01*
X80290609Y-67682993D01*
X80743828Y-67380161D01*
X80789114Y-67312387D01*
X80888008Y-67551138D01*
X81102362Y-67765492D01*
X81382429Y-67881500D01*
X81965800Y-67881500D01*
X82156300Y-67691000D01*
X82156300Y-66116200D01*
X82136300Y-66116200D01*
X82136300Y-65836800D01*
X82156300Y-65836800D01*
X82156300Y-65816800D01*
X82435700Y-65816800D01*
X82435700Y-65836800D01*
G36*
X57912000Y-55867236D02*
X57912000Y-56448637D01*
X57886378Y-56474214D01*
X57721687Y-56870832D01*
X57721313Y-57300284D01*
X57885311Y-57697189D01*
X58188714Y-58001122D01*
X58585332Y-58165813D01*
X59014784Y-58166187D01*
X59411689Y-58002189D01*
X59531192Y-57882894D01*
X59649214Y-58001122D01*
X60045832Y-58165813D01*
X60388500Y-58166111D01*
X60388500Y-59004127D01*
X60335992Y-58877362D01*
X60121638Y-58663008D01*
X59841571Y-58547000D01*
X57734200Y-58547000D01*
X57543700Y-58737500D01*
X57543700Y-60947300D01*
X57563700Y-60947300D01*
X57563700Y-61226700D01*
X57543700Y-61226700D01*
X57543700Y-63436500D01*
X57734200Y-63627000D01*
X59841571Y-63627000D01*
X60121638Y-63510992D01*
X60335992Y-63296638D01*
X60388500Y-63169873D01*
X60388500Y-65341500D01*
X55168736Y-65341500D01*
X54864000Y-65036764D01*
X54864000Y-63584572D01*
X54966429Y-63627000D01*
X57073800Y-63627000D01*
X57264300Y-63436500D01*
X57264300Y-61226700D01*
X57244300Y-61226700D01*
X57244300Y-60947300D01*
X57264300Y-60947300D01*
X57264300Y-58737500D01*
X57073800Y-58547000D01*
X54966429Y-58547000D01*
X54860128Y-58591032D01*
X54796329Y-58270294D01*
X54603618Y-57981882D01*
X53841618Y-57219882D01*
X53831787Y-57213313D01*
X53553206Y-57027171D01*
X53213000Y-56959500D01*
X50292000Y-56959500D01*
X49951794Y-57027171D01*
X49673213Y-57213313D01*
X49663382Y-57219882D01*
X49352419Y-57530845D01*
X49316216Y-57530813D01*
X48919311Y-57694811D01*
X48615378Y-57998214D01*
X48450687Y-58394832D01*
X48450313Y-58824284D01*
X48614311Y-59221189D01*
X48917714Y-59525122D01*
X49314332Y-59689813D01*
X49743784Y-59690187D01*
X50140689Y-59526189D01*
X50444622Y-59222786D01*
X50609313Y-58826168D01*
X50609346Y-58788390D01*
X50660236Y-58737500D01*
X52844764Y-58737500D01*
X53086000Y-58978736D01*
X53086000Y-59134604D01*
X53047668Y-59118687D01*
X52618216Y-59118313D01*
X52221311Y-59282311D01*
X51917378Y-59585714D01*
X51752687Y-59982332D01*
X51752313Y-60411784D01*
X51864979Y-60684456D01*
X51592370Y-60411371D01*
X51079100Y-60198243D01*
X50523339Y-60197758D01*
X50009697Y-60409990D01*
X49616371Y-60802630D01*
X49530051Y-61010512D01*
X49445010Y-60804697D01*
X49052370Y-60411371D01*
X48539100Y-60198243D01*
X47983339Y-60197758D01*
X47469697Y-60409990D01*
X47076371Y-60802630D01*
X47066112Y-60827337D01*
X47054119Y-60798384D01*
X46777748Y-60734818D01*
X45917566Y-61595000D01*
X46777748Y-62455182D01*
X47054119Y-62391616D01*
X47064985Y-62361088D01*
X47074990Y-62385303D01*
X47371000Y-62681830D01*
X47371000Y-63048515D01*
X47076371Y-63342630D01*
X47066112Y-63367337D01*
X47054119Y-63338384D01*
X46777748Y-63274818D01*
X45917566Y-64135000D01*
X46777748Y-64995182D01*
X47054119Y-64931616D01*
X47064985Y-64901088D01*
X47074990Y-64925303D01*
X47371000Y-65221830D01*
X47371000Y-65588515D01*
X47076371Y-65882630D01*
X47066112Y-65907337D01*
X47054119Y-65878384D01*
X46777748Y-65814818D01*
X45917566Y-66675000D01*
X46777748Y-67535182D01*
X47054119Y-67471616D01*
X47064985Y-67441088D01*
X47074990Y-67465303D01*
X47371000Y-67761830D01*
X47371000Y-68128515D01*
X47076371Y-68422630D01*
X47066112Y-68447337D01*
X47054119Y-68418384D01*
X46777748Y-68354818D01*
X45917566Y-69215000D01*
X46777748Y-70075182D01*
X47054119Y-70011616D01*
X47064985Y-69981088D01*
X47074990Y-70005303D01*
X47371000Y-70301830D01*
X47371000Y-70668515D01*
X47076371Y-70962630D01*
X47066112Y-70987337D01*
X47054119Y-70958384D01*
X46777748Y-70894818D01*
X45917566Y-71755000D01*
X46777748Y-72615182D01*
X47054119Y-72551616D01*
X47064985Y-72521088D01*
X47074990Y-72545303D01*
X47371000Y-72841830D01*
X47371000Y-73208515D01*
X47076371Y-73502630D01*
X47066112Y-73527337D01*
X47054119Y-73498384D01*
X46777748Y-73434818D01*
X45917566Y-74295000D01*
X46777748Y-75155182D01*
X47054119Y-75091616D01*
X47064985Y-75061088D01*
X47074990Y-75085303D01*
X47371000Y-75381830D01*
X47371000Y-75748515D01*
X47076371Y-76042630D01*
X47066112Y-76067337D01*
X47054119Y-76038384D01*
X46777748Y-75974818D01*
X45917566Y-76835000D01*
X45931708Y-76849142D01*
X45734142Y-77046708D01*
X45720000Y-77032566D01*
X45705858Y-77046708D01*
X45508292Y-76849142D01*
X45522434Y-76835000D01*
X44662252Y-75974818D01*
X44385881Y-76038384D01*
X44182584Y-76609568D01*
X44213344Y-77215071D01*
X44266333Y-77343000D01*
X43686130Y-77343000D01*
X43243500Y-76900370D01*
X43243500Y-75352748D01*
X44859818Y-75352748D01*
X44908636Y-75565000D01*
X44859818Y-75777252D01*
X45720000Y-76637434D01*
X46580182Y-75777252D01*
X46531364Y-75565000D01*
X46580182Y-75352748D01*
X45720000Y-74492566D01*
X44859818Y-75352748D01*
X43243500Y-75352748D01*
X43243500Y-73498384D01*
X44385881Y-73498384D01*
X44182584Y-74069568D01*
X44213344Y-74675071D01*
X44385881Y-75091616D01*
X44662252Y-75155182D01*
X45522434Y-74295000D01*
X44662252Y-73434818D01*
X44385881Y-73498384D01*
X43243500Y-73498384D01*
X43243500Y-72812748D01*
X44859818Y-72812748D01*
X44908636Y-73025000D01*
X44859818Y-73237252D01*
X45720000Y-74097434D01*
X46580182Y-73237252D01*
X46531364Y-73025000D01*
X46580182Y-72812748D01*
X45720000Y-71952566D01*
X44859818Y-72812748D01*
X43243500Y-72812748D01*
X43243500Y-70958384D01*
X44385881Y-70958384D01*
X44182584Y-71529568D01*
X44213344Y-72135071D01*
X44385881Y-72551616D01*
X44662252Y-72615182D01*
X45522434Y-71755000D01*
X44662252Y-70894818D01*
X44385881Y-70958384D01*
X43243500Y-70958384D01*
X43243500Y-70272748D01*
X44859818Y-70272748D01*
X44908636Y-70485000D01*
X44859818Y-70697252D01*
X45720000Y-71557434D01*
X46580182Y-70697252D01*
X46531364Y-70485000D01*
X46580182Y-70272748D01*
X45720000Y-69412566D01*
X44859818Y-70272748D01*
X43243500Y-70272748D01*
X43243500Y-70167500D01*
X43185496Y-69875895D01*
X43109520Y-69762189D01*
X43020316Y-69628685D01*
X42606371Y-69214740D01*
X43258740Y-69214740D01*
X43500863Y-69167763D01*
X43713667Y-69027973D01*
X43856117Y-68816940D01*
X43906180Y-68567300D01*
X43906180Y-68418384D01*
X44385881Y-68418384D01*
X44182584Y-68989568D01*
X44213344Y-69595071D01*
X44385881Y-70011616D01*
X44662252Y-70075182D01*
X45522434Y-69215000D01*
X44662252Y-68354818D01*
X44385881Y-68418384D01*
X43906180Y-68418384D01*
X43906180Y-67732748D01*
X44859818Y-67732748D01*
X44908636Y-67945000D01*
X44859818Y-68157252D01*
X45720000Y-69017434D01*
X46580182Y-68157252D01*
X46531364Y-67945000D01*
X46580182Y-67732748D01*
X45720000Y-66872566D01*
X44859818Y-67732748D01*
X43906180Y-67732748D01*
X43906180Y-67068700D01*
X43859203Y-66826577D01*
X43719413Y-66613773D01*
X43508380Y-66471323D01*
X43497500Y-66469141D01*
X43497500Y-65878384D01*
X44385881Y-65878384D01*
X44182584Y-66449568D01*
X44213344Y-67055071D01*
X44385881Y-67471616D01*
X44662252Y-67535182D01*
X45522434Y-66675000D01*
X44662252Y-65814818D01*
X44385881Y-65878384D01*
X43497500Y-65878384D01*
X43497500Y-65646236D01*
X43950988Y-65192748D01*
X44859818Y-65192748D01*
X44908636Y-65405000D01*
X44859818Y-65617252D01*
X45720000Y-66477434D01*
X46580182Y-65617252D01*
X46531364Y-65405000D01*
X46580182Y-65192748D01*
X45720000Y-64332566D01*
X44859818Y-65192748D01*
X43950988Y-65192748D01*
X44334988Y-64808748D01*
X44385881Y-64931616D01*
X44662252Y-64995182D01*
X45522434Y-64135000D01*
X45508292Y-64120858D01*
X45705858Y-63923292D01*
X45720000Y-63937434D01*
X46580182Y-63077252D01*
X46531364Y-62865000D01*
X46580182Y-62652748D01*
X45720000Y-61792566D01*
X45705858Y-61806708D01*
X45508292Y-61609142D01*
X45522434Y-61595000D01*
X45508292Y-61580858D01*
X45705858Y-61383292D01*
X45720000Y-61397434D01*
X46580182Y-60537252D01*
X46516616Y-60260881D01*
X45945432Y-60057584D01*
X45339929Y-60088344D01*
X44958000Y-60246543D01*
X44958000Y-58343736D01*
X46596236Y-56705500D01*
X52514500Y-56705500D01*
X52854706Y-56637829D01*
X53143118Y-56445118D01*
X54406736Y-55181500D01*
X57226264Y-55181500D01*
X57912000Y-55867236D01*
X57912000Y-55867236D01*
G37*
X57912000Y-55867236D02*
X57912000Y-56448637D01*
X57886378Y-56474214D01*
X57721687Y-56870832D01*
X57721313Y-57300284D01*
X57885311Y-57697189D01*
X58188714Y-58001122D01*
X58585332Y-58165813D01*
X59014784Y-58166187D01*
X59411689Y-58002189D01*
X59531192Y-57882894D01*
X59649214Y-58001122D01*
X60045832Y-58165813D01*
X60388500Y-58166111D01*
X60388500Y-59004127D01*
X60335992Y-58877362D01*
X60121638Y-58663008D01*
X59841571Y-58547000D01*
X57734200Y-58547000D01*
X57543700Y-58737500D01*
X57543700Y-60947300D01*
X57563700Y-60947300D01*
X57563700Y-61226700D01*
X57543700Y-61226700D01*
X57543700Y-63436500D01*
X57734200Y-63627000D01*
X59841571Y-63627000D01*
X60121638Y-63510992D01*
X60335992Y-63296638D01*
X60388500Y-63169873D01*
X60388500Y-65341500D01*
X55168736Y-65341500D01*
X54864000Y-65036764D01*
X54864000Y-63584572D01*
X54966429Y-63627000D01*
X57073800Y-63627000D01*
X57264300Y-63436500D01*
X57264300Y-61226700D01*
X57244300Y-61226700D01*
X57244300Y-60947300D01*
X57264300Y-60947300D01*
X57264300Y-58737500D01*
X57073800Y-58547000D01*
X54966429Y-58547000D01*
X54860128Y-58591032D01*
X54796329Y-58270294D01*
X54603618Y-57981882D01*
X53841618Y-57219882D01*
X53831787Y-57213313D01*
X53553206Y-57027171D01*
X53213000Y-56959500D01*
X50292000Y-56959500D01*
X49951794Y-57027171D01*
X49673213Y-57213313D01*
X49663382Y-57219882D01*
X49352419Y-57530845D01*
X49316216Y-57530813D01*
X48919311Y-57694811D01*
X48615378Y-57998214D01*
X48450687Y-58394832D01*
X48450313Y-58824284D01*
X48614311Y-59221189D01*
X48917714Y-59525122D01*
X49314332Y-59689813D01*
X49743784Y-59690187D01*
X50140689Y-59526189D01*
X50444622Y-59222786D01*
X50609313Y-58826168D01*
X50609346Y-58788390D01*
X50660236Y-58737500D01*
X52844764Y-58737500D01*
X53086000Y-58978736D01*
X53086000Y-59134604D01*
X53047668Y-59118687D01*
X52618216Y-59118313D01*
X52221311Y-59282311D01*
X51917378Y-59585714D01*
X51752687Y-59982332D01*
X51752313Y-60411784D01*
X51864979Y-60684456D01*
X51592370Y-60411371D01*
X51079100Y-60198243D01*
X50523339Y-60197758D01*
X50009697Y-60409990D01*
X49616371Y-60802630D01*
X49530051Y-61010512D01*
X49445010Y-60804697D01*
X49052370Y-60411371D01*
X48539100Y-60198243D01*
X47983339Y-60197758D01*
X47469697Y-60409990D01*
X47076371Y-60802630D01*
X47066112Y-60827337D01*
X47054119Y-60798384D01*
X46777748Y-60734818D01*
X45917566Y-61595000D01*
X46777748Y-62455182D01*
X47054119Y-62391616D01*
X47064985Y-62361088D01*
X47074990Y-62385303D01*
X47371000Y-62681830D01*
X47371000Y-63048515D01*
X47076371Y-63342630D01*
X47066112Y-63367337D01*
X47054119Y-63338384D01*
X46777748Y-63274818D01*
X45917566Y-64135000D01*
X46777748Y-64995182D01*
X47054119Y-64931616D01*
X47064985Y-64901088D01*
X47074990Y-64925303D01*
X47371000Y-65221830D01*
X47371000Y-65588515D01*
X47076371Y-65882630D01*
X47066112Y-65907337D01*
X47054119Y-65878384D01*
X46777748Y-65814818D01*
X45917566Y-66675000D01*
X46777748Y-67535182D01*
X47054119Y-67471616D01*
X47064985Y-67441088D01*
X47074990Y-67465303D01*
X47371000Y-67761830D01*
X47371000Y-68128515D01*
X47076371Y-68422630D01*
X47066112Y-68447337D01*
X47054119Y-68418384D01*
X46777748Y-68354818D01*
X45917566Y-69215000D01*
X46777748Y-70075182D01*
X47054119Y-70011616D01*
X47064985Y-69981088D01*
X47074990Y-70005303D01*
X47371000Y-70301830D01*
X47371000Y-70668515D01*
X47076371Y-70962630D01*
X47066112Y-70987337D01*
X47054119Y-70958384D01*
X46777748Y-70894818D01*
X45917566Y-71755000D01*
X46777748Y-72615182D01*
X47054119Y-72551616D01*
X47064985Y-72521088D01*
X47074990Y-72545303D01*
X47371000Y-72841830D01*
X47371000Y-73208515D01*
X47076371Y-73502630D01*
X47066112Y-73527337D01*
X47054119Y-73498384D01*
X46777748Y-73434818D01*
X45917566Y-74295000D01*
X46777748Y-75155182D01*
X47054119Y-75091616D01*
X47064985Y-75061088D01*
X47074990Y-75085303D01*
X47371000Y-75381830D01*
X47371000Y-75748515D01*
X47076371Y-76042630D01*
X47066112Y-76067337D01*
X47054119Y-76038384D01*
X46777748Y-75974818D01*
X45917566Y-76835000D01*
X45931708Y-76849142D01*
X45734142Y-77046708D01*
X45720000Y-77032566D01*
X45705858Y-77046708D01*
X45508292Y-76849142D01*
X45522434Y-76835000D01*
X44662252Y-75974818D01*
X44385881Y-76038384D01*
X44182584Y-76609568D01*
X44213344Y-77215071D01*
X44266333Y-77343000D01*
X43686130Y-77343000D01*
X43243500Y-76900370D01*
X43243500Y-75352748D01*
X44859818Y-75352748D01*
X44908636Y-75565000D01*
X44859818Y-75777252D01*
X45720000Y-76637434D01*
X46580182Y-75777252D01*
X46531364Y-75565000D01*
X46580182Y-75352748D01*
X45720000Y-74492566D01*
X44859818Y-75352748D01*
X43243500Y-75352748D01*
X43243500Y-73498384D01*
X44385881Y-73498384D01*
X44182584Y-74069568D01*
X44213344Y-74675071D01*
X44385881Y-75091616D01*
X44662252Y-75155182D01*
X45522434Y-74295000D01*
X44662252Y-73434818D01*
X44385881Y-73498384D01*
X43243500Y-73498384D01*
X43243500Y-72812748D01*
X44859818Y-72812748D01*
X44908636Y-73025000D01*
X44859818Y-73237252D01*
X45720000Y-74097434D01*
X46580182Y-73237252D01*
X46531364Y-73025000D01*
X46580182Y-72812748D01*
X45720000Y-71952566D01*
X44859818Y-72812748D01*
X43243500Y-72812748D01*
X43243500Y-70958384D01*
X44385881Y-70958384D01*
X44182584Y-71529568D01*
X44213344Y-72135071D01*
X44385881Y-72551616D01*
X44662252Y-72615182D01*
X45522434Y-71755000D01*
X44662252Y-70894818D01*
X44385881Y-70958384D01*
X43243500Y-70958384D01*
X43243500Y-70272748D01*
X44859818Y-70272748D01*
X44908636Y-70485000D01*
X44859818Y-70697252D01*
X45720000Y-71557434D01*
X46580182Y-70697252D01*
X46531364Y-70485000D01*
X46580182Y-70272748D01*
X45720000Y-69412566D01*
X44859818Y-70272748D01*
X43243500Y-70272748D01*
X43243500Y-70167500D01*
X43185496Y-69875895D01*
X43109520Y-69762189D01*
X43020316Y-69628685D01*
X42606371Y-69214740D01*
X43258740Y-69214740D01*
X43500863Y-69167763D01*
X43713667Y-69027973D01*
X43856117Y-68816940D01*
X43906180Y-68567300D01*
X43906180Y-68418384D01*
X44385881Y-68418384D01*
X44182584Y-68989568D01*
X44213344Y-69595071D01*
X44385881Y-70011616D01*
X44662252Y-70075182D01*
X45522434Y-69215000D01*
X44662252Y-68354818D01*
X44385881Y-68418384D01*
X43906180Y-68418384D01*
X43906180Y-67732748D01*
X44859818Y-67732748D01*
X44908636Y-67945000D01*
X44859818Y-68157252D01*
X45720000Y-69017434D01*
X46580182Y-68157252D01*
X46531364Y-67945000D01*
X46580182Y-67732748D01*
X45720000Y-66872566D01*
X44859818Y-67732748D01*
X43906180Y-67732748D01*
X43906180Y-67068700D01*
X43859203Y-66826577D01*
X43719413Y-66613773D01*
X43508380Y-66471323D01*
X43497500Y-66469141D01*
X43497500Y-65878384D01*
X44385881Y-65878384D01*
X44182584Y-66449568D01*
X44213344Y-67055071D01*
X44385881Y-67471616D01*
X44662252Y-67535182D01*
X45522434Y-66675000D01*
X44662252Y-65814818D01*
X44385881Y-65878384D01*
X43497500Y-65878384D01*
X43497500Y-65646236D01*
X43950988Y-65192748D01*
X44859818Y-65192748D01*
X44908636Y-65405000D01*
X44859818Y-65617252D01*
X45720000Y-66477434D01*
X46580182Y-65617252D01*
X46531364Y-65405000D01*
X46580182Y-65192748D01*
X45720000Y-64332566D01*
X44859818Y-65192748D01*
X43950988Y-65192748D01*
X44334988Y-64808748D01*
X44385881Y-64931616D01*
X44662252Y-64995182D01*
X45522434Y-64135000D01*
X45508292Y-64120858D01*
X45705858Y-63923292D01*
X45720000Y-63937434D01*
X46580182Y-63077252D01*
X46531364Y-62865000D01*
X46580182Y-62652748D01*
X45720000Y-61792566D01*
X45705858Y-61806708D01*
X45508292Y-61609142D01*
X45522434Y-61595000D01*
X45508292Y-61580858D01*
X45705858Y-61383292D01*
X45720000Y-61397434D01*
X46580182Y-60537252D01*
X46516616Y-60260881D01*
X45945432Y-60057584D01*
X45339929Y-60088344D01*
X44958000Y-60246543D01*
X44958000Y-58343736D01*
X46596236Y-56705500D01*
X52514500Y-56705500D01*
X52854706Y-56637829D01*
X53143118Y-56445118D01*
X54406736Y-55181500D01*
X57226264Y-55181500D01*
X57912000Y-55867236D01*
G36*
X27072208Y-71867858D02*
X27058066Y-71882000D01*
X27072208Y-71896142D01*
X26874642Y-72093708D01*
X26860500Y-72079566D01*
X26846358Y-72093708D01*
X26648792Y-71896142D01*
X26662934Y-71882000D01*
X26648792Y-71867858D01*
X26846358Y-71670292D01*
X26860500Y-71684434D01*
X26874642Y-71670292D01*
X27072208Y-71867858D01*
X27072208Y-71867858D01*
G37*
X27072208Y-71867858D02*
X27058066Y-71882000D01*
X27072208Y-71896142D01*
X26874642Y-72093708D01*
X26860500Y-72079566D01*
X26846358Y-72093708D01*
X26648792Y-71896142D01*
X26662934Y-71882000D01*
X26648792Y-71867858D01*
X26846358Y-71670292D01*
X26860500Y-71684434D01*
X26874642Y-71670292D01*
X27072208Y-71867858D01*
G36*
X109791500Y-70444709D02*
X109756422Y-70359814D01*
X109221005Y-69823461D01*
X108521090Y-69532832D01*
X107763235Y-69532170D01*
X107062814Y-69821578D01*
X106824303Y-70059673D01*
X106794138Y-70029508D01*
X106514071Y-69913500D01*
X105930700Y-69913500D01*
X105740200Y-70104000D01*
X105740200Y-71297800D01*
X105760200Y-71297800D01*
X105760200Y-71577200D01*
X105740200Y-71577200D01*
X105740200Y-71597200D01*
X105460800Y-71597200D01*
X105460800Y-71577200D01*
X105440800Y-71577200D01*
X105440800Y-71297800D01*
X105460800Y-71297800D01*
X105460800Y-70104000D01*
X105270300Y-69913500D01*
X105092500Y-69913500D01*
X105092500Y-68478216D01*
X105321923Y-68433703D01*
X105534727Y-68293913D01*
X105677177Y-68082880D01*
X105704828Y-67945000D01*
X106616500Y-67945000D01*
X106908105Y-67886996D01*
X107155315Y-67721815D01*
X107853815Y-67023315D01*
X108018996Y-66776105D01*
X108026476Y-66738500D01*
X108077000Y-66484500D01*
X108077000Y-62357000D01*
X108018996Y-62065395D01*
X107976400Y-62001646D01*
X107853815Y-61818184D01*
X107345815Y-61310185D01*
X107297178Y-61277687D01*
X107098605Y-61145004D01*
X106807000Y-61087000D01*
X99250500Y-61087000D01*
X98958895Y-61145004D01*
X98711685Y-61310185D01*
X97220370Y-62801500D01*
X89723631Y-62801500D01*
X89408000Y-62485870D01*
X89408000Y-60068286D01*
X89916000Y-60169333D01*
X90450609Y-60062993D01*
X90903828Y-59760161D01*
X91186000Y-59337862D01*
X91468172Y-59760161D01*
X91921391Y-60062993D01*
X92456000Y-60169333D01*
X92990609Y-60062993D01*
X93443828Y-59760161D01*
X93726000Y-59337862D01*
X94008172Y-59760161D01*
X94461391Y-60062993D01*
X94996000Y-60169333D01*
X95530609Y-60062993D01*
X95983828Y-59760161D01*
X96266000Y-59337862D01*
X96548172Y-59760161D01*
X97001391Y-60062993D01*
X97536000Y-60169333D01*
X98070609Y-60062993D01*
X98523828Y-59760161D01*
X98826660Y-59306942D01*
X98933000Y-58772333D01*
X98933000Y-57940667D01*
X98914667Y-57848500D01*
X109791500Y-57848500D01*
X109791500Y-70444709D01*
X109791500Y-70444709D01*
G37*
X109791500Y-70444709D02*
X109756422Y-70359814D01*
X109221005Y-69823461D01*
X108521090Y-69532832D01*
X107763235Y-69532170D01*
X107062814Y-69821578D01*
X106824303Y-70059673D01*
X106794138Y-70029508D01*
X106514071Y-69913500D01*
X105930700Y-69913500D01*
X105740200Y-70104000D01*
X105740200Y-71297800D01*
X105760200Y-71297800D01*
X105760200Y-71577200D01*
X105740200Y-71577200D01*
X105740200Y-71597200D01*
X105460800Y-71597200D01*
X105460800Y-71577200D01*
X105440800Y-71577200D01*
X105440800Y-71297800D01*
X105460800Y-71297800D01*
X105460800Y-70104000D01*
X105270300Y-69913500D01*
X105092500Y-69913500D01*
X105092500Y-68478216D01*
X105321923Y-68433703D01*
X105534727Y-68293913D01*
X105677177Y-68082880D01*
X105704828Y-67945000D01*
X106616500Y-67945000D01*
X106908105Y-67886996D01*
X107155315Y-67721815D01*
X107853815Y-67023315D01*
X108018996Y-66776105D01*
X108026476Y-66738500D01*
X108077000Y-66484500D01*
X108077000Y-62357000D01*
X108018996Y-62065395D01*
X107976400Y-62001646D01*
X107853815Y-61818184D01*
X107345815Y-61310185D01*
X107297178Y-61277687D01*
X107098605Y-61145004D01*
X106807000Y-61087000D01*
X99250500Y-61087000D01*
X98958895Y-61145004D01*
X98711685Y-61310185D01*
X97220370Y-62801500D01*
X89723631Y-62801500D01*
X89408000Y-62485870D01*
X89408000Y-60068286D01*
X89916000Y-60169333D01*
X90450609Y-60062993D01*
X90903828Y-59760161D01*
X91186000Y-59337862D01*
X91468172Y-59760161D01*
X91921391Y-60062993D01*
X92456000Y-60169333D01*
X92990609Y-60062993D01*
X93443828Y-59760161D01*
X93726000Y-59337862D01*
X94008172Y-59760161D01*
X94461391Y-60062993D01*
X94996000Y-60169333D01*
X95530609Y-60062993D01*
X95983828Y-59760161D01*
X96266000Y-59337862D01*
X96548172Y-59760161D01*
X97001391Y-60062993D01*
X97536000Y-60169333D01*
X98070609Y-60062993D01*
X98523828Y-59760161D01*
X98826660Y-59306942D01*
X98933000Y-58772333D01*
X98933000Y-57940667D01*
X98914667Y-57848500D01*
X109791500Y-57848500D01*
X109791500Y-70444709D01*
G36*
X103120527Y-68288167D02*
X103331560Y-68430617D01*
X103568500Y-68478133D01*
X103568500Y-69913500D01*
X103390700Y-69913500D01*
X103200200Y-70104000D01*
X103200200Y-71297800D01*
X103220200Y-71297800D01*
X103220200Y-71577200D01*
X103200200Y-71577200D01*
X103200200Y-71597200D01*
X102920800Y-71597200D01*
X102920800Y-71577200D01*
X102900800Y-71577200D01*
X102900800Y-71297800D01*
X102920800Y-71297800D01*
X102920800Y-70104000D01*
X102730300Y-69913500D01*
X102552500Y-69913500D01*
X102552500Y-68478216D01*
X102781923Y-68433703D01*
X102994727Y-68293913D01*
X103060396Y-68196628D01*
X103120527Y-68288167D01*
X103120527Y-68288167D01*
G37*
X103120527Y-68288167D02*
X103331560Y-68430617D01*
X103568500Y-68478133D01*
X103568500Y-69913500D01*
X103390700Y-69913500D01*
X103200200Y-70104000D01*
X103200200Y-71297800D01*
X103220200Y-71297800D01*
X103220200Y-71577200D01*
X103200200Y-71577200D01*
X103200200Y-71597200D01*
X102920800Y-71597200D01*
X102920800Y-71577200D01*
X102900800Y-71577200D01*
X102900800Y-71297800D01*
X102920800Y-71297800D01*
X102920800Y-70104000D01*
X102730300Y-69913500D01*
X102552500Y-69913500D01*
X102552500Y-68478216D01*
X102781923Y-68433703D01*
X102994727Y-68293913D01*
X103060396Y-68196628D01*
X103120527Y-68288167D01*
G36*
X100580527Y-68288167D02*
X100791560Y-68430617D01*
X101028500Y-68478133D01*
X101028500Y-69913500D01*
X100850700Y-69913500D01*
X100660200Y-70104000D01*
X100660200Y-71297800D01*
X100680200Y-71297800D01*
X100680200Y-71577200D01*
X100660200Y-71577200D01*
X100660200Y-71597200D01*
X100380800Y-71597200D01*
X100380800Y-71577200D01*
X100360800Y-71577200D01*
X100360800Y-71297800D01*
X100380800Y-71297800D01*
X100380800Y-70104000D01*
X100190300Y-69913500D01*
X100012500Y-69913500D01*
X100012500Y-68897500D01*
X99954496Y-68605895D01*
X99940866Y-68585496D01*
X99923679Y-68559775D01*
X100113605Y-68521996D01*
X100360815Y-68356815D01*
X100520636Y-68196994D01*
X100580527Y-68288167D01*
X100580527Y-68288167D01*
G37*
X100580527Y-68288167D02*
X100791560Y-68430617D01*
X101028500Y-68478133D01*
X101028500Y-69913500D01*
X100850700Y-69913500D01*
X100660200Y-70104000D01*
X100660200Y-71297800D01*
X100680200Y-71297800D01*
X100680200Y-71577200D01*
X100660200Y-71577200D01*
X100660200Y-71597200D01*
X100380800Y-71597200D01*
X100380800Y-71577200D01*
X100360800Y-71577200D01*
X100360800Y-71297800D01*
X100380800Y-71297800D01*
X100380800Y-70104000D01*
X100190300Y-69913500D01*
X100012500Y-69913500D01*
X100012500Y-68897500D01*
X99954496Y-68605895D01*
X99940866Y-68585496D01*
X99923679Y-68559775D01*
X100113605Y-68521996D01*
X100360815Y-68356815D01*
X100520636Y-68196994D01*
X100580527Y-68288167D01*
G36*
X98488500Y-69213131D02*
X98488500Y-69913500D01*
X98310700Y-69913500D01*
X98120200Y-70104000D01*
X98120200Y-71297800D01*
X98140200Y-71297800D01*
X98140200Y-71577200D01*
X98120200Y-71577200D01*
X98120200Y-71597200D01*
X97840800Y-71597200D01*
X97840800Y-71577200D01*
X97820800Y-71577200D01*
X97820800Y-71297800D01*
X97840800Y-71297800D01*
X97840800Y-70104000D01*
X97650300Y-69913500D01*
X97472500Y-69913500D01*
X97472500Y-69469000D01*
X97414496Y-69177395D01*
X97401458Y-69157882D01*
X97397194Y-69151500D01*
X98426870Y-69151500D01*
X98488500Y-69213131D01*
X98488500Y-69213131D01*
G37*
X98488500Y-69213131D02*
X98488500Y-69913500D01*
X98310700Y-69913500D01*
X98120200Y-70104000D01*
X98120200Y-71297800D01*
X98140200Y-71297800D01*
X98140200Y-71577200D01*
X98120200Y-71577200D01*
X98120200Y-71597200D01*
X97840800Y-71597200D01*
X97840800Y-71577200D01*
X97820800Y-71577200D01*
X97820800Y-71297800D01*
X97840800Y-71297800D01*
X97840800Y-70104000D01*
X97650300Y-69913500D01*
X97472500Y-69913500D01*
X97472500Y-69469000D01*
X97414496Y-69177395D01*
X97401458Y-69157882D01*
X97397194Y-69151500D01*
X98426870Y-69151500D01*
X98488500Y-69213131D01*
G36*
X95948500Y-69784631D02*
X95948500Y-69913500D01*
X95770700Y-69913500D01*
X95580200Y-70104000D01*
X95580200Y-71297800D01*
X95600200Y-71297800D01*
X95600200Y-71577200D01*
X95580200Y-71577200D01*
X95580200Y-71597200D01*
X95300800Y-71597200D01*
X95300800Y-71577200D01*
X95280800Y-71577200D01*
X95280800Y-71297800D01*
X95300800Y-71297800D01*
X95300800Y-70104000D01*
X95110300Y-69913500D01*
X94919869Y-69913500D01*
X94881976Y-69723000D01*
X95886870Y-69723000D01*
X95948500Y-69784631D01*
X95948500Y-69784631D01*
G37*
X95948500Y-69784631D02*
X95948500Y-69913500D01*
X95770700Y-69913500D01*
X95580200Y-70104000D01*
X95580200Y-71297800D01*
X95600200Y-71297800D01*
X95600200Y-71577200D01*
X95580200Y-71577200D01*
X95580200Y-71597200D01*
X95300800Y-71597200D01*
X95300800Y-71577200D01*
X95280800Y-71577200D01*
X95280800Y-71297800D01*
X95300800Y-71297800D01*
X95300800Y-70104000D01*
X95110300Y-69913500D01*
X94919869Y-69913500D01*
X94881976Y-69723000D01*
X95886870Y-69723000D01*
X95948500Y-69784631D01*
G36*
X93040200Y-71297800D02*
X93060200Y-71297800D01*
X93060200Y-71577200D01*
X93040200Y-71577200D01*
X93040200Y-71597200D01*
X92760800Y-71597200D01*
X92760800Y-71577200D01*
X92740800Y-71577200D01*
X92740800Y-71297800D01*
X92760800Y-71297800D01*
X92760800Y-71277800D01*
X93040200Y-71277800D01*
X93040200Y-71297800D01*
X93040200Y-71297800D01*
G37*
X93040200Y-71297800D02*
X93060200Y-71297800D01*
X93060200Y-71577200D01*
X93040200Y-71577200D01*
X93040200Y-71597200D01*
X92760800Y-71597200D01*
X92760800Y-71577200D01*
X92740800Y-71577200D01*
X92740800Y-71297800D01*
X92760800Y-71297800D01*
X92760800Y-71277800D01*
X93040200Y-71277800D01*
X93040200Y-71297800D01*
G36*
X27000200Y-67233800D02*
X27020200Y-67233800D01*
X27020200Y-67513200D01*
X27000200Y-67513200D01*
X27000200Y-69646800D01*
X27020200Y-69646800D01*
X27020200Y-69926200D01*
X27000200Y-69926200D01*
X27000200Y-69946200D01*
X26720800Y-69946200D01*
X26720800Y-69926200D01*
X26700800Y-69926200D01*
X26700800Y-69646800D01*
X26720800Y-69646800D01*
X26720800Y-67513200D01*
X26700800Y-67513200D01*
X26700800Y-67233800D01*
X26720800Y-67233800D01*
X26720800Y-67213800D01*
X27000200Y-67213800D01*
X27000200Y-67233800D01*
X27000200Y-67233800D01*
G37*
X27000200Y-67233800D02*
X27020200Y-67233800D01*
X27020200Y-67513200D01*
X27000200Y-67513200D01*
X27000200Y-69646800D01*
X27020200Y-69646800D01*
X27020200Y-69926200D01*
X27000200Y-69926200D01*
X27000200Y-69946200D01*
X26720800Y-69946200D01*
X26720800Y-69926200D01*
X26700800Y-69926200D01*
X26700800Y-69646800D01*
X26720800Y-69646800D01*
X26720800Y-67513200D01*
X26700800Y-67513200D01*
X26700800Y-67233800D01*
X26720800Y-67233800D01*
X26720800Y-67213800D01*
X27000200Y-67213800D01*
X27000200Y-67233800D01*
G36*
X27072208Y-65263858D02*
X27058066Y-65278000D01*
X27072208Y-65292142D01*
X26874642Y-65489708D01*
X26860500Y-65475566D01*
X26846358Y-65489708D01*
X26648792Y-65292142D01*
X26662934Y-65278000D01*
X26648792Y-65263858D01*
X26846358Y-65066292D01*
X26860500Y-65080434D01*
X26874642Y-65066292D01*
X27072208Y-65263858D01*
X27072208Y-65263858D01*
G37*
X27072208Y-65263858D02*
X27058066Y-65278000D01*
X27072208Y-65292142D01*
X26874642Y-65489708D01*
X26860500Y-65475566D01*
X26846358Y-65489708D01*
X26648792Y-65292142D01*
X26662934Y-65278000D01*
X26648792Y-65263858D01*
X26846358Y-65066292D01*
X26860500Y-65080434D01*
X26874642Y-65066292D01*
X27072208Y-65263858D01*
G36*
X76228172Y-59760161D02*
X76681391Y-60062993D01*
X77216000Y-60169333D01*
X77750609Y-60062993D01*
X78203828Y-59760161D01*
X78249114Y-59692387D01*
X78348008Y-59931138D01*
X78562362Y-60145492D01*
X78842429Y-60261500D01*
X79425800Y-60261500D01*
X79616298Y-60071002D01*
X79616298Y-60248800D01*
X79579029Y-60248800D01*
X79298962Y-60364808D01*
X79084608Y-60579162D01*
X78968600Y-60859229D01*
X78968600Y-61391800D01*
X79159100Y-61582300D01*
X80124300Y-61582300D01*
X80124300Y-61562300D01*
X80403700Y-61562300D01*
X80403700Y-61582300D01*
X80423700Y-61582300D01*
X80423700Y-61861700D01*
X80403700Y-61861700D01*
X80403700Y-61881700D01*
X80124300Y-61881700D01*
X80124300Y-61861700D01*
X79159100Y-61861700D01*
X78968600Y-62052200D01*
X78968600Y-62357000D01*
X77724000Y-62357000D01*
X77383794Y-62424671D01*
X77095382Y-62617382D01*
X76587382Y-63125382D01*
X76394671Y-63413794D01*
X76327000Y-63754000D01*
X76327000Y-64506804D01*
X76228172Y-64572839D01*
X75946000Y-64995138D01*
X75663828Y-64572839D01*
X75438000Y-64421945D01*
X75438000Y-60896500D01*
X75379996Y-60604895D01*
X75362694Y-60579001D01*
X75214815Y-60357684D01*
X74968318Y-60111187D01*
X75210609Y-60062993D01*
X75663828Y-59760161D01*
X75946000Y-59337862D01*
X76228172Y-59760161D01*
X76228172Y-59760161D01*
G37*
X76228172Y-59760161D02*
X76681391Y-60062993D01*
X77216000Y-60169333D01*
X77750609Y-60062993D01*
X78203828Y-59760161D01*
X78249114Y-59692387D01*
X78348008Y-59931138D01*
X78562362Y-60145492D01*
X78842429Y-60261500D01*
X79425800Y-60261500D01*
X79616298Y-60071002D01*
X79616298Y-60248800D01*
X79579029Y-60248800D01*
X79298962Y-60364808D01*
X79084608Y-60579162D01*
X78968600Y-60859229D01*
X78968600Y-61391800D01*
X79159100Y-61582300D01*
X80124300Y-61582300D01*
X80124300Y-61562300D01*
X80403700Y-61562300D01*
X80403700Y-61582300D01*
X80423700Y-61582300D01*
X80423700Y-61861700D01*
X80403700Y-61861700D01*
X80403700Y-61881700D01*
X80124300Y-61881700D01*
X80124300Y-61861700D01*
X79159100Y-61861700D01*
X78968600Y-62052200D01*
X78968600Y-62357000D01*
X77724000Y-62357000D01*
X77383794Y-62424671D01*
X77095382Y-62617382D01*
X76587382Y-63125382D01*
X76394671Y-63413794D01*
X76327000Y-63754000D01*
X76327000Y-64506804D01*
X76228172Y-64572839D01*
X75946000Y-64995138D01*
X75663828Y-64572839D01*
X75438000Y-64421945D01*
X75438000Y-60896500D01*
X75379996Y-60604895D01*
X75362694Y-60579001D01*
X75214815Y-60357684D01*
X74968318Y-60111187D01*
X75210609Y-60062993D01*
X75663828Y-59760161D01*
X75946000Y-59337862D01*
X76228172Y-59760161D01*
G36*
X30589029Y-40047397D02*
X30568900Y-40043360D01*
X29502100Y-40043360D01*
X29259977Y-40090337D01*
X29111561Y-40187831D01*
X28968538Y-40044808D01*
X28688471Y-39928800D01*
X28333700Y-39928800D01*
X28143200Y-40119300D01*
X28143200Y-41262300D01*
X28163200Y-41262300D01*
X28163200Y-41541700D01*
X28143200Y-41541700D01*
X28143200Y-42684700D01*
X28333700Y-42875200D01*
X28688471Y-42875200D01*
X28968538Y-42759192D01*
X29111979Y-42615751D01*
X29252460Y-42710577D01*
X29502100Y-42760640D01*
X30480000Y-42760640D01*
X30480000Y-42973561D01*
X30213041Y-42862710D01*
X29733065Y-42862291D01*
X29289465Y-43045582D01*
X28949775Y-43384680D01*
X28765710Y-43827959D01*
X28765291Y-44307935D01*
X28948582Y-44751535D01*
X29287680Y-45091225D01*
X29730959Y-45275290D01*
X30210935Y-45275709D01*
X30289583Y-45243213D01*
X30289313Y-45552784D01*
X30453311Y-45949689D01*
X30756714Y-46253622D01*
X31153332Y-46418313D01*
X31582784Y-46418687D01*
X31979689Y-46254689D01*
X32283622Y-45951286D01*
X32448313Y-45554668D01*
X32448687Y-45125216D01*
X32284689Y-44728311D01*
X32258000Y-44701575D01*
X32258000Y-43591335D01*
X32410896Y-43693497D01*
X32702500Y-43751500D01*
X34101370Y-43751500D01*
X34163000Y-43813131D01*
X34163000Y-44831000D01*
X34221004Y-45122605D01*
X34348778Y-45313832D01*
X34386185Y-45369815D01*
X37007082Y-47990712D01*
X36727311Y-48106311D01*
X36423378Y-48409714D01*
X36258687Y-48806332D01*
X36258400Y-49136300D01*
X36182298Y-49136300D01*
X36182298Y-49326798D01*
X35991800Y-49136300D01*
X35637029Y-49136300D01*
X35356962Y-49252308D01*
X35142608Y-49466662D01*
X35026600Y-49746729D01*
X35026600Y-50279300D01*
X35217100Y-50469800D01*
X36182300Y-50469800D01*
X36182300Y-50449800D01*
X36461700Y-50449800D01*
X36461700Y-50469800D01*
X36481700Y-50469800D01*
X36481700Y-50749200D01*
X36461700Y-50749200D01*
X36461700Y-51892200D01*
X36652200Y-52082700D01*
X37006971Y-52082700D01*
X37287038Y-51966692D01*
X37430479Y-51823251D01*
X37528500Y-51889416D01*
X37528500Y-52325270D01*
X37477700Y-52325270D01*
X37287200Y-52515770D01*
X37287200Y-53947060D01*
X37307200Y-53947060D01*
X37307200Y-54226460D01*
X37287200Y-54226460D01*
X37287200Y-55657750D01*
X37477700Y-55848250D01*
X37572708Y-55848250D01*
X37596171Y-55966206D01*
X37733597Y-56171878D01*
X37788882Y-56254618D01*
X38601682Y-57067418D01*
X38890094Y-57260129D01*
X39230300Y-57327800D01*
X41224200Y-57327800D01*
X41564406Y-57260129D01*
X41852818Y-57067418D01*
X42729118Y-56191118D01*
X42921829Y-55902706D01*
X42989500Y-55562500D01*
X42989500Y-53212890D01*
X43330284Y-53213187D01*
X43727189Y-53049189D01*
X43753925Y-53022500D01*
X46037500Y-53022500D01*
X46377706Y-52954829D01*
X46666118Y-52762118D01*
X48708278Y-50719958D01*
X48826211Y-50543459D01*
X48917714Y-50635122D01*
X49314332Y-50799813D01*
X49743784Y-50800187D01*
X50140689Y-50636189D01*
X50164776Y-50612144D01*
X50187714Y-50635122D01*
X50584332Y-50799813D01*
X51013784Y-50800187D01*
X51410689Y-50636189D01*
X51564646Y-50482500D01*
X58548870Y-50482500D01*
X58610500Y-50544131D01*
X58610500Y-52448358D01*
X58457878Y-52600714D01*
X58431053Y-52665317D01*
X58032618Y-52266882D01*
X57986683Y-52236189D01*
X57744206Y-52074171D01*
X57404000Y-52006500D01*
X52260500Y-52006500D01*
X51920294Y-52074171D01*
X51677817Y-52236189D01*
X51631882Y-52266882D01*
X51187382Y-52711382D01*
X50994671Y-52999794D01*
X50927000Y-53340000D01*
X50927000Y-53848000D01*
X45910500Y-53848000D01*
X45570294Y-53915671D01*
X45314242Y-54086760D01*
X45281882Y-54108382D01*
X42551382Y-56838882D01*
X42358671Y-57127294D01*
X42291000Y-57467500D01*
X42291000Y-60337764D01*
X42113419Y-60515345D01*
X42077216Y-60515313D01*
X41719500Y-60663118D01*
X41719500Y-60325000D01*
X41661496Y-60033395D01*
X41496315Y-59786185D01*
X40924814Y-59214684D01*
X40677605Y-59049504D01*
X40386000Y-58991500D01*
X27114500Y-58991500D01*
X26822895Y-59049504D01*
X26723877Y-59115666D01*
X26575685Y-59214684D01*
X26098500Y-59691870D01*
X26098500Y-56248236D01*
X27565382Y-57715118D01*
X27853794Y-57907829D01*
X28194000Y-57975500D01*
X31429637Y-57975500D01*
X31455214Y-58001122D01*
X31851832Y-58165813D01*
X32281284Y-58166187D01*
X32678189Y-58002189D01*
X32982122Y-57698786D01*
X33146813Y-57302168D01*
X33147187Y-56872716D01*
X32983189Y-56475811D01*
X32679786Y-56171878D01*
X32283168Y-56007187D01*
X31853716Y-56006813D01*
X31456811Y-56170811D01*
X31430075Y-56197500D01*
X28562236Y-56197500D01*
X27178000Y-54813264D01*
X27178000Y-53489934D01*
X27182360Y-53492877D01*
X27432000Y-53542940D01*
X28067000Y-53542940D01*
X28067000Y-54576357D01*
X28144338Y-54965163D01*
X28364580Y-55294777D01*
X28694194Y-55515019D01*
X29083000Y-55592357D01*
X29471806Y-55515019D01*
X29801420Y-55294777D01*
X30021662Y-54965163D01*
X30099000Y-54576357D01*
X30099000Y-54226460D01*
X31196280Y-54226460D01*
X31005780Y-54416960D01*
X31005780Y-55237821D01*
X31121788Y-55517888D01*
X31336142Y-55732242D01*
X31616209Y-55848250D01*
X31737300Y-55848250D01*
X31927800Y-55657750D01*
X31927800Y-54226460D01*
X32207200Y-54226460D01*
X32207200Y-55657750D01*
X32397700Y-55848250D01*
X32518791Y-55848250D01*
X32702500Y-55772155D01*
X32886209Y-55848250D01*
X33007300Y-55848250D01*
X33197800Y-55657750D01*
X33197800Y-54226460D01*
X33477200Y-54226460D01*
X33197800Y-54226460D01*
X33197800Y-54226460D01*
X33477200Y-54226460D01*
X33477200Y-55657750D01*
X33667700Y-55848250D01*
X33788791Y-55848250D01*
X33972500Y-55772155D01*
X34156209Y-55848250D01*
X34277300Y-55848250D01*
X34467800Y-55657750D01*
X34467800Y-54226460D01*
X34747200Y-54226460D01*
X34467800Y-54226460D01*
X34467800Y-54226460D01*
X34747200Y-54226460D01*
X34747200Y-55657750D01*
X34937700Y-55848250D01*
X35058791Y-55848250D01*
X35242500Y-55772155D01*
X35426209Y-55848250D01*
X35547300Y-55848250D01*
X35737800Y-55657750D01*
X35737800Y-54226460D01*
X36017200Y-54226460D01*
X36017200Y-55657750D01*
X36207700Y-55848250D01*
X36328791Y-55848250D01*
X36512500Y-55772155D01*
X36696209Y-55848250D01*
X36817300Y-55848250D01*
X37007800Y-55657750D01*
X37007800Y-54226460D01*
X36017200Y-54226460D01*
X35737800Y-54226460D01*
X35737800Y-54226460D01*
X34747200Y-54226460D01*
X34467800Y-54226460D01*
X34467800Y-54226460D01*
X33477200Y-54226460D01*
X33197800Y-54226460D01*
X33197800Y-54226460D01*
X32207200Y-54226460D01*
X31927800Y-54226460D01*
X31927800Y-54226460D01*
X31196280Y-54226460D01*
X30099000Y-54226460D01*
X30099000Y-53581300D01*
X30213300Y-53467000D01*
X30213300Y-52654200D01*
X30193300Y-52654200D01*
X30193300Y-52458500D01*
X30213300Y-52440700D01*
X30213300Y-51130200D01*
X30492700Y-51130200D01*
X30492700Y-52440700D01*
X30512700Y-52458500D01*
X30512700Y-52654200D01*
X30492700Y-52654200D01*
X30492700Y-53467000D01*
X30683200Y-53657500D01*
X30885571Y-53657500D01*
X31005780Y-53607708D01*
X31005780Y-53756560D01*
X31196280Y-53947060D01*
X31927800Y-53947060D01*
X31927800Y-52515770D01*
X31737300Y-52325270D01*
X32397700Y-52325270D01*
X31737300Y-52325270D01*
X31737300Y-52325270D01*
X32397700Y-52325270D01*
X32207200Y-52515770D01*
X32207200Y-53947060D01*
X33197800Y-53947060D01*
X33197800Y-52515770D01*
X33007300Y-52325270D01*
X33667700Y-52325270D01*
X33477200Y-52515770D01*
X33477200Y-53947060D01*
X34467800Y-53947060D01*
X34467800Y-52515770D01*
X34277300Y-52325270D01*
X34937700Y-52325270D01*
X34277300Y-52325270D01*
X34277300Y-52325270D01*
X34937700Y-52325270D01*
X34747200Y-52515770D01*
X34747200Y-53947060D01*
X35737800Y-53947060D01*
X35737800Y-52515770D01*
X35547300Y-52325270D01*
X36207700Y-52325270D01*
X36017200Y-52515770D01*
X36017200Y-53947060D01*
X37007800Y-53947060D01*
X37007800Y-52515770D01*
X36817300Y-52325270D01*
X36696209Y-52325270D01*
X36512500Y-52401365D01*
X36328791Y-52325270D01*
X36207700Y-52325270D01*
X35547300Y-52325270D01*
X35547300Y-52325270D01*
X35426209Y-52325270D01*
X35242500Y-52401365D01*
X35058791Y-52325270D01*
X34937700Y-52325270D01*
X34277300Y-52325270D01*
X34277300Y-52325270D01*
X34156209Y-52325270D01*
X33972500Y-52401365D01*
X33788791Y-52325270D01*
X33667700Y-52325270D01*
X33007300Y-52325270D01*
X33007300Y-52325270D01*
X32886209Y-52325270D01*
X32702500Y-52401365D01*
X32518791Y-52325270D01*
X32397700Y-52325270D01*
X31737300Y-52325270D01*
X31737300Y-52325270D01*
X31616209Y-52325270D01*
X31496000Y-52375062D01*
X31496000Y-52374798D01*
X31305502Y-52374798D01*
X31496000Y-52184300D01*
X31496000Y-51981929D01*
X31432959Y-51829735D01*
X31496000Y-51638200D01*
X31496000Y-51130200D01*
X30492700Y-51130200D01*
X30213300Y-51130200D01*
X30213300Y-51130200D01*
X30193300Y-51130200D01*
X30193300Y-50850800D01*
X30213300Y-50850800D01*
X30213300Y-50830800D01*
X30492700Y-50830800D01*
X30492700Y-50850800D01*
X31496000Y-50850800D01*
X31496000Y-50749200D01*
X35217100Y-50749200D01*
X35026600Y-50939700D01*
X35026600Y-51472271D01*
X35142608Y-51752338D01*
X35356962Y-51966692D01*
X35637029Y-52082700D01*
X35991800Y-52082700D01*
X36182300Y-51892200D01*
X36182300Y-50749200D01*
X35217100Y-50749200D01*
X31496000Y-50749200D01*
X31496000Y-50342800D01*
X31355533Y-49916027D01*
X31187021Y-49720240D01*
X31320740Y-49720240D01*
X31466742Y-49691912D01*
X31493622Y-49718792D01*
X31773689Y-49834800D01*
X32245300Y-49834800D01*
X32435800Y-49644300D01*
X32435800Y-48463200D01*
X32715200Y-48463200D01*
X32715200Y-49644300D01*
X32905700Y-49834800D01*
X33377311Y-49834800D01*
X33657378Y-49718792D01*
X33871732Y-49504438D01*
X33987740Y-49224371D01*
X33987740Y-48653700D01*
X33797240Y-48463200D01*
X32715200Y-48463200D01*
X32435800Y-48463200D01*
X32435800Y-48463200D01*
X32415800Y-48463200D01*
X32415800Y-48183800D01*
X32435800Y-48183800D01*
X32435800Y-47002700D01*
X32245300Y-46812200D01*
X32905700Y-46812200D01*
X32715200Y-47002700D01*
X32715200Y-48183800D01*
X33797240Y-48183800D01*
X33987740Y-47993300D01*
X33987740Y-47422629D01*
X33871732Y-47142562D01*
X33657378Y-46928208D01*
X33377311Y-46812200D01*
X32905700Y-46812200D01*
X32245300Y-46812200D01*
X32245300Y-46812200D01*
X31773689Y-46812200D01*
X31493622Y-46928208D01*
X31465950Y-46955880D01*
X31320740Y-46926760D01*
X30020260Y-46926760D01*
X29778137Y-46973737D01*
X29735230Y-47001922D01*
X29621815Y-46832184D01*
X27559000Y-44769370D01*
X27559000Y-42875200D01*
X27673300Y-42875200D01*
X27863800Y-42684700D01*
X27863800Y-41541700D01*
X27843800Y-41541700D01*
X27843800Y-41262300D01*
X27863800Y-41262300D01*
X27863800Y-40119300D01*
X27716815Y-39972315D01*
X27811130Y-39878000D01*
X30702217Y-39878000D01*
X30589029Y-40047397D01*
X30589029Y-40047397D01*
G37*
X30589029Y-40047397D02*
X30568900Y-40043360D01*
X29502100Y-40043360D01*
X29259977Y-40090337D01*
X29111561Y-40187831D01*
X28968538Y-40044808D01*
X28688471Y-39928800D01*
X28333700Y-39928800D01*
X28143200Y-40119300D01*
X28143200Y-41262300D01*
X28163200Y-41262300D01*
X28163200Y-41541700D01*
X28143200Y-41541700D01*
X28143200Y-42684700D01*
X28333700Y-42875200D01*
X28688471Y-42875200D01*
X28968538Y-42759192D01*
X29111979Y-42615751D01*
X29252460Y-42710577D01*
X29502100Y-42760640D01*
X30480000Y-42760640D01*
X30480000Y-42973561D01*
X30213041Y-42862710D01*
X29733065Y-42862291D01*
X29289465Y-43045582D01*
X28949775Y-43384680D01*
X28765710Y-43827959D01*
X28765291Y-44307935D01*
X28948582Y-44751535D01*
X29287680Y-45091225D01*
X29730959Y-45275290D01*
X30210935Y-45275709D01*
X30289583Y-45243213D01*
X30289313Y-45552784D01*
X30453311Y-45949689D01*
X30756714Y-46253622D01*
X31153332Y-46418313D01*
X31582784Y-46418687D01*
X31979689Y-46254689D01*
X32283622Y-45951286D01*
X32448313Y-45554668D01*
X32448687Y-45125216D01*
X32284689Y-44728311D01*
X32258000Y-44701575D01*
X32258000Y-43591335D01*
X32410896Y-43693497D01*
X32702500Y-43751500D01*
X34101370Y-43751500D01*
X34163000Y-43813131D01*
X34163000Y-44831000D01*
X34221004Y-45122605D01*
X34348778Y-45313832D01*
X34386185Y-45369815D01*
X37007082Y-47990712D01*
X36727311Y-48106311D01*
X36423378Y-48409714D01*
X36258687Y-48806332D01*
X36258400Y-49136300D01*
X36182298Y-49136300D01*
X36182298Y-49326798D01*
X35991800Y-49136300D01*
X35637029Y-49136300D01*
X35356962Y-49252308D01*
X35142608Y-49466662D01*
X35026600Y-49746729D01*
X35026600Y-50279300D01*
X35217100Y-50469800D01*
X36182300Y-50469800D01*
X36182300Y-50449800D01*
X36461700Y-50449800D01*
X36461700Y-50469800D01*
X36481700Y-50469800D01*
X36481700Y-50749200D01*
X36461700Y-50749200D01*
X36461700Y-51892200D01*
X36652200Y-52082700D01*
X37006971Y-52082700D01*
X37287038Y-51966692D01*
X37430479Y-51823251D01*
X37528500Y-51889416D01*
X37528500Y-52325270D01*
X37477700Y-52325270D01*
X37287200Y-52515770D01*
X37287200Y-53947060D01*
X37307200Y-53947060D01*
X37307200Y-54226460D01*
X37287200Y-54226460D01*
X37287200Y-55657750D01*
X37477700Y-55848250D01*
X37572708Y-55848250D01*
X37596171Y-55966206D01*
X37733597Y-56171878D01*
X37788882Y-56254618D01*
X38601682Y-57067418D01*
X38890094Y-57260129D01*
X39230300Y-57327800D01*
X41224200Y-57327800D01*
X41564406Y-57260129D01*
X41852818Y-57067418D01*
X42729118Y-56191118D01*
X42921829Y-55902706D01*
X42989500Y-55562500D01*
X42989500Y-53212890D01*
X43330284Y-53213187D01*
X43727189Y-53049189D01*
X43753925Y-53022500D01*
X46037500Y-53022500D01*
X46377706Y-52954829D01*
X46666118Y-52762118D01*
X48708278Y-50719958D01*
X48826211Y-50543459D01*
X48917714Y-50635122D01*
X49314332Y-50799813D01*
X49743784Y-50800187D01*
X50140689Y-50636189D01*
X50164776Y-50612144D01*
X50187714Y-50635122D01*
X50584332Y-50799813D01*
X51013784Y-50800187D01*
X51410689Y-50636189D01*
X51564646Y-50482500D01*
X58548870Y-50482500D01*
X58610500Y-50544131D01*
X58610500Y-52448358D01*
X58457878Y-52600714D01*
X58431053Y-52665317D01*
X58032618Y-52266882D01*
X57986683Y-52236189D01*
X57744206Y-52074171D01*
X57404000Y-52006500D01*
X52260500Y-52006500D01*
X51920294Y-52074171D01*
X51677817Y-52236189D01*
X51631882Y-52266882D01*
X51187382Y-52711382D01*
X50994671Y-52999794D01*
X50927000Y-53340000D01*
X50927000Y-53848000D01*
X45910500Y-53848000D01*
X45570294Y-53915671D01*
X45314242Y-54086760D01*
X45281882Y-54108382D01*
X42551382Y-56838882D01*
X42358671Y-57127294D01*
X42291000Y-57467500D01*
X42291000Y-60337764D01*
X42113419Y-60515345D01*
X42077216Y-60515313D01*
X41719500Y-60663118D01*
X41719500Y-60325000D01*
X41661496Y-60033395D01*
X41496315Y-59786185D01*
X40924814Y-59214684D01*
X40677605Y-59049504D01*
X40386000Y-58991500D01*
X27114500Y-58991500D01*
X26822895Y-59049504D01*
X26723877Y-59115666D01*
X26575685Y-59214684D01*
X26098500Y-59691870D01*
X26098500Y-56248236D01*
X27565382Y-57715118D01*
X27853794Y-57907829D01*
X28194000Y-57975500D01*
X31429637Y-57975500D01*
X31455214Y-58001122D01*
X31851832Y-58165813D01*
X32281284Y-58166187D01*
X32678189Y-58002189D01*
X32982122Y-57698786D01*
X33146813Y-57302168D01*
X33147187Y-56872716D01*
X32983189Y-56475811D01*
X32679786Y-56171878D01*
X32283168Y-56007187D01*
X31853716Y-56006813D01*
X31456811Y-56170811D01*
X31430075Y-56197500D01*
X28562236Y-56197500D01*
X27178000Y-54813264D01*
X27178000Y-53489934D01*
X27182360Y-53492877D01*
X27432000Y-53542940D01*
X28067000Y-53542940D01*
X28067000Y-54576357D01*
X28144338Y-54965163D01*
X28364580Y-55294777D01*
X28694194Y-55515019D01*
X29083000Y-55592357D01*
X29471806Y-55515019D01*
X29801420Y-55294777D01*
X30021662Y-54965163D01*
X30099000Y-54576357D01*
X30099000Y-54226460D01*
X31196280Y-54226460D01*
X31005780Y-54416960D01*
X31005780Y-55237821D01*
X31121788Y-55517888D01*
X31336142Y-55732242D01*
X31616209Y-55848250D01*
X31737300Y-55848250D01*
X31927800Y-55657750D01*
X31927800Y-54226460D01*
X32207200Y-54226460D01*
X32207200Y-55657750D01*
X32397700Y-55848250D01*
X32518791Y-55848250D01*
X32702500Y-55772155D01*
X32886209Y-55848250D01*
X33007300Y-55848250D01*
X33197800Y-55657750D01*
X33197800Y-54226460D01*
X33477200Y-54226460D01*
X33197800Y-54226460D01*
X33197800Y-54226460D01*
X33477200Y-54226460D01*
X33477200Y-55657750D01*
X33667700Y-55848250D01*
X33788791Y-55848250D01*
X33972500Y-55772155D01*
X34156209Y-55848250D01*
X34277300Y-55848250D01*
X34467800Y-55657750D01*
X34467800Y-54226460D01*
X34747200Y-54226460D01*
X34467800Y-54226460D01*
X34467800Y-54226460D01*
X34747200Y-54226460D01*
X34747200Y-55657750D01*
X34937700Y-55848250D01*
X35058791Y-55848250D01*
X35242500Y-55772155D01*
X35426209Y-55848250D01*
X35547300Y-55848250D01*
X35737800Y-55657750D01*
X35737800Y-54226460D01*
X36017200Y-54226460D01*
X36017200Y-55657750D01*
X36207700Y-55848250D01*
X36328791Y-55848250D01*
X36512500Y-55772155D01*
X36696209Y-55848250D01*
X36817300Y-55848250D01*
X37007800Y-55657750D01*
X37007800Y-54226460D01*
X36017200Y-54226460D01*
X35737800Y-54226460D01*
X35737800Y-54226460D01*
X34747200Y-54226460D01*
X34467800Y-54226460D01*
X34467800Y-54226460D01*
X33477200Y-54226460D01*
X33197800Y-54226460D01*
X33197800Y-54226460D01*
X32207200Y-54226460D01*
X31927800Y-54226460D01*
X31927800Y-54226460D01*
X31196280Y-54226460D01*
X30099000Y-54226460D01*
X30099000Y-53581300D01*
X30213300Y-53467000D01*
X30213300Y-52654200D01*
X30193300Y-52654200D01*
X30193300Y-52458500D01*
X30213300Y-52440700D01*
X30213300Y-51130200D01*
X30492700Y-51130200D01*
X30492700Y-52440700D01*
X30512700Y-52458500D01*
X30512700Y-52654200D01*
X30492700Y-52654200D01*
X30492700Y-53467000D01*
X30683200Y-53657500D01*
X30885571Y-53657500D01*
X31005780Y-53607708D01*
X31005780Y-53756560D01*
X31196280Y-53947060D01*
X31927800Y-53947060D01*
X31927800Y-52515770D01*
X31737300Y-52325270D01*
X32397700Y-52325270D01*
X31737300Y-52325270D01*
X31737300Y-52325270D01*
X32397700Y-52325270D01*
X32207200Y-52515770D01*
X32207200Y-53947060D01*
X33197800Y-53947060D01*
X33197800Y-52515770D01*
X33007300Y-52325270D01*
X33667700Y-52325270D01*
X33477200Y-52515770D01*
X33477200Y-53947060D01*
X34467800Y-53947060D01*
X34467800Y-52515770D01*
X34277300Y-52325270D01*
X34937700Y-52325270D01*
X34277300Y-52325270D01*
X34277300Y-52325270D01*
X34937700Y-52325270D01*
X34747200Y-52515770D01*
X34747200Y-53947060D01*
X35737800Y-53947060D01*
X35737800Y-52515770D01*
X35547300Y-52325270D01*
X36207700Y-52325270D01*
X36017200Y-52515770D01*
X36017200Y-53947060D01*
X37007800Y-53947060D01*
X37007800Y-52515770D01*
X36817300Y-52325270D01*
X36696209Y-52325270D01*
X36512500Y-52401365D01*
X36328791Y-52325270D01*
X36207700Y-52325270D01*
X35547300Y-52325270D01*
X35547300Y-52325270D01*
X35426209Y-52325270D01*
X35242500Y-52401365D01*
X35058791Y-52325270D01*
X34937700Y-52325270D01*
X34277300Y-52325270D01*
X34277300Y-52325270D01*
X34156209Y-52325270D01*
X33972500Y-52401365D01*
X33788791Y-52325270D01*
X33667700Y-52325270D01*
X33007300Y-52325270D01*
X33007300Y-52325270D01*
X32886209Y-52325270D01*
X32702500Y-52401365D01*
X32518791Y-52325270D01*
X32397700Y-52325270D01*
X31737300Y-52325270D01*
X31737300Y-52325270D01*
X31616209Y-52325270D01*
X31496000Y-52375062D01*
X31496000Y-52374798D01*
X31305502Y-52374798D01*
X31496000Y-52184300D01*
X31496000Y-51981929D01*
X31432959Y-51829735D01*
X31496000Y-51638200D01*
X31496000Y-51130200D01*
X30492700Y-51130200D01*
X30213300Y-51130200D01*
X30213300Y-51130200D01*
X30193300Y-51130200D01*
X30193300Y-50850800D01*
X30213300Y-50850800D01*
X30213300Y-50830800D01*
X30492700Y-50830800D01*
X30492700Y-50850800D01*
X31496000Y-50850800D01*
X31496000Y-50749200D01*
X35217100Y-50749200D01*
X35026600Y-50939700D01*
X35026600Y-51472271D01*
X35142608Y-51752338D01*
X35356962Y-51966692D01*
X35637029Y-52082700D01*
X35991800Y-52082700D01*
X36182300Y-51892200D01*
X36182300Y-50749200D01*
X35217100Y-50749200D01*
X31496000Y-50749200D01*
X31496000Y-50342800D01*
X31355533Y-49916027D01*
X31187021Y-49720240D01*
X31320740Y-49720240D01*
X31466742Y-49691912D01*
X31493622Y-49718792D01*
X31773689Y-49834800D01*
X32245300Y-49834800D01*
X32435800Y-49644300D01*
X32435800Y-48463200D01*
X32715200Y-48463200D01*
X32715200Y-49644300D01*
X32905700Y-49834800D01*
X33377311Y-49834800D01*
X33657378Y-49718792D01*
X33871732Y-49504438D01*
X33987740Y-49224371D01*
X33987740Y-48653700D01*
X33797240Y-48463200D01*
X32715200Y-48463200D01*
X32435800Y-48463200D01*
X32435800Y-48463200D01*
X32415800Y-48463200D01*
X32415800Y-48183800D01*
X32435800Y-48183800D01*
X32435800Y-47002700D01*
X32245300Y-46812200D01*
X32905700Y-46812200D01*
X32715200Y-47002700D01*
X32715200Y-48183800D01*
X33797240Y-48183800D01*
X33987740Y-47993300D01*
X33987740Y-47422629D01*
X33871732Y-47142562D01*
X33657378Y-46928208D01*
X33377311Y-46812200D01*
X32905700Y-46812200D01*
X32245300Y-46812200D01*
X32245300Y-46812200D01*
X31773689Y-46812200D01*
X31493622Y-46928208D01*
X31465950Y-46955880D01*
X31320740Y-46926760D01*
X30020260Y-46926760D01*
X29778137Y-46973737D01*
X29735230Y-47001922D01*
X29621815Y-46832184D01*
X27559000Y-44769370D01*
X27559000Y-42875200D01*
X27673300Y-42875200D01*
X27863800Y-42684700D01*
X27863800Y-41541700D01*
X27843800Y-41541700D01*
X27843800Y-41262300D01*
X27863800Y-41262300D01*
X27863800Y-40119300D01*
X27716815Y-39972315D01*
X27811130Y-39878000D01*
X30702217Y-39878000D01*
X30589029Y-40047397D01*
G36*
X77428629Y-51698026D02*
X77840647Y-51973327D01*
X78326655Y-52070000D01*
X77840647Y-52166673D01*
X77428629Y-52441974D01*
X77153328Y-52853992D01*
X77056655Y-53340000D01*
X77153328Y-53826008D01*
X77428629Y-54238026D01*
X77840647Y-54513327D01*
X78326655Y-54610000D01*
X79153345Y-54610000D01*
X79639353Y-54513327D01*
X80010000Y-54265669D01*
X80380647Y-54513327D01*
X80866655Y-54610000D01*
X81693345Y-54610000D01*
X82179353Y-54513327D01*
X82591371Y-54238026D01*
X82804000Y-53919803D01*
X82804000Y-56644714D01*
X82296000Y-56543667D01*
X81761391Y-56650007D01*
X81308172Y-56952839D01*
X81262886Y-57020613D01*
X81163992Y-56781862D01*
X80949638Y-56567508D01*
X80669571Y-56451500D01*
X80086200Y-56451500D01*
X79895700Y-56642000D01*
X79895700Y-58216800D01*
X79915700Y-58216800D01*
X79915700Y-58496200D01*
X79895700Y-58496200D01*
X79895700Y-58516200D01*
X79616300Y-58516200D01*
X79616300Y-58496200D01*
X79596300Y-58496200D01*
X79596300Y-58216800D01*
X79616300Y-58216800D01*
X79616300Y-56642000D01*
X79425800Y-56451500D01*
X78842429Y-56451500D01*
X78562362Y-56567508D01*
X78348008Y-56781862D01*
X78249114Y-57020613D01*
X78203828Y-56952839D01*
X77978000Y-56801945D01*
X77978000Y-56705500D01*
X77919996Y-56413895D01*
X77754815Y-56166685D01*
X76926180Y-55338050D01*
X76926180Y-54593490D01*
X76879203Y-54351367D01*
X76756428Y-54164464D01*
X76876117Y-53987150D01*
X76926180Y-53737510D01*
X76926180Y-52688490D01*
X76879203Y-52446367D01*
X76739413Y-52233563D01*
X76621104Y-52153703D01*
X76772323Y-52124363D01*
X76985127Y-51984573D01*
X77127577Y-51773540D01*
X77177640Y-51523900D01*
X77177640Y-51322394D01*
X77428629Y-51698026D01*
X77428629Y-51698026D01*
G37*
X77428629Y-51698026D02*
X77840647Y-51973327D01*
X78326655Y-52070000D01*
X77840647Y-52166673D01*
X77428629Y-52441974D01*
X77153328Y-52853992D01*
X77056655Y-53340000D01*
X77153328Y-53826008D01*
X77428629Y-54238026D01*
X77840647Y-54513327D01*
X78326655Y-54610000D01*
X79153345Y-54610000D01*
X79639353Y-54513327D01*
X80010000Y-54265669D01*
X80380647Y-54513327D01*
X80866655Y-54610000D01*
X81693345Y-54610000D01*
X82179353Y-54513327D01*
X82591371Y-54238026D01*
X82804000Y-53919803D01*
X82804000Y-56644714D01*
X82296000Y-56543667D01*
X81761391Y-56650007D01*
X81308172Y-56952839D01*
X81262886Y-57020613D01*
X81163992Y-56781862D01*
X80949638Y-56567508D01*
X80669571Y-56451500D01*
X80086200Y-56451500D01*
X79895700Y-56642000D01*
X79895700Y-58216800D01*
X79915700Y-58216800D01*
X79915700Y-58496200D01*
X79895700Y-58496200D01*
X79895700Y-58516200D01*
X79616300Y-58516200D01*
X79616300Y-58496200D01*
X79596300Y-58496200D01*
X79596300Y-58216800D01*
X79616300Y-58216800D01*
X79616300Y-56642000D01*
X79425800Y-56451500D01*
X78842429Y-56451500D01*
X78562362Y-56567508D01*
X78348008Y-56781862D01*
X78249114Y-57020613D01*
X78203828Y-56952839D01*
X77978000Y-56801945D01*
X77978000Y-56705500D01*
X77919996Y-56413895D01*
X77754815Y-56166685D01*
X76926180Y-55338050D01*
X76926180Y-54593490D01*
X76879203Y-54351367D01*
X76756428Y-54164464D01*
X76876117Y-53987150D01*
X76926180Y-53737510D01*
X76926180Y-52688490D01*
X76879203Y-52446367D01*
X76739413Y-52233563D01*
X76621104Y-52153703D01*
X76772323Y-52124363D01*
X76985127Y-51984573D01*
X77127577Y-51773540D01*
X77177640Y-51523900D01*
X77177640Y-51322394D01*
X77428629Y-51698026D01*
G36*
X67564000Y-47434500D02*
X67564000Y-55246869D01*
X67232457Y-55578413D01*
X67209689Y-55523311D01*
X66906286Y-55219378D01*
X66509668Y-55054687D01*
X66382009Y-55054576D01*
X66167000Y-54839566D01*
X66167000Y-48601934D01*
X67621002Y-47147931D01*
X67564000Y-47434500D01*
X67564000Y-47434500D01*
G37*
X67564000Y-47434500D02*
X67564000Y-55246869D01*
X67232457Y-55578413D01*
X67209689Y-55523311D01*
X66906286Y-55219378D01*
X66509668Y-55054687D01*
X66382009Y-55054576D01*
X66167000Y-54839566D01*
X66167000Y-48601934D01*
X67621002Y-47147931D01*
X67564000Y-47434500D01*
G36*
X74825714Y-47396622D02*
X75222332Y-47561313D01*
X75651784Y-47561687D01*
X76048689Y-47397689D01*
X76138702Y-47307833D01*
X76359684Y-47528815D01*
X76557595Y-47661055D01*
X76560656Y-47663100D01*
X76149200Y-47663100D01*
X75958700Y-47853600D01*
X75958700Y-48818800D01*
X77101700Y-48818800D01*
X77161805Y-48758695D01*
X77428629Y-49158026D01*
X77840647Y-49433327D01*
X78326655Y-49530000D01*
X77840647Y-49626673D01*
X77428629Y-49901974D01*
X77153328Y-50313992D01*
X77151580Y-50322782D01*
X77130663Y-50214977D01*
X77033169Y-50066561D01*
X77176192Y-49923538D01*
X77292200Y-49643471D01*
X77292200Y-49288700D01*
X77101700Y-49098200D01*
X75958700Y-49098200D01*
X75958700Y-49118200D01*
X75679300Y-49118200D01*
X75679300Y-49098200D01*
X74536300Y-49098200D01*
X74485500Y-49149000D01*
X74434700Y-49098200D01*
X73291700Y-49098200D01*
X73291700Y-49118200D01*
X73012300Y-49118200D01*
X73012300Y-49098200D01*
X72992300Y-49098200D01*
X72992300Y-48818800D01*
X73012300Y-48818800D01*
X73012300Y-48798800D01*
X73291700Y-48798800D01*
X73291700Y-48818800D01*
X74434700Y-48818800D01*
X74485500Y-48768000D01*
X74536300Y-48818800D01*
X75679300Y-48818800D01*
X75679300Y-47853600D01*
X75488800Y-47663100D01*
X74956229Y-47663100D01*
X74676162Y-47779108D01*
X74485500Y-47969770D01*
X74294838Y-47779108D01*
X74014771Y-47663100D01*
X73482200Y-47663100D01*
X73291702Y-47853598D01*
X73291702Y-47663100D01*
X73172990Y-47663100D01*
X73592091Y-47244000D01*
X74673358Y-47244000D01*
X74825714Y-47396622D01*
X74825714Y-47396622D01*
G37*
X74825714Y-47396622D02*
X75222332Y-47561313D01*
X75651784Y-47561687D01*
X76048689Y-47397689D01*
X76138702Y-47307833D01*
X76359684Y-47528815D01*
X76557595Y-47661055D01*
X76560656Y-47663100D01*
X76149200Y-47663100D01*
X75958700Y-47853600D01*
X75958700Y-48818800D01*
X77101700Y-48818800D01*
X77161805Y-48758695D01*
X77428629Y-49158026D01*
X77840647Y-49433327D01*
X78326655Y-49530000D01*
X77840647Y-49626673D01*
X77428629Y-49901974D01*
X77153328Y-50313992D01*
X77151580Y-50322782D01*
X77130663Y-50214977D01*
X77033169Y-50066561D01*
X77176192Y-49923538D01*
X77292200Y-49643471D01*
X77292200Y-49288700D01*
X77101700Y-49098200D01*
X75958700Y-49098200D01*
X75958700Y-49118200D01*
X75679300Y-49118200D01*
X75679300Y-49098200D01*
X74536300Y-49098200D01*
X74485500Y-49149000D01*
X74434700Y-49098200D01*
X73291700Y-49098200D01*
X73291700Y-49118200D01*
X73012300Y-49118200D01*
X73012300Y-49098200D01*
X72992300Y-49098200D01*
X72992300Y-48818800D01*
X73012300Y-48818800D01*
X73012300Y-48798800D01*
X73291700Y-48798800D01*
X73291700Y-48818800D01*
X74434700Y-48818800D01*
X74485500Y-48768000D01*
X74536300Y-48818800D01*
X75679300Y-48818800D01*
X75679300Y-47853600D01*
X75488800Y-47663100D01*
X74956229Y-47663100D01*
X74676162Y-47779108D01*
X74485500Y-47969770D01*
X74294838Y-47779108D01*
X74014771Y-47663100D01*
X73482200Y-47663100D01*
X73291702Y-47853598D01*
X73291702Y-47663100D01*
X73172990Y-47663100D01*
X73592091Y-47244000D01*
X74673358Y-47244000D01*
X74825714Y-47396622D01*
G36*
X102461453Y-32833671D02*
X102521685Y-32923815D01*
X103156685Y-33558816D01*
X103278494Y-33640206D01*
X103200200Y-33718500D01*
X103200200Y-34912300D01*
X105460800Y-34912300D01*
X105460800Y-34892300D01*
X105740200Y-34892300D01*
X105740200Y-34912300D01*
X105760200Y-34912300D01*
X105760200Y-35191700D01*
X105740200Y-35191700D01*
X105740200Y-36385500D01*
X105930700Y-36576000D01*
X106299000Y-36576000D01*
X106299000Y-36925207D01*
X106070168Y-36830187D01*
X105640716Y-36829813D01*
X105243811Y-36993811D01*
X105089854Y-37147500D01*
X103253642Y-37147500D01*
X103101286Y-36994878D01*
X102704668Y-36830187D01*
X102275216Y-36829813D01*
X101878311Y-36993811D01*
X101574378Y-37297214D01*
X101409687Y-37693832D01*
X101409313Y-38123284D01*
X101573311Y-38520189D01*
X101724356Y-38671498D01*
X101574378Y-38821214D01*
X101409687Y-39217832D01*
X101409389Y-39560500D01*
X97917000Y-39560500D01*
X97625395Y-39618504D01*
X97387159Y-39777689D01*
X97378185Y-39783685D01*
X96489185Y-40672685D01*
X96324004Y-40919895D01*
X96266000Y-41211500D01*
X96266000Y-46601559D01*
X96232870Y-46568371D01*
X95719600Y-46355243D01*
X95163839Y-46354758D01*
X94650197Y-46566990D01*
X94410980Y-46805790D01*
X94308492Y-46558362D01*
X94094138Y-46344008D01*
X93814071Y-46228000D01*
X93230700Y-46228000D01*
X93040200Y-46418500D01*
X93040200Y-47612300D01*
X93060200Y-47612300D01*
X93060200Y-47891700D01*
X93040200Y-47891700D01*
X93040200Y-47911700D01*
X92760800Y-47911700D01*
X92760800Y-47891700D01*
X92740800Y-47891700D01*
X92740800Y-47612300D01*
X92760800Y-47612300D01*
X92760800Y-46418500D01*
X92570300Y-46228000D01*
X91986929Y-46228000D01*
X91757500Y-46323033D01*
X91757500Y-35884386D01*
X92108130Y-36235629D01*
X92621400Y-36448757D01*
X93177161Y-36449242D01*
X93690803Y-36237010D01*
X94084129Y-35844370D01*
X94170449Y-35636488D01*
X94255490Y-35842303D01*
X94648130Y-36235629D01*
X95161400Y-36448757D01*
X95717161Y-36449242D01*
X96230803Y-36237010D01*
X96624129Y-35844370D01*
X96710449Y-35636488D01*
X96795490Y-35842303D01*
X97188130Y-36235629D01*
X97701400Y-36448757D01*
X98257161Y-36449242D01*
X98770803Y-36237010D01*
X99164129Y-35844370D01*
X99250449Y-35636488D01*
X99335490Y-35842303D01*
X99728130Y-36235629D01*
X100241400Y-36448757D01*
X100797161Y-36449242D01*
X101310803Y-36237010D01*
X101550020Y-35998210D01*
X101652508Y-36245638D01*
X101866862Y-36459992D01*
X102146929Y-36576000D01*
X102730300Y-36576000D01*
X102920800Y-36385500D01*
X102920800Y-35191700D01*
X103200200Y-35191700D01*
X103200200Y-36385500D01*
X103390700Y-36576000D01*
X103974071Y-36576000D01*
X104254138Y-36459992D01*
X104330500Y-36383630D01*
X104406862Y-36459992D01*
X104686929Y-36576000D01*
X105270300Y-36576000D01*
X105460800Y-36385500D01*
X105460800Y-35191700D01*
X103200200Y-35191700D01*
X102920800Y-35191700D01*
X102920800Y-35191700D01*
X102900800Y-35191700D01*
X102900800Y-34912300D01*
X102920800Y-34912300D01*
X102920800Y-33718500D01*
X102730300Y-33528000D01*
X102146929Y-33528000D01*
X101866862Y-33644008D01*
X101652508Y-33858362D01*
X101549977Y-34105892D01*
X101312870Y-33868371D01*
X101139322Y-33796308D01*
X102042631Y-32892999D01*
X102258284Y-32893187D01*
X102448660Y-32814525D01*
X102461453Y-32833671D01*
X102461453Y-32833671D01*
G37*
X102461453Y-32833671D02*
X102521685Y-32923815D01*
X103156685Y-33558816D01*
X103278494Y-33640206D01*
X103200200Y-33718500D01*
X103200200Y-34912300D01*
X105460800Y-34912300D01*
X105460800Y-34892300D01*
X105740200Y-34892300D01*
X105740200Y-34912300D01*
X105760200Y-34912300D01*
X105760200Y-35191700D01*
X105740200Y-35191700D01*
X105740200Y-36385500D01*
X105930700Y-36576000D01*
X106299000Y-36576000D01*
X106299000Y-36925207D01*
X106070168Y-36830187D01*
X105640716Y-36829813D01*
X105243811Y-36993811D01*
X105089854Y-37147500D01*
X103253642Y-37147500D01*
X103101286Y-36994878D01*
X102704668Y-36830187D01*
X102275216Y-36829813D01*
X101878311Y-36993811D01*
X101574378Y-37297214D01*
X101409687Y-37693832D01*
X101409313Y-38123284D01*
X101573311Y-38520189D01*
X101724356Y-38671498D01*
X101574378Y-38821214D01*
X101409687Y-39217832D01*
X101409389Y-39560500D01*
X97917000Y-39560500D01*
X97625395Y-39618504D01*
X97387159Y-39777689D01*
X97378185Y-39783685D01*
X96489185Y-40672685D01*
X96324004Y-40919895D01*
X96266000Y-41211500D01*
X96266000Y-46601559D01*
X96232870Y-46568371D01*
X95719600Y-46355243D01*
X95163839Y-46354758D01*
X94650197Y-46566990D01*
X94410980Y-46805790D01*
X94308492Y-46558362D01*
X94094138Y-46344008D01*
X93814071Y-46228000D01*
X93230700Y-46228000D01*
X93040200Y-46418500D01*
X93040200Y-47612300D01*
X93060200Y-47612300D01*
X93060200Y-47891700D01*
X93040200Y-47891700D01*
X93040200Y-47911700D01*
X92760800Y-47911700D01*
X92760800Y-47891700D01*
X92740800Y-47891700D01*
X92740800Y-47612300D01*
X92760800Y-47612300D01*
X92760800Y-46418500D01*
X92570300Y-46228000D01*
X91986929Y-46228000D01*
X91757500Y-46323033D01*
X91757500Y-35884386D01*
X92108130Y-36235629D01*
X92621400Y-36448757D01*
X93177161Y-36449242D01*
X93690803Y-36237010D01*
X94084129Y-35844370D01*
X94170449Y-35636488D01*
X94255490Y-35842303D01*
X94648130Y-36235629D01*
X95161400Y-36448757D01*
X95717161Y-36449242D01*
X96230803Y-36237010D01*
X96624129Y-35844370D01*
X96710449Y-35636488D01*
X96795490Y-35842303D01*
X97188130Y-36235629D01*
X97701400Y-36448757D01*
X98257161Y-36449242D01*
X98770803Y-36237010D01*
X99164129Y-35844370D01*
X99250449Y-35636488D01*
X99335490Y-35842303D01*
X99728130Y-36235629D01*
X100241400Y-36448757D01*
X100797161Y-36449242D01*
X101310803Y-36237010D01*
X101550020Y-35998210D01*
X101652508Y-36245638D01*
X101866862Y-36459992D01*
X102146929Y-36576000D01*
X102730300Y-36576000D01*
X102920800Y-36385500D01*
X102920800Y-35191700D01*
X103200200Y-35191700D01*
X103200200Y-36385500D01*
X103390700Y-36576000D01*
X103974071Y-36576000D01*
X104254138Y-36459992D01*
X104330500Y-36383630D01*
X104406862Y-36459992D01*
X104686929Y-36576000D01*
X105270300Y-36576000D01*
X105460800Y-36385500D01*
X105460800Y-35191700D01*
X103200200Y-35191700D01*
X102920800Y-35191700D01*
X102920800Y-35191700D01*
X102900800Y-35191700D01*
X102900800Y-34912300D01*
X102920800Y-34912300D01*
X102920800Y-33718500D01*
X102730300Y-33528000D01*
X102146929Y-33528000D01*
X101866862Y-33644008D01*
X101652508Y-33858362D01*
X101549977Y-34105892D01*
X101312870Y-33868371D01*
X101139322Y-33796308D01*
X102042631Y-32892999D01*
X102258284Y-32893187D01*
X102448660Y-32814525D01*
X102461453Y-32833671D01*
G36*
X102298500Y-27060795D02*
X102270197Y-27072490D01*
X101876871Y-27465130D01*
X101790551Y-27673012D01*
X101705510Y-27467197D01*
X101312870Y-27073871D01*
X100799600Y-26860743D01*
X100243839Y-26860258D01*
X99730197Y-27072490D01*
X99336871Y-27465130D01*
X99250551Y-27673012D01*
X99165510Y-27467197D01*
X98772870Y-27073871D01*
X98259600Y-26860743D01*
X97703839Y-26860258D01*
X97190197Y-27072490D01*
X96796871Y-27465130D01*
X96710551Y-27673012D01*
X96625510Y-27467197D01*
X96232870Y-27073871D01*
X95719600Y-26860743D01*
X95163839Y-26860258D01*
X94650197Y-27072490D01*
X94256871Y-27465130D01*
X94170551Y-27673012D01*
X94085510Y-27467197D01*
X93692870Y-27073871D01*
X93179600Y-26860743D01*
X92623839Y-26860258D01*
X92110197Y-27072490D01*
X91716871Y-27465130D01*
X91630551Y-27673012D01*
X91545510Y-27467197D01*
X91152870Y-27073871D01*
X90639600Y-26860743D01*
X90083839Y-26860258D01*
X89570197Y-27072490D01*
X89176871Y-27465130D01*
X89090551Y-27673012D01*
X89005510Y-27467197D01*
X88612870Y-27073871D01*
X88099600Y-26860743D01*
X87543839Y-26860258D01*
X87030197Y-27072490D01*
X86636871Y-27465130D01*
X86624260Y-27495500D01*
X86293960Y-27495500D01*
X86038572Y-27546300D01*
X86002355Y-27553504D01*
X85755145Y-27718685D01*
X85153446Y-28320384D01*
X85153742Y-27980839D01*
X84941510Y-27467197D01*
X84548870Y-27073871D01*
X84035600Y-26860743D01*
X83479839Y-26860258D01*
X82966197Y-27072490D01*
X82572871Y-27465130D01*
X82486551Y-27673012D01*
X82401510Y-27467197D01*
X82008870Y-27073871D01*
X81495600Y-26860743D01*
X80939839Y-26860258D01*
X80426197Y-27072490D01*
X80032871Y-27465130D01*
X79946551Y-27673012D01*
X79861510Y-27467197D01*
X79468870Y-27073871D01*
X78955600Y-26860743D01*
X78399839Y-26860258D01*
X77886197Y-27072490D01*
X77492871Y-27465130D01*
X77406551Y-27673012D01*
X77321510Y-27467197D01*
X76928870Y-27073871D01*
X76415600Y-26860743D01*
X75859839Y-26860258D01*
X75346197Y-27072490D01*
X74952871Y-27465130D01*
X74866551Y-27673012D01*
X74781510Y-27467197D01*
X74388870Y-27073871D01*
X73875600Y-26860743D01*
X73319839Y-26860258D01*
X72806197Y-27072490D01*
X72412871Y-27465130D01*
X72326551Y-27673012D01*
X72241510Y-27467197D01*
X71848870Y-27073871D01*
X71335600Y-26860743D01*
X70779839Y-26860258D01*
X70266197Y-27072490D01*
X70026980Y-27311290D01*
X69924492Y-27063862D01*
X69710138Y-26849508D01*
X69430071Y-26733500D01*
X68846700Y-26733500D01*
X68656200Y-26924000D01*
X68656200Y-28117800D01*
X68676200Y-28117800D01*
X68676200Y-28397200D01*
X68656200Y-28397200D01*
X68656200Y-29591000D01*
X68846700Y-29781500D01*
X69430071Y-29781500D01*
X69710138Y-29665492D01*
X69924492Y-29451138D01*
X70027023Y-29203608D01*
X70264130Y-29441129D01*
X70294500Y-29453740D01*
X70294500Y-31053369D01*
X68739685Y-32608185D01*
X68574504Y-32855395D01*
X68516500Y-33147000D01*
X68516500Y-44764858D01*
X68363878Y-44917214D01*
X68326000Y-45008434D01*
X68326000Y-30924500D01*
X68321484Y-30901794D01*
X68258330Y-30584295D01*
X68065618Y-30295882D01*
X67514683Y-29744947D01*
X67602929Y-29781500D01*
X68186300Y-29781500D01*
X68376800Y-29591000D01*
X68376800Y-28397200D01*
X68356800Y-28397200D01*
X68356800Y-28117800D01*
X68376800Y-28117800D01*
X68376800Y-26924000D01*
X68186300Y-26733500D01*
X67602929Y-26733500D01*
X67322862Y-26849508D01*
X67108508Y-27063862D01*
X67005977Y-27311392D01*
X66768870Y-27073871D01*
X66255600Y-26860743D01*
X65699839Y-26860258D01*
X65186197Y-27072490D01*
X64792871Y-27465130D01*
X64706551Y-27673012D01*
X64621510Y-27467197D01*
X64228870Y-27073871D01*
X63715600Y-26860743D01*
X63159839Y-26860258D01*
X62646197Y-27072490D01*
X62252871Y-27465130D01*
X62166551Y-27673012D01*
X62081510Y-27467197D01*
X61688870Y-27073871D01*
X61175600Y-26860743D01*
X60619839Y-26860258D01*
X60134500Y-27060795D01*
X60134500Y-26670000D01*
X102298500Y-26670000D01*
X102298500Y-27060795D01*
X102298500Y-27060795D01*
G37*
X102298500Y-27060795D02*
X102270197Y-27072490D01*
X101876871Y-27465130D01*
X101790551Y-27673012D01*
X101705510Y-27467197D01*
X101312870Y-27073871D01*
X100799600Y-26860743D01*
X100243839Y-26860258D01*
X99730197Y-27072490D01*
X99336871Y-27465130D01*
X99250551Y-27673012D01*
X99165510Y-27467197D01*
X98772870Y-27073871D01*
X98259600Y-26860743D01*
X97703839Y-26860258D01*
X97190197Y-27072490D01*
X96796871Y-27465130D01*
X96710551Y-27673012D01*
X96625510Y-27467197D01*
X96232870Y-27073871D01*
X95719600Y-26860743D01*
X95163839Y-26860258D01*
X94650197Y-27072490D01*
X94256871Y-27465130D01*
X94170551Y-27673012D01*
X94085510Y-27467197D01*
X93692870Y-27073871D01*
X93179600Y-26860743D01*
X92623839Y-26860258D01*
X92110197Y-27072490D01*
X91716871Y-27465130D01*
X91630551Y-27673012D01*
X91545510Y-27467197D01*
X91152870Y-27073871D01*
X90639600Y-26860743D01*
X90083839Y-26860258D01*
X89570197Y-27072490D01*
X89176871Y-27465130D01*
X89090551Y-27673012D01*
X89005510Y-27467197D01*
X88612870Y-27073871D01*
X88099600Y-26860743D01*
X87543839Y-26860258D01*
X87030197Y-27072490D01*
X86636871Y-27465130D01*
X86624260Y-27495500D01*
X86293960Y-27495500D01*
X86038572Y-27546300D01*
X86002355Y-27553504D01*
X85755145Y-27718685D01*
X85153446Y-28320384D01*
X85153742Y-27980839D01*
X84941510Y-27467197D01*
X84548870Y-27073871D01*
X84035600Y-26860743D01*
X83479839Y-26860258D01*
X82966197Y-27072490D01*
X82572871Y-27465130D01*
X82486551Y-27673012D01*
X82401510Y-27467197D01*
X82008870Y-27073871D01*
X81495600Y-26860743D01*
X80939839Y-26860258D01*
X80426197Y-27072490D01*
X80032871Y-27465130D01*
X79946551Y-27673012D01*
X79861510Y-27467197D01*
X79468870Y-27073871D01*
X78955600Y-26860743D01*
X78399839Y-26860258D01*
X77886197Y-27072490D01*
X77492871Y-27465130D01*
X77406551Y-27673012D01*
X77321510Y-27467197D01*
X76928870Y-27073871D01*
X76415600Y-26860743D01*
X75859839Y-26860258D01*
X75346197Y-27072490D01*
X74952871Y-27465130D01*
X74866551Y-27673012D01*
X74781510Y-27467197D01*
X74388870Y-27073871D01*
X73875600Y-26860743D01*
X73319839Y-26860258D01*
X72806197Y-27072490D01*
X72412871Y-27465130D01*
X72326551Y-27673012D01*
X72241510Y-27467197D01*
X71848870Y-27073871D01*
X71335600Y-26860743D01*
X70779839Y-26860258D01*
X70266197Y-27072490D01*
X70026980Y-27311290D01*
X69924492Y-27063862D01*
X69710138Y-26849508D01*
X69430071Y-26733500D01*
X68846700Y-26733500D01*
X68656200Y-26924000D01*
X68656200Y-28117800D01*
X68676200Y-28117800D01*
X68676200Y-28397200D01*
X68656200Y-28397200D01*
X68656200Y-29591000D01*
X68846700Y-29781500D01*
X69430071Y-29781500D01*
X69710138Y-29665492D01*
X69924492Y-29451138D01*
X70027023Y-29203608D01*
X70264130Y-29441129D01*
X70294500Y-29453740D01*
X70294500Y-31053369D01*
X68739685Y-32608185D01*
X68574504Y-32855395D01*
X68516500Y-33147000D01*
X68516500Y-44764858D01*
X68363878Y-44917214D01*
X68326000Y-45008434D01*
X68326000Y-30924500D01*
X68321484Y-30901794D01*
X68258330Y-30584295D01*
X68065618Y-30295882D01*
X67514683Y-29744947D01*
X67602929Y-29781500D01*
X68186300Y-29781500D01*
X68376800Y-29591000D01*
X68376800Y-28397200D01*
X68356800Y-28397200D01*
X68356800Y-28117800D01*
X68376800Y-28117800D01*
X68376800Y-26924000D01*
X68186300Y-26733500D01*
X67602929Y-26733500D01*
X67322862Y-26849508D01*
X67108508Y-27063862D01*
X67005977Y-27311392D01*
X66768870Y-27073871D01*
X66255600Y-26860743D01*
X65699839Y-26860258D01*
X65186197Y-27072490D01*
X64792871Y-27465130D01*
X64706551Y-27673012D01*
X64621510Y-27467197D01*
X64228870Y-27073871D01*
X63715600Y-26860743D01*
X63159839Y-26860258D01*
X62646197Y-27072490D01*
X62252871Y-27465130D01*
X62166551Y-27673012D01*
X62081510Y-27467197D01*
X61688870Y-27073871D01*
X61175600Y-26860743D01*
X60619839Y-26860258D01*
X60134500Y-27060795D01*
X60134500Y-26670000D01*
X102298500Y-26670000D01*
X102298500Y-27060795D01*
G36*
X45107714Y-39649622D02*
X45504332Y-39814313D01*
X45847000Y-39814611D01*
X45847000Y-40148430D01*
X45490311Y-40295811D01*
X45186378Y-40599214D01*
X45021687Y-40995832D01*
X45021498Y-41213372D01*
X44324870Y-41910000D01*
X39140130Y-41910000D01*
X39140130Y-41737280D01*
X38949630Y-41546780D01*
X38375330Y-41546780D01*
X38375330Y-41267380D01*
X38949630Y-41267380D01*
X39140130Y-41076880D01*
X39140130Y-40520179D01*
X39024122Y-40240112D01*
X38809768Y-40025758D01*
X38529701Y-39909750D01*
X38463855Y-39909750D01*
X38308282Y-40065323D01*
X38308282Y-39909750D01*
X38280340Y-39909750D01*
X38280340Y-39822790D01*
X38606130Y-39497000D01*
X44955358Y-39497000D01*
X45107714Y-39649622D01*
X45107714Y-39649622D01*
G37*
X45107714Y-39649622D02*
X45504332Y-39814313D01*
X45847000Y-39814611D01*
X45847000Y-40148430D01*
X45490311Y-40295811D01*
X45186378Y-40599214D01*
X45021687Y-40995832D01*
X45021498Y-41213372D01*
X44324870Y-41910000D01*
X39140130Y-41910000D01*
X39140130Y-41737280D01*
X38949630Y-41546780D01*
X38375330Y-41546780D01*
X38375330Y-41267380D01*
X38949630Y-41267380D01*
X39140130Y-41076880D01*
X39140130Y-40520179D01*
X39024122Y-40240112D01*
X38809768Y-40025758D01*
X38529701Y-39909750D01*
X38463855Y-39909750D01*
X38308282Y-40065323D01*
X38308282Y-39909750D01*
X38280340Y-39909750D01*
X38280340Y-39822790D01*
X38606130Y-39497000D01*
X44955358Y-39497000D01*
X45107714Y-39649622D01*
G36*
X28532990Y-31016303D02*
X28925630Y-31409629D01*
X29438900Y-31622757D01*
X29994661Y-31623242D01*
X30025054Y-31610684D01*
X30746307Y-32331937D01*
X30568900Y-32296360D01*
X29502100Y-32296360D01*
X29259977Y-32343337D01*
X29111561Y-32440831D01*
X28968538Y-32297808D01*
X28688471Y-32181800D01*
X28333700Y-32181800D01*
X28143200Y-32372300D01*
X28143200Y-33515300D01*
X28163200Y-33515300D01*
X28163200Y-33794700D01*
X28143200Y-33794700D01*
X28143200Y-34937700D01*
X28333700Y-35128200D01*
X28688471Y-35128200D01*
X28968538Y-35012192D01*
X29111979Y-34868751D01*
X29252460Y-34963577D01*
X29409361Y-34995042D01*
X29289465Y-35044582D01*
X28949775Y-35383680D01*
X28765710Y-35826959D01*
X28765291Y-36306935D01*
X28948582Y-36750535D01*
X29287680Y-37090225D01*
X29578539Y-37211000D01*
X27051000Y-37211000D01*
X27051000Y-35017385D01*
X27318529Y-35128200D01*
X27673300Y-35128200D01*
X27863800Y-34937700D01*
X27863800Y-33794700D01*
X27843800Y-33794700D01*
X27843800Y-33515300D01*
X27863800Y-33515300D01*
X27863800Y-32372300D01*
X27673300Y-32181800D01*
X27318529Y-32181800D01*
X27051000Y-32292615D01*
X27051000Y-31622890D01*
X27454661Y-31623242D01*
X27968303Y-31411010D01*
X28361629Y-31018370D01*
X28447949Y-30810488D01*
X28532990Y-31016303D01*
X28532990Y-31016303D01*
G37*
X28532990Y-31016303D02*
X28925630Y-31409629D01*
X29438900Y-31622757D01*
X29994661Y-31623242D01*
X30025054Y-31610684D01*
X30746307Y-32331937D01*
X30568900Y-32296360D01*
X29502100Y-32296360D01*
X29259977Y-32343337D01*
X29111561Y-32440831D01*
X28968538Y-32297808D01*
X28688471Y-32181800D01*
X28333700Y-32181800D01*
X28143200Y-32372300D01*
X28143200Y-33515300D01*
X28163200Y-33515300D01*
X28163200Y-33794700D01*
X28143200Y-33794700D01*
X28143200Y-34937700D01*
X28333700Y-35128200D01*
X28688471Y-35128200D01*
X28968538Y-35012192D01*
X29111979Y-34868751D01*
X29252460Y-34963577D01*
X29409361Y-34995042D01*
X29289465Y-35044582D01*
X28949775Y-35383680D01*
X28765710Y-35826959D01*
X28765291Y-36306935D01*
X28948582Y-36750535D01*
X29287680Y-37090225D01*
X29578539Y-37211000D01*
X27051000Y-37211000D01*
X27051000Y-35017385D01*
X27318529Y-35128200D01*
X27673300Y-35128200D01*
X27863800Y-34937700D01*
X27863800Y-33794700D01*
X27843800Y-33794700D01*
X27843800Y-33515300D01*
X27863800Y-33515300D01*
X27863800Y-32372300D01*
X27673300Y-32181800D01*
X27318529Y-32181800D01*
X27051000Y-32292615D01*
X27051000Y-31622890D01*
X27454661Y-31623242D01*
X27968303Y-31411010D01*
X28361629Y-31018370D01*
X28447949Y-30810488D01*
X28532990Y-31016303D01*
G36*
X109232700Y-33007300D02*
X109252700Y-33007300D01*
X109252700Y-33286700D01*
X109232700Y-33286700D01*
X109232700Y-33306700D01*
X108953300Y-33306700D01*
X108953300Y-33286700D01*
X108933300Y-33286700D01*
X108933300Y-33007300D01*
X108953300Y-33007300D01*
X108953300Y-32987300D01*
X109232700Y-32987300D01*
X109232700Y-33007300D01*
X109232700Y-33007300D01*
G37*
X109232700Y-33007300D02*
X109252700Y-33007300D01*
X109252700Y-33286700D01*
X109232700Y-33286700D01*
X109232700Y-33306700D01*
X108953300Y-33306700D01*
X108953300Y-33286700D01*
X108933300Y-33286700D01*
X108933300Y-33007300D01*
X108953300Y-33007300D01*
X108953300Y-32987300D01*
X109232700Y-32987300D01*
X109232700Y-33007300D01*
G36*
X109791500Y-26844393D02*
X109372100Y-26670243D01*
X108816339Y-26669758D01*
X108302697Y-26881990D01*
X107909371Y-27274630D01*
X107696243Y-27787900D01*
X107695758Y-28343661D01*
X107907990Y-28857303D01*
X108300630Y-29250629D01*
X108508512Y-29336949D01*
X108302697Y-29421990D01*
X107909371Y-29814630D01*
X107696243Y-30327900D01*
X107695758Y-30883661D01*
X107907990Y-31397303D01*
X108146790Y-31636520D01*
X107899362Y-31739008D01*
X107685008Y-31953362D01*
X107569000Y-32233429D01*
X107569000Y-32704370D01*
X106139315Y-31274685D01*
X106090400Y-31242001D01*
X105892105Y-31109504D01*
X105600500Y-31051500D01*
X105095142Y-31051500D01*
X105092888Y-31049242D01*
X106139315Y-30002816D01*
X106304496Y-29755605D01*
X106311976Y-29717999D01*
X106362500Y-29464000D01*
X106362500Y-29454205D01*
X106390803Y-29442510D01*
X106784129Y-29049870D01*
X106997257Y-28536600D01*
X106997742Y-27980839D01*
X106785510Y-27467197D01*
X106392870Y-27073871D01*
X105879600Y-26860743D01*
X105323839Y-26860258D01*
X104810197Y-27072490D01*
X104416871Y-27465130D01*
X104330551Y-27673012D01*
X104245510Y-27467197D01*
X103852870Y-27073871D01*
X103822500Y-27061260D01*
X103822500Y-26289000D01*
X103784607Y-26098500D01*
X109791500Y-26098500D01*
X109791500Y-26844393D01*
X109791500Y-26844393D01*
G37*
X109791500Y-26844393D02*
X109372100Y-26670243D01*
X108816339Y-26669758D01*
X108302697Y-26881990D01*
X107909371Y-27274630D01*
X107696243Y-27787900D01*
X107695758Y-28343661D01*
X107907990Y-28857303D01*
X108300630Y-29250629D01*
X108508512Y-29336949D01*
X108302697Y-29421990D01*
X107909371Y-29814630D01*
X107696243Y-30327900D01*
X107695758Y-30883661D01*
X107907990Y-31397303D01*
X108146790Y-31636520D01*
X107899362Y-31739008D01*
X107685008Y-31953362D01*
X107569000Y-32233429D01*
X107569000Y-32704370D01*
X106139315Y-31274685D01*
X106090400Y-31242001D01*
X105892105Y-31109504D01*
X105600500Y-31051500D01*
X105095142Y-31051500D01*
X105092888Y-31049242D01*
X106139315Y-30002816D01*
X106304496Y-29755605D01*
X106311976Y-29717999D01*
X106362500Y-29464000D01*
X106362500Y-29454205D01*
X106390803Y-29442510D01*
X106784129Y-29049870D01*
X106997257Y-28536600D01*
X106997742Y-27980839D01*
X106785510Y-27467197D01*
X106392870Y-27073871D01*
X105879600Y-26860743D01*
X105323839Y-26860258D01*
X104810197Y-27072490D01*
X104416871Y-27465130D01*
X104330551Y-27673012D01*
X104245510Y-27467197D01*
X103852870Y-27073871D01*
X103822500Y-27061260D01*
X103822500Y-26289000D01*
X103784607Y-26098500D01*
X109791500Y-26098500D01*
X109791500Y-26844393D01*
G36*
X28532990Y-28476303D02*
X28925630Y-28869629D01*
X29133512Y-28955949D01*
X28927697Y-29040990D01*
X28534371Y-29433630D01*
X28448051Y-29641512D01*
X28363010Y-29435697D01*
X27970370Y-29042371D01*
X27762488Y-28956051D01*
X27968303Y-28871010D01*
X28361629Y-28478370D01*
X28447949Y-28270488D01*
X28532990Y-28476303D01*
X28532990Y-28476303D01*
G37*
X28532990Y-28476303D02*
X28925630Y-28869629D01*
X29133512Y-28955949D01*
X28927697Y-29040990D01*
X28534371Y-29433630D01*
X28448051Y-29641512D01*
X28363010Y-29435697D01*
X27970370Y-29042371D01*
X27762488Y-28956051D01*
X27968303Y-28871010D01*
X28361629Y-28478370D01*
X28447949Y-28270488D01*
X28532990Y-28476303D01*
G36*
X55308499Y-26289166D02*
X54841339Y-26288758D01*
X54327697Y-26500990D01*
X53934371Y-26893630D01*
X53848051Y-27101512D01*
X53763010Y-26895697D01*
X53370370Y-26502371D01*
X52857100Y-26289243D01*
X52301339Y-26288758D01*
X51787697Y-26500990D01*
X51394371Y-26893630D01*
X51308051Y-27101512D01*
X51223010Y-26895697D01*
X50830370Y-26502371D01*
X50317100Y-26289243D01*
X49761339Y-26288758D01*
X49247697Y-26500990D01*
X48854371Y-26893630D01*
X48768051Y-27101512D01*
X48683010Y-26895697D01*
X48290370Y-26502371D01*
X47777100Y-26289243D01*
X47221339Y-26288758D01*
X46707697Y-26500990D01*
X46314371Y-26893630D01*
X46228051Y-27101512D01*
X46143010Y-26895697D01*
X45750370Y-26502371D01*
X45237100Y-26289243D01*
X44681339Y-26288758D01*
X44167697Y-26500990D01*
X43774371Y-26893630D01*
X43688051Y-27101512D01*
X43603010Y-26895697D01*
X43210370Y-26502371D01*
X42697100Y-26289243D01*
X42141339Y-26288758D01*
X41627697Y-26500990D01*
X41234371Y-26893630D01*
X41148051Y-27101512D01*
X41063010Y-26895697D01*
X40670370Y-26502371D01*
X40157100Y-26289243D01*
X39601339Y-26288758D01*
X39087697Y-26500990D01*
X38694371Y-26893630D01*
X38608051Y-27101512D01*
X38523010Y-26895697D01*
X38130370Y-26502371D01*
X37617100Y-26289243D01*
X37061339Y-26288758D01*
X36547697Y-26500990D01*
X36154371Y-26893630D01*
X36068051Y-27101512D01*
X35983010Y-26895697D01*
X35590370Y-26502371D01*
X35077100Y-26289243D01*
X34521339Y-26288758D01*
X34007697Y-26500990D01*
X33768480Y-26739790D01*
X33665992Y-26492362D01*
X33451638Y-26278008D01*
X33171571Y-26162000D01*
X32588200Y-26162000D01*
X32397700Y-26352500D01*
X32397700Y-27546300D01*
X32417700Y-27546300D01*
X32417700Y-27825700D01*
X32397700Y-27825700D01*
X32397700Y-27845700D01*
X32118300Y-27845700D01*
X32118300Y-27825700D01*
X32098300Y-27825700D01*
X32098300Y-27546300D01*
X32118300Y-27546300D01*
X32118300Y-26352500D01*
X31927800Y-26162000D01*
X31344429Y-26162000D01*
X31064362Y-26278008D01*
X30850008Y-26492362D01*
X30747477Y-26739892D01*
X30510370Y-26502371D01*
X29997100Y-26289243D01*
X29441339Y-26288758D01*
X28927697Y-26500990D01*
X28534371Y-26893630D01*
X28448051Y-27101512D01*
X28363010Y-26895697D01*
X27970370Y-26502371D01*
X27457100Y-26289243D01*
X26901339Y-26288758D01*
X26387697Y-26500990D01*
X26098500Y-26789683D01*
X26098500Y-26098500D01*
X55308665Y-26098500D01*
X55308499Y-26289166D01*
X55308499Y-26289166D01*
G37*
X55308499Y-26289166D02*
X54841339Y-26288758D01*
X54327697Y-26500990D01*
X53934371Y-26893630D01*
X53848051Y-27101512D01*
X53763010Y-26895697D01*
X53370370Y-26502371D01*
X52857100Y-26289243D01*
X52301339Y-26288758D01*
X51787697Y-26500990D01*
X51394371Y-26893630D01*
X51308051Y-27101512D01*
X51223010Y-26895697D01*
X50830370Y-26502371D01*
X50317100Y-26289243D01*
X49761339Y-26288758D01*
X49247697Y-26500990D01*
X48854371Y-26893630D01*
X48768051Y-27101512D01*
X48683010Y-26895697D01*
X48290370Y-26502371D01*
X47777100Y-26289243D01*
X47221339Y-26288758D01*
X46707697Y-26500990D01*
X46314371Y-26893630D01*
X46228051Y-27101512D01*
X46143010Y-26895697D01*
X45750370Y-26502371D01*
X45237100Y-26289243D01*
X44681339Y-26288758D01*
X44167697Y-26500990D01*
X43774371Y-26893630D01*
X43688051Y-27101512D01*
X43603010Y-26895697D01*
X43210370Y-26502371D01*
X42697100Y-26289243D01*
X42141339Y-26288758D01*
X41627697Y-26500990D01*
X41234371Y-26893630D01*
X41148051Y-27101512D01*
X41063010Y-26895697D01*
X40670370Y-26502371D01*
X40157100Y-26289243D01*
X39601339Y-26288758D01*
X39087697Y-26500990D01*
X38694371Y-26893630D01*
X38608051Y-27101512D01*
X38523010Y-26895697D01*
X38130370Y-26502371D01*
X37617100Y-26289243D01*
X37061339Y-26288758D01*
X36547697Y-26500990D01*
X36154371Y-26893630D01*
X36068051Y-27101512D01*
X35983010Y-26895697D01*
X35590370Y-26502371D01*
X35077100Y-26289243D01*
X34521339Y-26288758D01*
X34007697Y-26500990D01*
X33768480Y-26739790D01*
X33665992Y-26492362D01*
X33451638Y-26278008D01*
X33171571Y-26162000D01*
X32588200Y-26162000D01*
X32397700Y-26352500D01*
X32397700Y-27546300D01*
X32417700Y-27546300D01*
X32417700Y-27825700D01*
X32397700Y-27825700D01*
X32397700Y-27845700D01*
X32118300Y-27845700D01*
X32118300Y-27825700D01*
X32098300Y-27825700D01*
X32098300Y-27546300D01*
X32118300Y-27546300D01*
X32118300Y-26352500D01*
X31927800Y-26162000D01*
X31344429Y-26162000D01*
X31064362Y-26278008D01*
X30850008Y-26492362D01*
X30747477Y-26739892D01*
X30510370Y-26502371D01*
X29997100Y-26289243D01*
X29441339Y-26288758D01*
X28927697Y-26500990D01*
X28534371Y-26893630D01*
X28448051Y-27101512D01*
X28363010Y-26895697D01*
X27970370Y-26502371D01*
X27457100Y-26289243D01*
X26901339Y-26288758D01*
X26387697Y-26500990D01*
X26098500Y-26789683D01*
X26098500Y-26098500D01*
X55308665Y-26098500D01*
X55308499Y-26289166D01*
M02*
